# Blender 5.1.1
# www.blender.org
g MainBody_Plane
v 0.000001 1.000000 9.999583
v 1.500001 1.000000 9.999583
v 1.500001 -1.000000 9.999583
v 0.000001 -1.000000 9.999583
v 1.500000 -1.000000 -3.000417
v 1.500000 -1.000000 2.999583
v 1.500000 1.000000 2.999582
v 1.500000 1.000000 -3.000417
v -0.000000 -1.000000 -3.000417
v 0.000000 -1.000000 2.999583
v 0.000000 1.000000 2.999582
v -0.000000 1.000000 -3.000417
v 2.700001 0.300000 9.999583
v 2.700001 -0.300000 9.999583
v 2.700000 -0.300000 -3.000417
v 2.700000 0.300000 -3.000417
v 2.700000 -0.300000 2.999582
v 2.700000 0.300000 2.999583
v 1.500001 -1.000000 9.899583
v 0.000001 -1.000000 9.899583
v 1.500001 1.000000 9.899583
v 0.000001 1.000000 9.899583
v 2.700001 0.300000 9.899583
v 2.700001 -0.300000 9.899583
v 1.500000 1.000000 3.099586
v 0.000000 1.000000 3.099586
v 1.500000 -1.000000 3.099586
v 0.000000 -1.000000 3.099586
v 2.700000 0.300000 3.099585
v 2.700000 -0.300000 3.099585
v 1.500000 -1.000000 -2.900417
v 1.500000 -1.000000 2.899583
v 1.500000 1.000000 2.899582
v 1.500000 1.000000 -2.900418
v -0.000000 -1.000000 -2.900417
v 0.000000 -1.000000 2.899583
v 0.000000 1.000000 2.899582
v -0.000000 1.000000 -2.900418
v 2.700000 0.300000 -2.900417
v 2.700000 0.300000 2.899583
v 2.700000 -0.300000 -2.900418
v 2.700000 -0.300000 2.899582
v 1.500000 1.000000 -3.100418
v 1.499999 1.000000 -9.900417
v -0.000000 1.000000 -3.100418
v -0.000001 1.000000 -9.900417
v 1.499999 -1.000000 -9.900417
v 1.500000 -1.000000 -3.100417
v -0.000001 -1.000000 -9.900417
v -0.000000 -1.000000 -3.100417
v 2.699999 0.300000 -9.900417
v 2.700000 0.300000 -3.100417
v 2.699999 -0.300000 -9.900417
v 2.700000 -0.300000 -3.100418
v 1.500000 0.300000 -2.900417
v 1.500000 0.300000 2.899583
v 1.500000 -0.300000 -2.900418
v 1.500000 -0.300000 2.899582
v 0.519336 -1.000000 14.899582
v 0.000001 -1.000000 14.899583
v 1.719336 0.300000 14.899583
v 1.719336 -0.300000 14.899583
v 0.000001 0.803867 14.899583
v 0.519336 0.803867 14.899582
v 0.000001 -1.000000 10.099584
v 2.677214 0.300000 10.099584
v 1.477214 0.995443 10.099585
v 1.477214 -1.000000 10.099585
v 2.677214 -0.300000 10.099584
v 0.000001 0.995443 10.099584
v 0.000001 0.300000 15.999583
v 0.000001 -0.300000 15.999583
v 0.300001 0.300000 15.999583
v 0.300001 -0.300000 15.999583
v 0.459331 0.759329 15.099584
v 1.628827 0.300000 15.099583
v 1.628827 -0.300000 15.099583
v 0.459331 -0.938994 15.099584
v 0.000001 -0.938994 15.099584
v 0.000001 0.759329 15.099584
v -0.000001 1.000000 -10.100417
v 1.499999 1.000000 -10.100417
v 1.499999 -1.000000 -10.100417
v -0.000001 -1.000000 -10.100417
v 2.700000 0.300000 -10.100417
v 2.700000 -0.300000 -10.100417
v 1.699999 0.300000 -12.000417
v 1.699999 -0.300000 -12.000417
v 0.799999 0.300000 -12.000417
v 0.799999 -0.300000 -12.000417
v -0.000001 0.300000 -12.000417
v -0.000001 -0.300000 -12.000417
v 1.749713 0.300000 -11.900416
v 0.834799 -0.429828 -11.900416
v 0.834799 0.429828 -11.900416
v 1.749713 -0.300000 -11.900416
v -0.000001 0.429828 -11.900416
v -0.000001 -0.429828 -11.900416
v 2.653957 0.423022 9.999583
v 2.700001 0.350000 9.999583
v 2.686515 0.392098 9.999583
v 2.700001 -0.350000 9.999583
v 2.654059 -0.422971 9.999583
v 2.686544 -0.392083 9.999582
v 2.654610 -0.422695 2.999582
v 2.700000 -0.350000 2.999582
v 2.686706 -0.392003 2.999582
v 2.654652 -0.422674 -3.000417
v 2.700000 -0.350000 -3.000417
v 2.686718 -0.391996 -3.000417
v 2.654633 0.422684 -3.000417
v 2.700000 0.350000 -3.000417
v 2.686712 0.391999 -3.000417
v 2.654566 0.422717 2.999583
v 2.700000 0.350000 2.999583
v 2.686693 0.392009 2.999583
v 2.700001 0.350000 9.899583
v 2.654238 0.422881 9.899582
v 2.686597 0.392057 9.899583
v 2.654315 -0.422843 9.899584
v 2.700001 -0.350000 9.899583
v 2.686620 -0.392046 9.899584
v 2.700000 -0.350000 3.099585
v 2.654494 -0.422753 3.099586
v 2.686671 -0.392020 3.099586
v 2.700000 0.350000 3.099585
v 2.654435 0.422783 3.099585
v 2.686655 0.392028 3.099585
v 2.654672 -0.422664 2.899582
v 2.700000 -0.350000 2.899582
v 2.686724 -0.391994 2.899582
v 2.700000 -0.350000 -2.900418
v 2.654685 -0.422657 -2.900418
v 2.686727 -0.391991 -2.900418
v 2.654660 0.422670 -2.900417
v 2.700000 0.350000 -2.900417
v 2.686720 0.391995 -2.900417
v 2.700000 0.350000 2.899583
v 2.654639 0.422681 2.899583
v 2.686714 0.391998 2.899583
v 2.654569 -0.422715 -3.100418
v 2.700000 -0.350000 -3.100418
v 2.686694 -0.392009 -3.100418
v 2.699999 -0.350000 -9.900417
v 2.654428 -0.422786 -9.900417
v 2.686652 -0.392029 -9.900417
v 2.654416 0.422792 -9.900417
v 2.699999 0.350000 -9.900417
v 2.686648 0.392031 -9.900417
v 2.700000 0.350000 -3.100417
v 2.654554 0.422723 -3.100417
v 2.686689 0.392011 -3.100417
v 0.000001 0.350000 15.999583
v 0.000001 0.418540 15.953147
v 0.000001 0.390785 15.985982
v 0.300001 0.350000 15.999583
v 0.308222 0.418540 15.953147
v 0.302409 0.390785 15.985981
v 0.300001 -0.350000 15.999583
v 0.307595 -0.425689 15.956686
v 0.302225 -0.392880 15.987020
v 0.000001 -0.425690 15.956687
v 0.000001 -0.350000 15.999583
v 0.000001 -0.392880 15.987020
v 1.719336 0.350000 14.899583
v 1.669606 0.416737 14.899582
v 1.704770 0.390257 14.899582
v 1.672678 -0.423329 14.899583
v 1.719336 -0.350000 14.899583
v 1.705669 -0.392188 14.899583
v 2.677214 -0.350000 10.099584
v 2.630942 -0.423136 10.099585
v 2.663661 -0.392132 10.099585
v 2.677214 0.350000 10.099584
v 2.630733 0.423064 10.099585
v 2.663600 0.392111 10.099584
v 1.577244 0.415849 15.099584
v 1.628827 0.350000 15.099583
v 1.613718 0.389997 15.099584
v 1.628827 -0.350000 15.099583
v 1.580139 -0.422439 15.099585
v 1.614567 -0.391928 15.099584
v 2.700000 0.350000 -10.100417
v 2.653918 0.423040 -10.100417
v 2.686502 0.392104 -10.100417
v 2.653927 -0.423036 -10.100417
v 2.700000 -0.350000 -10.100417
v 2.686505 -0.392102 -10.100417
v 0.799999 0.350000 -12.000417
v 0.816673 0.414292 -11.952503
v 0.804883 0.389541 -11.986383
v 1.671485 0.400000 -11.950417
v 1.699999 0.350000 -12.000417
v 1.691648 0.385355 -11.985772
v 1.671494 -0.400000 -11.950417
v 1.699999 -0.350000 -12.000417
v 1.691649 -0.385355 -11.985771
v 0.816673 -0.414292 -11.952503
v 0.799999 -0.350000 -12.000417
v 0.804883 -0.389541 -11.986383
v -0.000001 0.414292 -11.952503
v -0.000001 0.350000 -12.000417
v -0.000001 0.389541 -11.986383
v -0.000001 -0.350000 -12.000417
v -0.000001 -0.414292 -11.952503
v -0.000001 -0.389541 -11.986383
v 1.749713 0.350000 -11.900416
v 1.696475 0.401736 -11.900415
v 1.734120 0.385864 -11.900417
v 1.696485 -0.401735 -11.900416
v 1.749713 -0.350000 -11.900416
v 1.734122 -0.385864 -11.900416
v 0.000001 0.783118 15.041091
v 0.000001 0.801914 14.950093
v 0.000001 0.795616 14.997247
v 0.483198 0.783197 15.040899
v 0.509566 0.801913 14.950112
v 0.497881 0.795639 14.997195
v 0.509585 -1.000000 14.950013
v 0.484482 -0.976721 15.037742
v 0.498262 -0.993182 14.996240
v 0.000001 -1.000000 14.949996
v 0.000001 -0.976614 15.037917
v 0.000001 -0.993150 14.996287
v 1.709558 0.300000 14.950155
v 1.669028 0.300000 15.043100
v 1.693728 0.300000 14.997850
v 1.669057 -0.300000 15.043060
v 1.709557 -0.300000 14.950160
v 1.693736 -0.300000 14.997845
v 1.659535 0.416762 14.950026
v 1.617304 0.416368 15.044252
v 1.643068 0.416657 14.998151
v 1.668841 0.350000 15.043362
v 1.709564 0.350000 14.950122
v 1.693676 0.350000 14.997917
v 1.653647 0.390151 15.043764
v 1.694914 0.390265 14.950078
v 1.678824 0.390234 14.998024
v 1.620671 -0.423071 15.043846
v 1.662674 -0.423451 14.950057
v 1.646306 -0.423390 14.998041
v 1.709560 -0.350000 14.950139
v 1.668929 -0.350000 15.043240
v 1.693700 -0.350000 14.997889
v 1.695830 -0.392224 14.950105
v 1.654718 -0.392114 15.043528
v 1.679797 -0.392206 14.997961
v 1.029760 0.300000 15.956993
v 0.949029 0.300000 15.999582
v 0.993788 0.300000 15.987109
v 0.949023 -0.300000 15.999582
v 1.029756 -0.300000 15.956997
v 0.993785 -0.300000 15.987108
v 0.928246 0.401419 15.949857
v 1.009961 0.400804 15.906429
v 0.973460 0.400651 15.937024
v 0.948957 0.350000 15.999583
v 1.029854 0.350000 15.956857
v 0.993794 0.350000 15.987070
v 1.024116 0.385581 15.941957
v 0.942801 0.385758 15.985016
v 0.987838 0.385539 15.972376
v 1.009315 -0.401136 15.906560
v 0.927480 -0.401967 15.950128
v 0.972740 -0.400909 15.937142
v 1.029840 -0.350000 15.956876
v 0.948939 -0.350000 15.999583
v 0.993785 -0.350000 15.987074
v 0.942534 -0.385913 15.985092
v 1.023919 -0.385674 15.942004
v 0.987613 -0.385612 15.972410
v -0.000001 1.000000 -9.950417
v -0.000001 1.000000 -10.050417
v -0.000001 1.000000 -10.000417
v 1.499999 1.000000 -9.950417
v 1.499999 1.000000 -10.050417
v 1.499999 1.000000 -10.000417
v 1.499999 -1.000000 -10.050417
v 1.499999 -1.000000 -9.950417
v 1.499999 -1.000000 -10.000417
v -0.000001 -1.000000 -10.050417
v -0.000001 -1.000000 -9.950417
v -0.000001 -1.000000 -10.000417
v 2.699999 0.300000 -10.050417
v 2.699999 0.300000 -9.950417
v 2.700000 0.300000 -10.000417
v 2.699999 -0.300000 -9.950417
v 2.699999 -0.300000 -10.050417
v 2.700000 -0.300000 -10.000417
v 2.699999 0.350000 -9.950417
v 2.699999 0.350000 -10.050417
v 2.700000 0.350000 -10.000417
v 2.654064 0.422968 -10.050417
v 2.654313 0.422843 -9.950417
v 2.654189 0.422905 -10.000417
v 2.686619 0.392046 -9.950417
v 2.686545 0.392082 -10.050417
v 2.686582 0.392064 -10.000417
v 2.654325 -0.422838 -9.950417
v 2.654074 -0.422963 -10.050417
v 2.654199 -0.422900 -10.000417
v 2.699999 -0.350000 -10.050417
v 2.699999 -0.350000 -9.950417
v 2.700000 -0.350000 -10.000417
v 2.686548 -0.392081 -10.050417
v 2.686622 -0.392044 -9.950417
v 2.686584 -0.392063 -10.000417
v -1.499999 1.000000 9.999583
v -1.499999 -1.000000 9.999583
v -1.500000 -1.000000 -3.000417
v -1.500000 -1.000000 2.999583
v -1.500000 1.000000 2.999582
v -1.500000 1.000000 -3.000417
v -2.700000 0.300000 9.999583
v -2.700000 -0.300000 9.999583
v -2.700000 -0.300000 -3.000417
v -2.700000 0.300000 -3.000417
v -2.700000 -0.300000 2.999583
v -2.700000 0.300000 2.999583
v -1.499999 -1.000000 9.899583
v -1.499999 1.000000 9.899583
v -2.700000 0.300000 9.899583
v -2.700000 -0.300000 9.899583
v -1.500000 1.000000 3.099586
v -1.500000 -1.000000 3.099586
v -2.700000 0.300000 3.099586
v -2.700000 -0.300000 3.099586
v -1.500000 -1.000000 -2.900417
v -1.500000 -1.000000 2.899583
v -1.500000 1.000000 2.899582
v -1.500000 1.000000 -2.900418
v -2.700000 0.300000 -2.900417
v -2.700000 0.300000 2.899583
v -2.700000 -0.300000 -2.900418
v -2.700000 -0.300000 2.899582
v -1.500000 1.000000 -3.100418
v -1.500001 1.000000 -9.900417
v -1.500001 -1.000000 -9.900417
v -1.500000 -1.000000 -3.100417
v -2.700001 0.300000 -9.900417
v -2.700000 0.300000 -3.100416
v -2.700001 -0.300000 -9.900417
v -2.700000 -0.300000 -3.100417
v -1.500000 0.300000 -2.900417
v -1.500000 0.300000 2.899583
v -1.500000 -0.300000 -2.900418
v -1.500000 -0.300000 2.899582
v -0.519333 -1.000000 14.899584
v -1.719333 0.300000 14.899583
v -1.719333 -0.300000 14.899583
v -0.519333 0.803867 14.899584
v -2.677213 0.300000 10.099584
v -1.477213 0.995443 10.099583
v -1.477213 -1.000000 10.099583
v -2.677213 -0.300000 10.099584
v -0.299998 0.300000 15.999583
v -0.299998 -0.300000 15.999583
v -0.459328 0.759329 15.099584
v -1.628825 0.300000 15.099584
v -1.628825 -0.300000 15.099584
v -0.459328 -0.938994 15.099584
v -1.500001 1.000000 -10.100417
v -1.500001 -1.000000 -10.100417
v -2.700001 0.300000 -10.100417
v -2.700001 -0.300000 -10.100417
v -1.700001 0.300000 -12.000417
v -1.700001 -0.300000 -12.000417
v -0.800001 0.300000 -12.000417
v -0.800001 -0.300000 -12.000417
v -1.749715 0.300000 -11.900416
v -0.834801 -0.429828 -11.900416
v -0.834801 0.429828 -11.900416
v -1.749715 -0.300000 -11.900416
v -2.653955 0.423022 9.999583
v -2.700000 0.350000 9.999583
v -2.686513 0.392098 9.999583
v -2.700000 -0.350000 9.999583
v -2.654058 -0.422971 9.999583
v -2.686543 -0.392083 9.999583
v -2.654609 -0.422695 2.999583
v -2.700000 -0.350000 2.999583
v -2.686705 -0.392003 2.999583
v -2.654653 -0.422674 -3.000417
v -2.700000 -0.350000 -3.000417
v -2.686718 -0.391996 -3.000417
v -2.654633 0.422684 -3.000416
v -2.700000 0.350000 -3.000417
v -2.686713 0.391999 -3.000417
v -2.654565 0.422717 2.999583
v -2.700000 0.350000 2.999583
v -2.686692 0.392009 2.999583
v -2.700000 0.350000 9.899583
v -2.654237 0.422881 9.899583
v -2.686596 0.392057 9.899583
v -2.654314 -0.422843 9.899583
v -2.700000 -0.350000 9.899583
v -2.686619 -0.392046 9.899583
v -2.700000 -0.350000 3.099586
v -2.654493 -0.422753 3.099586
v -2.686671 -0.392020 3.099586
v -2.700000 0.350000 3.099586
v -2.654435 0.422783 3.099586
v -2.686654 0.392028 3.099586
v -2.654672 -0.422664 2.899582
v -2.700000 -0.350000 2.899582
v -2.686724 -0.391994 2.899582
v -2.700000 -0.350000 -2.900418
v -2.654686 -0.422657 -2.900417
v -2.686728 -0.391991 -2.900417
v -2.654661 0.422670 -2.900417
v -2.700000 0.350000 -2.900417
v -2.686721 0.391995 -2.900417
v -2.700000 0.350000 2.899583
v -2.654638 0.422681 2.899583
v -2.686714 0.391998 2.899583
v -2.654569 -0.422715 -3.100418
v -2.700000 -0.350000 -3.100417
v -2.686694 -0.392009 -3.100417
v -2.700001 -0.350000 -9.900417
v -2.654429 -0.422786 -9.900417
v -2.686654 -0.392029 -9.900417
v -2.654418 0.422792 -9.900417
v -2.700001 0.350000 -9.900417
v -2.686650 0.392031 -9.900417
v -2.700000 0.350000 -3.100416
v -2.654554 0.422723 -3.100417
v -2.686690 0.392011 -3.100416
v -0.299998 0.350000 15.999583
v -0.308219 0.418540 15.953147
v -0.302407 0.390785 15.985982
v -0.299998 -0.350000 15.999583
v -0.307593 -0.425689 15.956687
v -0.302222 -0.392880 15.987020
v -1.719333 0.350000 14.899583
v -1.669604 0.416737 14.899584
v -1.704768 0.390257 14.899583
v -1.672675 -0.423329 14.899583
v -1.719333 -0.350000 14.899583
v -1.705668 -0.392188 14.899583
v -2.677213 -0.350000 10.099584
v -2.630941 -0.423136 10.099584
v -2.663660 -0.392132 10.099584
v -2.677213 0.350000 10.099584
v -2.630732 0.423064 10.099584
v -2.663598 0.392111 10.099584
v -1.577241 0.415849 15.099584
v -1.628825 0.350000 15.099584
v -1.613715 0.389997 15.099584
v -1.628825 -0.350000 15.099584
v -1.580136 -0.422439 15.099584
v -1.614564 -0.391928 15.099584
v -2.700001 0.350000 -10.100417
v -2.653920 0.423040 -10.100417
v -2.686503 0.392104 -10.100418
v -2.653929 -0.423036 -10.100417
v -2.700001 -0.350000 -10.100417
v -2.686506 -0.392102 -10.100417
v -0.800001 0.350000 -12.000417
v -0.816675 0.414292 -11.952503
v -0.804885 0.389541 -11.986383
v -1.671487 0.400000 -11.950417
v -1.700001 0.350000 -12.000417
v -1.691649 0.385355 -11.985772
v -1.671495 -0.400000 -11.950417
v -1.700001 -0.350000 -12.000417
v -1.691651 -0.385355 -11.985773
v -0.816675 -0.414292 -11.952503
v -0.800001 -0.350000 -12.000417
v -0.804885 -0.389541 -11.986383
v -1.749715 0.350000 -11.900416
v -1.696477 0.401736 -11.900417
v -1.734122 0.385864 -11.900415
v -1.696486 -0.401735 -11.900416
v -1.749715 -0.350000 -11.900416
v -1.734124 -0.385864 -11.900416
v -0.483195 0.783197 15.040897
v -0.509563 0.801913 14.950112
v -0.497879 0.795639 14.997195
v -0.509583 -1.000000 14.950013
v -0.484479 -0.976721 15.037742
v -0.498260 -0.993182 14.996240
v -1.709556 0.300000 14.950154
v -1.669026 0.300000 15.043101
v -1.693727 0.300000 14.997849
v -1.669055 -0.300000 15.043062
v -1.709554 -0.300000 14.950160
v -1.693734 -0.300000 14.997844
v -1.659534 0.416762 14.950025
v -1.617301 0.416368 15.044251
v -1.643065 0.416657 14.998151
v -1.668839 0.350000 15.043363
v -1.709561 0.350000 14.950122
v -1.693673 0.350000 14.997915
v -1.653646 0.390151 15.043763
v -1.694911 0.390265 14.950078
v -1.678823 0.390234 14.998023
v -1.620669 -0.423071 15.043845
v -1.662671 -0.423451 14.950057
v -1.646304 -0.423390 14.998043
v -1.709559 -0.350000 14.950139
v -1.668927 -0.350000 15.043241
v -1.693698 -0.350000 14.997888
v -1.695828 -0.392224 14.950105
v -1.654716 -0.392114 15.043527
v -1.679795 -0.392206 14.997963
v -1.029757 0.300000 15.956992
v -0.949027 0.300000 15.999583
v -0.993785 0.300000 15.987109
v -0.949021 -0.300000 15.999583
v -1.029754 -0.300000 15.956998
v -0.993783 -0.300000 15.987109
v -0.928243 0.401419 15.949857
v -1.009959 0.400804 15.906431
v -0.973456 0.400651 15.937024
v -0.948955 0.350000 15.999583
v -1.029851 0.350000 15.956857
v -0.993793 0.350000 15.987071
v -1.024114 0.385581 15.941959
v -0.942800 0.385758 15.985018
v -0.987836 0.385539 15.972375
v -1.009313 -0.401136 15.906560
v -0.927478 -0.401967 15.950128
v -0.972737 -0.400909 15.937142
v -1.029838 -0.350000 15.956876
v -0.948937 -0.350000 15.999583
v -0.993783 -0.350000 15.987073
v -0.942533 -0.385913 15.985094
v -1.023915 -0.385674 15.942004
v -0.987611 -0.385612 15.972412
v -1.500001 1.000000 -9.950417
v -1.500001 1.000000 -10.050417
v -1.500001 1.000000 -10.000417
v -1.500001 -1.000000 -10.050417
v -1.500001 -1.000000 -9.950417
v -1.500001 -1.000000 -10.000417
v -2.700001 0.300000 -10.050417
v -2.700001 0.300000 -9.950417
v -2.700001 0.300000 -10.000417
v -2.700001 -0.300000 -9.950417
v -2.700001 -0.300000 -10.050417
v -2.700001 -0.300000 -10.000417
v -2.700001 0.350000 -9.950417
v -2.700001 0.350000 -10.050417
v -2.700001 0.350000 -10.000417
v -2.654066 0.422968 -10.050417
v -2.654315 0.422843 -9.950417
v -2.654190 0.422905 -10.000416
v -2.686620 0.392046 -9.950417
v -2.686546 0.392082 -10.050417
v -2.686584 0.392064 -10.000417
v -2.654325 -0.422838 -9.950417
v -2.654075 -0.422963 -10.050417
v -2.654201 -0.422900 -10.000417
v -2.700001 -0.350000 -10.050417
v -2.700001 -0.350000 -9.950417
v -2.700001 -0.350000 -10.000417
v -2.686549 -0.392081 -10.050417
v -2.686623 -0.392044 -9.950417
v -2.686586 -0.392063 -10.000417
vn 0.2298 -0.9732 -0.0000
vn 0.2449 -0.9691 0.0295
vn -0.0000 -1.0000 -0.0000
vn -0.0000 1.0000 -0.0000
vn -0.0000 0.9997 0.0228
vn 0.2435 0.9688 0.0453
vn 0.2298 0.9732 -0.0000
vn 1.0000 -0.0000 -0.0000
vn 0.9937 -0.0000 0.1118
vn -0.0000 -0.0000 -1.0000
vn -0.0000 -0.0000 1.0000
vn 0.9779 -0.0000 0.2090
vn 0.9812 -0.0000 0.1928
vn 0.2079 0.9751 0.0767
vn -0.0000 0.9991 0.0427
vn -0.0000 0.9992 0.0393
vn 0.1758 0.9823 0.0642
vn 0.2271 -0.9727 0.0481
vn 0.2287 -0.9725 0.0448
vn 0.8900 -0.0000 -0.4560
vn 0.8954 -0.0000 -0.4452
vn -0.0000 0.9558 -0.2939
vn -0.0000 0.9883 -0.1528
vn 0.1994 0.9693 -0.1436
vn 0.0624 0.9641 -0.2580
vn -0.0000 -0.9883 -0.1528
vn -0.0000 -0.9558 -0.2939
vn 0.0624 -0.9641 -0.2580
vn 0.1994 -0.9693 -0.1436
vn 0.9707 -0.0000 -0.2405
vn 0.5749 0.8182 0.0002
vn 0.5790 0.8122 0.0712
vn 0.8474 0.5222 0.0955
vn 0.8477 0.5305 0.0002
vn 0.9823 0.1520 0.1096
vn 0.9881 0.1537 0.0001
vn 0.5753 -0.8180 0.0001
vn 0.5756 -0.8177 0.0001
vn 0.8487 -0.5288 0.0002
vn 0.8484 -0.5294 0.0001
vn 0.9883 -0.1527 0.0001
vn 0.9882 -0.1530 -0.0000
vn 0.5758 -0.8176 -0.0000
vn 0.5757 -0.8177 -0.0001
vn 0.8489 -0.5286 -0.0001
vn 0.8490 -0.5285 -0.0000
vn 0.9883 -0.1526 -0.0000
vn 0.9883 -0.1525 -0.0000
vn 0.5754 0.8179 -0.0000
vn 0.5757 0.8177 -0.0001
vn 0.8488 0.5287 -0.0001
vn 0.8486 0.5291 -0.0001
vn 0.9883 0.1526 -0.0000
vn 0.9882 0.1529 -0.0000
vn 0.5757 0.8177 -0.0000
vn 0.5755 0.8178 0.0001
vn 0.8486 0.5290 0.0002
vn 0.8488 0.5287 0.0001
vn 0.9883 0.1528 0.0001
vn 0.5751 0.8181 0.0001
vn 0.8482 0.5296 0.0001
vn 0.9882 0.1532 -0.0000
vn 0.5799 -0.8119 0.0665
vn 0.5750 -0.8181 0.0001
vn 0.8479 -0.5301 0.0002
vn 0.8479 -0.5215 0.0952
vn 0.9881 -0.1535 0.0001
vn 0.9823 -0.1517 0.1095
vn 0.5757 -0.8176 -0.0000
vn 0.8489 -0.5285 0.0001
vn 0.8489 0.5286 -0.0000
vn 0.5755 -0.8178 -0.0000
vn 0.8486 -0.5290 -0.0001
vn 0.9883 -0.1528 -0.0000
vn 0.5753 -0.8179 -0.0001
vn 0.8483 -0.5295 -0.0002
vn 0.9882 -0.1531 -0.0001
vn 0.5753 0.8179 -0.0001
vn 0.8483 0.5295 -0.0002
vn 0.9882 0.1532 -0.0001
vn 0.5681 -0.8139 0.1215
vn 0.8315 -0.5262 0.1782
vn 0.9665 -0.1520 0.2069
vn -0.0000 0.1603 0.9871
vn 0.0005 0.1676 0.9859
vn 0.0011 0.3315 0.9435
vn -0.0000 0.3164 0.9486
vn -0.0000 0.7637 0.6456
vn 0.0076 0.8022 0.5970
vn 0.0482 0.8839 0.4651
vn -0.0000 0.8573 0.5148
vn 0.0008 -0.1530 0.9882
vn -0.0000 -0.1420 0.9899
vn -0.0000 -0.4931 0.8700
vn 0.0065 -0.5399 0.8417
vn -0.0000 -0.7763 0.6304
vn 0.0684 -0.8197 0.5688
vn 0.5419 0.8308 0.1270
vn 0.4909 0.8646 0.1070
vn 0.6204 0.7745 0.1236
vn 0.8220 0.5413 0.1769
vn 0.9271 0.3272 0.1825
vn 0.9676 0.1656 0.1904
vn 0.9658 0.1563 0.2068
vn 0.5691 -0.8146 0.1121
vn 0.8333 -0.5279 0.1641
vn 0.9696 -0.1532 0.1907
vn 0.0079 0.9194 -0.3933
vn 0.1387 0.9453 -0.2954
vn 0.1852 0.9148 -0.3590
vn 0.0041 0.8345 -0.5510
vn 0.0006 0.3469 -0.9379
vn 0.0012 0.3576 -0.9339
vn 0.0005 0.1685 -0.9857
vn 0.0003 0.1753 -0.9845
vn 0.1387 -0.9452 -0.2954
vn 0.0079 -0.9194 -0.3933
vn 0.0041 -0.8345 -0.5510
vn 0.1852 -0.9147 -0.3591
vn 0.0012 -0.3576 -0.9339
vn 0.0006 -0.3469 -0.9379
vn 0.0003 -0.1753 -0.9845
vn 0.0005 -0.1685 -0.9857
vn 0.3092 0.9205 -0.2387
vn 0.5144 0.8455 -0.1431
vn 0.8144 0.5466 -0.1946
vn 0.4723 0.8435 -0.2558
vn 0.8362 0.3425 -0.4283
vn 0.9599 0.1572 -0.2322
vn 0.8763 0.1709 -0.4504
vn 0.8763 -0.1709 -0.4504
vn 0.9599 -0.1572 -0.2322
vn 0.8145 -0.5466 -0.1946
vn 0.8362 -0.3424 -0.4283
vn 0.4724 -0.8435 -0.2558
vn 0.5144 -0.8455 -0.1431
vn 0.3093 -0.9205 -0.2387
vn -0.0000 0.1697 -0.9855
vn -0.0000 0.3345 -0.9424
vn -0.0000 0.8075 -0.5899
vn -0.0000 0.8959 -0.4443
vn -0.0000 -0.8959 -0.4443
vn -0.0000 -0.8075 -0.5899
vn -0.0000 -0.3345 -0.9424
vn -0.0000 -0.1697 -0.9855
vn 0.8330 0.3655 -0.4153
vn 0.8821 0.1704 -0.4391
vn 0.8821 -0.1704 -0.4391
vn 0.8331 -0.3654 -0.4153
vn 0.1097 0.9312 0.3477
vn -0.0000 0.9275 0.3738
vn -0.0000 -0.8558 0.5173
vn 0.1544 -0.8608 0.4849
vn -0.0000 0.9454 0.3258
vn 0.1478 0.9368 0.3172
vn 0.1570 0.9657 0.2067
vn -0.0000 0.9790 0.2036
vn 0.1611 0.9816 0.1021
vn -0.0000 0.9963 0.0855
vn 0.2017 -0.8794 0.4313
vn -0.0000 -0.8948 0.4465
vn -0.0000 -0.9658 0.2593
vn 0.2192 -0.9389 0.2653
vn -0.0000 -0.9973 0.0733
vn 0.2280 -0.9677 0.1072
vn 0.8478 0.0001 0.5304
vn 0.8478 -0.0001 0.5304
vn 0.9171 -0.0002 0.3987
vn 0.9171 0.0002 0.3987
vn 0.9675 -0.0001 0.2530
vn 0.9675 0.0001 0.2530
vn 0.4290 0.8396 0.3331
vn 0.5533 0.7597 0.3416
vn 0.5768 0.7794 0.2447
vn 0.4519 0.8600 0.2371
vn 0.5919 0.7913 0.1530
vn 0.4638 0.8747 0.1405
vn 0.8040 0.2996 0.5136
vn 0.8392 0.1519 0.5222
vn 0.9061 0.1612 0.3911
vn 0.8653 0.3188 0.3868
vn 0.9540 0.1677 0.2484
vn 0.9113 0.3323 0.2432
vn 0.5677 -0.8074 0.1607
vn 0.8259 -0.5205 0.2168
vn 0.7911 -0.5046 0.3458
vn 0.5494 -0.7867 0.2814
vn 0.7395 -0.4858 0.4661
vn 0.5154 -0.7563 0.4029
vn 0.9566 -0.1513 0.2491
vn 0.9083 -0.1452 0.3922
vn 0.8408 -0.1370 0.5236
vn 0.3689 0.8648 0.3407
vn 0.4386 -0.7945 0.4201
vn 0.8172 -0.0000 0.5763
vn 0.8069 0.1541 0.5702
vn 0.8082 -0.1431 0.5713
vn 0.5076 0.7787 0.3688
vn 0.7770 0.3082 0.5488
vn 0.6946 -0.5192 0.4980
vn 0.1356 0.0001 0.9908
vn 0.1356 -0.0001 0.9908
vn 0.4657 -0.0003 0.8849
vn 0.4657 0.0003 0.8849
vn 0.7372 -0.0002 0.6757
vn 0.7372 0.0002 0.6757
vn 0.7205 0.1820 0.6691
vn 0.6996 0.3548 0.6202
vn 0.4314 0.4046 0.8063
vn 0.4547 0.2019 0.8675
vn 0.1175 0.3757 0.9193
vn 0.1375 0.1904 0.9720
vn 0.3198 0.8961 0.3079
vn 0.2911 0.9081 0.3011
vn 0.1863 0.9333 0.3069
vn 0.1746 0.9275 0.3304
vn 0.1197 0.9164 0.3819
vn 0.0722 0.8973 0.4356
vn 0.7012 -0.3481 0.6223
vn 0.7209 -0.1792 0.6694
vn 0.4549 -0.2020 0.8673
vn 0.4307 -0.4050 0.8065
vn 0.1381 -0.1853 0.9729
vn 0.1178 -0.3642 0.9238
vn 0.3398 -0.8668 0.3650
vn 0.3365 -0.8847 0.3226
vn 0.1783 -0.9258 0.3334
vn 0.2214 -0.9069 0.3586
vn 0.0791 -0.8823 0.4640
vn 0.1589 -0.8760 0.4554
vn 0.5745 -0.8185 -0.0003
vn 0.8473 -0.5312 -0.0005
vn 0.8476 -0.5306 -0.0004
vn 0.5747 -0.8183 -0.0003
vn 0.8480 -0.5300 -0.0004
vn 0.5750 -0.8181 -0.0002
vn 0.9881 -0.1541 -0.0002
vn 0.9881 -0.1537 -0.0001
vn 0.9882 -0.1534 -0.0001
vn 0.8472 0.5312 -0.0005
vn 0.5745 0.8185 -0.0003
vn 0.5747 0.8184 -0.0003
vn 0.8476 0.5306 -0.0004
vn 0.5750 0.8182 -0.0002
vn 0.8479 0.5301 -0.0004
vn 0.9881 0.1541 -0.0002
vn 0.9881 0.1538 -0.0001
vn 0.9882 0.1535 -0.0001
vn -0.2298 -0.9732 -0.0000
vn -0.2449 -0.9691 0.0295
vn -0.2298 0.9732 -0.0000
vn -0.2435 0.9688 0.0453
vn -1.0000 -0.0000 -0.0000
vn -0.9937 -0.0000 0.1118
vn -0.9779 -0.0000 0.2090
vn -0.9812 -0.0000 0.1928
vn -0.2079 0.9751 0.0767
vn -0.1758 0.9823 0.0642
vn -0.2287 -0.9725 0.0448
vn -0.2271 -0.9727 0.0481
vn -0.8900 -0.0000 -0.4560
vn -0.8954 -0.0000 -0.4452
vn -0.0624 0.9641 -0.2580
vn -0.1994 0.9693 -0.1436
vn -0.1994 -0.9693 -0.1436
vn -0.0624 -0.9641 -0.2580
vn -0.9707 -0.0000 -0.2405
vn -0.5749 0.8182 0.0002
vn -0.8477 0.5305 0.0002
vn -0.8474 0.5222 0.0955
vn -0.5790 0.8122 0.0712
vn -0.9881 0.1537 0.0001
vn -0.9823 0.1520 0.1096
vn -0.5753 -0.8180 0.0001
vn -0.8484 -0.5294 0.0001
vn -0.8487 -0.5288 0.0002
vn -0.5756 -0.8177 0.0001
vn -0.9882 -0.1530 -0.0000
vn -0.9883 -0.1527 0.0001
vn -0.5758 -0.8176 -0.0000
vn -0.8490 -0.5285 -0.0000
vn -0.8489 -0.5286 -0.0001
vn -0.5757 -0.8177 -0.0001
vn -0.9883 -0.1525 -0.0000
vn -0.9883 -0.1526 -0.0000
vn -0.5754 0.8179 -0.0000
vn -0.8486 0.5291 -0.0001
vn -0.8488 0.5287 -0.0001
vn -0.5757 0.8177 -0.0001
vn -0.9882 0.1529 -0.0000
vn -0.9883 0.1526 -0.0000
vn -0.5757 0.8177 -0.0000
vn -0.8488 0.5287 0.0001
vn -0.8486 0.5290 0.0002
vn -0.5755 0.8178 0.0001
vn -0.9883 0.1528 0.0001
vn -0.5751 0.8181 0.0001
vn -0.8482 0.5296 0.0001
vn -0.9882 0.1532 -0.0000
vn -0.5799 -0.8119 0.0665
vn -0.8479 -0.5215 0.0952
vn -0.8479 -0.5301 0.0002
vn -0.5750 -0.8181 0.0001
vn -0.9823 -0.1517 0.1095
vn -0.9881 -0.1535 0.0001
vn -0.8489 -0.5285 0.0001
vn -0.5757 -0.8176 -0.0000
vn -0.8489 0.5286 -0.0000
vn -0.8486 -0.5290 -0.0001
vn -0.5755 -0.8178 -0.0000
vn -0.9883 -0.1528 -0.0000
vn -0.8483 -0.5295 -0.0002
vn -0.5753 -0.8179 -0.0001
vn -0.9882 -0.1531 -0.0001
vn -0.5753 0.8179 -0.0001
vn -0.8483 0.5295 -0.0002
vn -0.9882 0.1532 -0.0001
vn -0.5681 -0.8139 0.1215
vn -0.8315 -0.5262 0.1782
vn -0.9665 -0.1520 0.2069
vn -0.0011 0.3314 0.9435
vn -0.0005 0.1676 0.9859
vn -0.0482 0.8839 0.4651
vn -0.0076 0.8022 0.5970
vn -0.0008 -0.1530 0.9882
vn -0.0065 -0.5399 0.8417
vn -0.0684 -0.8197 0.5687
vn -0.5419 0.8308 0.1270
vn -0.8220 0.5413 0.1769
vn -0.6204 0.7745 0.1236
vn -0.4909 0.8646 0.1070
vn -0.9658 0.1563 0.2068
vn -0.9676 0.1656 0.1904
vn -0.9272 0.3272 0.1825
vn -0.5691 -0.8146 0.1121
vn -0.8333 -0.5279 0.1641
vn -0.9696 -0.1532 0.1907
vn -0.0079 0.9194 -0.3933
vn -0.0041 0.8345 -0.5510
vn -0.1852 0.9148 -0.3590
vn -0.1387 0.9452 -0.2954
vn -0.0006 0.3469 -0.9379
vn -0.0003 0.1753 -0.9845
vn -0.0005 0.1685 -0.9857
vn -0.0012 0.3576 -0.9339
vn -0.1387 -0.9452 -0.2954
vn -0.1852 -0.9147 -0.3591
vn -0.0041 -0.8345 -0.5510
vn -0.0079 -0.9194 -0.3933
vn -0.0012 -0.3576 -0.9339
vn -0.0005 -0.1685 -0.9857
vn -0.0003 -0.1753 -0.9845
vn -0.0006 -0.3469 -0.9379
vn -0.3092 0.9205 -0.2387
vn -0.4723 0.8435 -0.2558
vn -0.8144 0.5467 -0.1946
vn -0.5144 0.8455 -0.1431
vn -0.8362 0.3425 -0.4283
vn -0.8763 0.1709 -0.4504
vn -0.9599 0.1572 -0.2322
vn -0.8763 -0.1709 -0.4504
vn -0.8362 -0.3424 -0.4283
vn -0.8145 -0.5466 -0.1946
vn -0.9599 -0.1572 -0.2322
vn -0.4724 -0.8435 -0.2558
vn -0.3093 -0.9205 -0.2387
vn -0.5145 -0.8455 -0.1431
vn -0.8330 0.3655 -0.4153
vn -0.8821 0.1704 -0.4391
vn -0.8821 -0.1704 -0.4391
vn -0.8330 -0.3654 -0.4153
vn -0.1097 0.9312 0.3477
vn -0.1544 -0.8608 0.4849
vn -0.1570 0.9657 0.2067
vn -0.1478 0.9368 0.3172
vn -0.1611 0.9816 0.1021
vn -0.2017 -0.8794 0.4313
vn -0.2192 -0.9389 0.2653
vn -0.2280 -0.9677 0.1072
vn -0.8478 0.0001 0.5304
vn -0.9171 0.0002 0.3987
vn -0.9171 -0.0001 0.3986
vn -0.8478 -0.0001 0.5304
vn -0.9675 0.0001 0.2530
vn -0.9675 -0.0000 0.2529
vn -0.4290 0.8396 0.3331
vn -0.4519 0.8600 0.2371
vn -0.5768 0.7794 0.2447
vn -0.5533 0.7597 0.3416
vn -0.4638 0.8747 0.1405
vn -0.5919 0.7913 0.1530
vn -0.8040 0.2996 0.5136
vn -0.8653 0.3187 0.3868
vn -0.9061 0.1612 0.3911
vn -0.8392 0.1519 0.5222
vn -0.9113 0.3323 0.2432
vn -0.9540 0.1677 0.2484
vn -0.5677 -0.8074 0.1607
vn -0.5494 -0.7867 0.2814
vn -0.7911 -0.5046 0.3458
vn -0.8259 -0.5205 0.2168
vn -0.5154 -0.7563 0.4029
vn -0.7395 -0.4858 0.4661
vn -0.9083 -0.1452 0.3922
vn -0.9566 -0.1513 0.2491
vn -0.8408 -0.1370 0.5236
vn -0.3689 0.8648 0.3407
vn -0.4386 -0.7945 0.4201
vn -0.8172 -0.0000 0.5763
vn -0.8069 0.1541 0.5702
vn -0.8082 -0.1431 0.5713
vn -0.5076 0.7787 0.3688
vn -0.7770 0.3083 0.5488
vn -0.6946 -0.5192 0.4980
vn -0.1356 0.0001 0.9908
vn -0.4657 0.0003 0.8849
vn -0.4657 -0.0003 0.8849
vn -0.1356 -0.0001 0.9908
vn -0.7372 0.0002 0.6757
vn -0.7372 -0.0002 0.6757
vn -0.7205 0.1820 0.6691
vn -0.4547 0.2018 0.8675
vn -0.4314 0.4046 0.8063
vn -0.6996 0.3548 0.6202
vn -0.1375 0.1904 0.9720
vn -0.1175 0.3756 0.9193
vn -0.3198 0.8961 0.3079
vn -0.1746 0.9276 0.3304
vn -0.1863 0.9333 0.3069
vn -0.2911 0.9081 0.3011
vn -0.0722 0.8973 0.4356
vn -0.1197 0.9164 0.3819
vn -0.7012 -0.3480 0.6223
vn -0.4307 -0.4050 0.8065
vn -0.4549 -0.2020 0.8673
vn -0.7209 -0.1793 0.6694
vn -0.1178 -0.3642 0.9239
vn -0.1381 -0.1853 0.9729
vn -0.3398 -0.8668 0.3650
vn -0.2214 -0.9069 0.3586
vn -0.1783 -0.9258 0.3334
vn -0.3365 -0.8847 0.3226
vn -0.1589 -0.8760 0.4554
vn -0.0791 -0.8823 0.4640
vn -0.5745 -0.8185 -0.0003
vn -0.5747 -0.8183 -0.0003
vn -0.8476 -0.5306 -0.0004
vn -0.8473 -0.5312 -0.0005
vn -0.5750 -0.8181 -0.0002
vn -0.8480 -0.5301 -0.0004
vn -0.9881 -0.1537 -0.0002
vn -0.9881 -0.1541 -0.0002
vn -0.9882 -0.1534 -0.0001
vn -0.8472 0.5312 -0.0005
vn -0.8476 0.5306 -0.0004
vn -0.5747 0.8184 -0.0003
vn -0.5745 0.8185 -0.0003
vn -0.8479 0.5301 -0.0004
vn -0.5750 0.8182 -0.0002
vn -0.9881 0.1541 -0.0002
vn -0.9881 0.1538 -0.0001
vn -0.9882 0.1535 -0.0001
vt 0.782494 0.777778
vt 0.786067 0.777778
vt 0.786067 0.500000
vt 0.782494 0.500000
vt 0.318000 0.500000
vt 0.321573 0.500000
vt 0.321573 0.777778
vt 0.318000 0.777778
vt 0.532382 0.500000
vt 0.535955 0.500000
vt 0.535955 0.777778
vt 0.532382 0.777778
vt 0.321573 0.777778
vt 0.321573 0.500000
vt 0.532382 0.777778
vt 0.535955 0.777778
vt 0.535955 0.500000
vt 0.532382 0.500000
vt 0.532382 0.556556
vt 0.535955 0.556556
vt 0.535955 0.445445
vt 0.532382 0.445445
vt 0.318000 0.556556
vt 0.321573 0.556556
vt 0.321573 0.445445
vt 0.318000 0.445445
vt 0.782494 0.556556
vt 0.786067 0.556556
vt 0.786067 0.445445
vt 0.782494 0.445445
vt 0.539528 0.556556
vt 0.539528 0.445445
vt 0.539528 0.500000
vt 0.539528 0.777778
vt 0.325146 0.556556
vt 0.325146 0.445445
vt 0.625298 0.445445
vt 0.582422 0.445445
vt 0.582422 0.556556
vt 0.625298 0.556556
vt 0.325146 0.777778
vt 0.325146 0.500000
vt 0.325146 0.500000
vt 0.325146 0.777778
vt 0.075034 0.556556
vt 0.075034 0.445445
vt 0.075034 0.777778
vt 0.075034 0.500000
vt 0.075034 0.500000
vt 0.075034 0.777778
vt 0.325146 1.000000
vt 0.532382 1.000000
vt 0.532382 1.000000
vt 0.325146 1.000000
vt 0.789640 0.445445
vt 0.789640 0.556556
vt 0.961146 0.556556
vt 0.961146 0.445445
vt 0.789640 0.773558
vt 0.789640 0.500000
vt 0.961146 0.500000
vt 0.961146 0.596173
vt 0.528826 0.556556
vt 0.528826 0.445445
vt 0.539546 0.445445
vt 0.539546 0.556556
vt 0.003573 0.556556
vt 0.003573 0.445445
vt 0.000000 0.445445
vt 0.000000 0.556556
vt 0.003573 0.500000
vt 0.067888 0.500000
vt 0.067888 0.777778
vt 0.003573 0.654592
vt 0.557411 0.556556
vt 0.557411 0.445445
vt 0.589568 0.445445
vt 0.589568 0.556556
vt 0.067888 0.556556
vt 0.067888 0.445445
vt 0.782494 0.991526
vt 0.786067 0.991473
vt 0.786067 0.997502
vt 0.782494 0.997518
vt 0.782494 0.573603
vt 0.786067 0.573611
vt 0.786067 0.565815
vt 0.782494 0.565815
vt 0.539528 0.991573
vt 0.535955 0.991594
vt 0.535955 0.997538
vt 0.539528 0.997532
vt 0.539528 0.428404
vt 0.535955 0.428407
vt 0.535955 0.436185
vt 0.539528 0.436185
vt 0.325146 0.991608
vt 0.321573 0.991602
vt 0.321573 0.997540
vt 0.325146 0.997542
vt 0.325146 0.428409
vt 0.321573 0.428408
vt 0.321573 0.436185
vt 0.325146 0.436185
vt 0.318000 0.991584
vt 0.321573 0.991599
vt 0.321573 0.997539
vt 0.318000 0.997535
vt 0.318000 0.573595
vt 0.321573 0.573592
vt 0.321573 0.565815
vt 0.318000 0.565815
vt 0.532382 0.991600
vt 0.535955 0.991586
vt 0.535955 0.997536
vt 0.532382 0.997540
vt 0.532382 0.573592
vt 0.535955 0.573594
vt 0.535955 0.565815
vt 0.532382 0.565815
vt 0.539528 0.991562
vt 0.539528 0.997528
vt 0.539528 0.573598
vt 0.539528 0.565815
vt 0.786067 0.991492
vt 0.782494 0.991540
vt 0.782494 0.997522
vt 0.786067 0.997508
vt 0.786067 0.428392
vt 0.782494 0.428399
vt 0.782494 0.436185
vt 0.786067 0.436185
vt 0.532382 0.991606
vt 0.532382 0.997541
vt 0.532382 0.428409
vt 0.532382 0.436185
vt 0.325146 0.991604
vt 0.325146 0.997541
vt 0.325146 0.573592
vt 0.325146 0.565815
vt 0.318000 0.991587
vt 0.318000 0.997536
vt 0.318000 0.428406
vt 0.318000 0.436185
vt 0.075034 0.991561
vt 0.075034 0.997528
vt 0.075034 0.428402
vt 0.075034 0.436185
vt 0.075034 0.991559
vt 0.075034 0.997527
vt 0.075034 0.573598
vt 0.075034 0.565815
vt 0.789640 0.987211
vt 0.789640 0.993270
vt 0.789640 0.428383
vt 0.789640 0.436185
vt 0.528826 0.565815
vt 0.539546 0.565815
vt 0.539632 0.573368
vt 0.528826 0.573368
vt 0.999963 0.500000
vt 0.999963 0.556002
vt 0.998790 0.557078
vt 0.998790 0.500000
vt 0.539546 0.436185
vt 0.528826 0.436185
vt 0.528826 0.428245
vt 0.539625 0.428245
vt 0.528826 0.422169
vt 0.539817 0.422169
vt 0.789640 0.987173
vt 0.961146 0.809186
vt 0.961146 0.815698
vt 0.789640 0.993259
vt 0.789640 0.573613
vt 0.961146 0.573270
vt 0.961146 0.565815
vt 0.789640 0.565815
vt 0.961146 0.809755
vt 0.961146 0.815864
vt 0.961146 0.428373
vt 0.961146 0.436185
vt 0.001712 0.651236
vt 0.001787 0.809534
vt 0.000523 0.813268
vt 0.000501 0.649052
vt 0.557585 0.573137
vt 0.589270 0.572362
vt 0.589568 0.565815
vt 0.557411 0.565815
vt 0.001787 0.809536
vt 0.000523 0.813269
vt 0.589270 0.429638
vt 0.557585 0.428863
vt 0.557411 0.436185
vt 0.589568 0.436185
vt 0.003573 0.814162
vt 0.067888 0.991466
vt 0.067888 0.997501
vt 0.003573 0.821134
vt 0.003573 0.572456
vt 0.067888 0.573612
vt 0.067888 0.565815
vt 0.003573 0.565815
vt 0.003573 0.436185
vt 0.067888 0.436185
vt 0.067888 0.428389
vt 0.003573 0.429544
vt 0.003573 0.821134
vt 0.067888 0.997501
vt 0.067888 0.991468
vt 0.003573 0.814164
vt 0.528826 0.573137
vt 0.000501 0.500000
vt 0.001712 0.500000
vt 0.528826 0.428863
vt 0.000523 0.572362
vt 0.000000 0.565815
vt 0.000000 0.436185
vt 0.000523 0.429638
vt 0.968292 0.585061
vt 0.968292 0.500000
vt 0.998916 0.556962
vt 0.998916 0.500000
vt 0.966202 0.500000
vt 0.966195 0.589481
vt 0.964633 0.592200
vt 0.964635 0.500000
vt 0.962951 0.594364
vt 0.962950 0.500000
vt 0.966082 0.589719
vt 0.966088 0.500000
vt 0.964601 0.500000
vt 0.964599 0.592271
vt 0.962947 0.500000
vt 0.962947 0.594367
vt 0.966274 0.556556
vt 0.966272 0.445445
vt 0.964657 0.445445
vt 0.964657 0.556556
vt 0.962953 0.445445
vt 0.962953 0.556556
vt 0.966315 0.799500
vt 0.966297 0.806231
vt 0.964663 0.810893
vt 0.964667 0.804272
vt 0.962950 0.813873
vt 0.962948 0.807321
vt 0.966297 0.573250
vt 0.966283 0.565815
vt 0.964659 0.565815
vt 0.964663 0.573266
vt 0.962951 0.565815
vt 0.962950 0.573271
vt 0.962949 0.807902
vt 0.962951 0.814042
vt 0.964661 0.811073
vt 0.964664 0.804871
vt 0.966289 0.806429
vt 0.966300 0.800124
vt 0.962951 0.428366
vt 0.962952 0.436185
vt 0.964658 0.436185
vt 0.964661 0.428369
vt 0.966279 0.436185
vt 0.966289 0.428387
vt 0.968292 0.792082
vt 0.968292 0.792618
vt 0.968292 0.556556
vt 0.968292 0.445445
vt 0.968292 0.565815
vt 0.968292 0.436185
vt 0.968292 0.798836
vt 0.968292 0.573222
vt 0.968292 0.798994
vt 0.968292 0.428421
vt 0.562736 0.556556
vt 0.562735 0.445445
vt 0.564335 0.445445
vt 0.564335 0.556556
vt 0.565620 0.445445
vt 0.565620 0.556556
vt 0.565623 0.565815
vt 0.565418 0.572404
vt 0.564122 0.572396
vt 0.564335 0.565815
vt 0.562513 0.572437
vt 0.562733 0.565815
vt 0.998390 0.689651
vt 0.997121 0.687030
vt 0.998214 0.680270
vt 0.999477 0.682933
vt 0.998672 0.671897
vt 0.999928 0.674593
vt 0.565411 0.429579
vt 0.565623 0.436185
vt 0.564335 0.436185
vt 0.564114 0.429590
vt 0.562732 0.436185
vt 0.562503 0.429535
vt 0.997125 0.686910
vt 0.998392 0.689614
vt 0.999478 0.682891
vt 0.998218 0.680137
vt 0.999931 0.674543
vt 0.998682 0.671755
vt 0.998927 0.556556
vt 0.998927 0.445445
vt 0.998922 0.565815
vt 0.998923 0.436185
vt 0.998390 0.572404
vt 1.000000 0.555968
vt 0.998392 0.429579
vt 0.073247 0.500000
vt 0.073247 0.777778
vt 0.071461 0.777778
vt 0.071461 0.500000
vt 0.069674 0.777778
vt 0.069674 0.500000
vt 0.073247 0.556556
vt 0.073247 0.445445
vt 0.071461 0.445445
vt 0.071461 0.556556
vt 0.069674 0.445445
vt 0.069674 0.556556
vt 0.069674 0.991495
vt 0.069674 0.997509
vt 0.071461 0.997516
vt 0.071461 0.991518
vt 0.073247 0.997523
vt 0.073247 0.991542
vt 0.069674 0.428393
vt 0.069674 0.436185
vt 0.071461 0.436185
vt 0.071461 0.428396
vt 0.073247 0.436185
vt 0.073247 0.428399
vt 0.069674 0.997508
vt 0.069674 0.991493
vt 0.071461 0.991517
vt 0.071461 0.997515
vt 0.073247 0.991539
vt 0.073247 0.997522
vt 0.069674 0.565815
vt 0.069674 0.573608
vt 0.071461 0.573604
vt 0.071461 0.565815
vt 0.073247 0.573601
vt 0.073247 0.565815
vt 0.782494 0.222222
vt 0.786067 0.222222
vt 0.318000 0.222222
vt 0.321573 0.222222
vt 0.532382 0.222222
vt 0.535955 0.222222
vt 0.321573 0.222222
vt 0.532382 0.222222
vt 0.535955 0.222222
vt 0.539528 0.222222
vt 0.432355 0.445445
vt 0.432355 0.556556
vt 0.475231 0.556556
vt 0.475231 0.445445
vt 0.325146 0.222222
vt 0.325146 0.222222
vt 0.075034 0.222222
vt 0.075034 0.222222
vt 0.325146 0.000000
vt 0.532382 0.000000
vt 0.532382 0.000000
vt 0.325146 0.000000
vt 0.789640 0.226442
vt 0.961146 0.403827
vt 0.518107 0.556556
vt 0.518107 0.445445
vt 0.003573 0.345407
vt 0.067888 0.222222
vt 0.500242 0.445445
vt 0.500242 0.556556
vt 0.468085 0.445445
vt 0.468085 0.556556
vt 0.782494 0.008475
vt 0.782494 0.002482
vt 0.786067 0.002498
vt 0.786067 0.008527
vt 0.539528 0.008427
vt 0.539528 0.002468
vt 0.535955 0.002462
vt 0.535955 0.008406
vt 0.325146 0.008391
vt 0.325146 0.002458
vt 0.321573 0.002460
vt 0.321573 0.008398
vt 0.318000 0.008416
vt 0.318000 0.002465
vt 0.321573 0.002461
vt 0.321573 0.008401
vt 0.532382 0.008400
vt 0.532382 0.002460
vt 0.535955 0.002464
vt 0.535955 0.008414
vt 0.539528 0.008438
vt 0.539528 0.002471
vt 0.786067 0.008508
vt 0.786067 0.002492
vt 0.782494 0.002478
vt 0.782494 0.008460
vt 0.532382 0.002459
vt 0.532382 0.008394
vt 0.325146 0.002459
vt 0.325146 0.008396
vt 0.318000 0.002464
vt 0.318000 0.008413
vt 0.075034 0.002472
vt 0.075034 0.008439
vt 0.075034 0.008441
vt 0.075034 0.002472
vt 0.789640 0.012789
vt 0.789640 0.006729
vt 0.518021 0.573368
vt 0.518107 0.565815
vt 0.998790 0.442922
vt 0.999963 0.443999
vt 0.518107 0.436185
vt 0.518028 0.428245
vt 0.517836 0.422169
vt 0.789640 0.012827
vt 0.789640 0.006741
vt 0.961146 0.184302
vt 0.961146 0.190814
vt 0.961146 0.190245
vt 0.961146 0.184136
vt 0.001712 0.348764
vt 0.000501 0.350948
vt 0.000523 0.186732
vt 0.001787 0.190466
vt 0.500068 0.573137
vt 0.500242 0.565815
vt 0.468085 0.565815
vt 0.468383 0.572362
vt 0.001787 0.190464
vt 0.000523 0.186731
vt 0.468383 0.429638
vt 0.468085 0.436185
vt 0.500242 0.436185
vt 0.500068 0.428863
vt 0.003573 0.185838
vt 0.003573 0.178866
vt 0.067888 0.002499
vt 0.067888 0.008533
vt 0.003573 0.178866
vt 0.003573 0.185836
vt 0.067888 0.008532
vt 0.067888 0.002499
vt 0.968292 0.414939
vt 0.998916 0.443038
vt 0.964633 0.407800
vt 0.966195 0.410519
vt 0.962951 0.405636
vt 0.966082 0.410281
vt 0.964599 0.407729
vt 0.962947 0.405633
vt 0.966315 0.200500
vt 0.964667 0.195728
vt 0.964663 0.189107
vt 0.966297 0.193769
vt 0.962948 0.192679
vt 0.962950 0.186127
vt 0.962949 0.192098
vt 0.964664 0.195129
vt 0.964661 0.188927
vt 0.962951 0.185958
vt 0.966300 0.199876
vt 0.966289 0.193571
vt 0.968292 0.207918
vt 0.968292 0.207382
vt 0.968292 0.201164
vt 0.968292 0.201006
vt 0.494917 0.556556
vt 0.493318 0.556556
vt 0.493318 0.445445
vt 0.494918 0.445445
vt 0.492033 0.556556
vt 0.492033 0.445445
vt 0.492029 0.565815
vt 0.493318 0.565815
vt 0.493531 0.572396
vt 0.492235 0.572404
vt 0.494920 0.565815
vt 0.495140 0.572437
vt 0.998390 0.310349
vt 0.999477 0.317067
vt 0.998214 0.319730
vt 0.997121 0.312970
vt 0.999928 0.325407
vt 0.998672 0.328103
vt 0.492242 0.429579
vt 0.493539 0.429590
vt 0.493318 0.436185
vt 0.492030 0.436185
vt 0.495149 0.429535
vt 0.494921 0.436185
vt 0.997125 0.313090
vt 0.998218 0.319863
vt 0.999478 0.317109
vt 0.998392 0.310386
vt 0.998682 0.328245
vt 0.999931 0.325457
vt 1.000000 0.444033
vt 0.071461 0.222222
vt 0.073247 0.222222
vt 0.069674 0.222222
vt 0.069674 0.008505
vt 0.071461 0.008482
vt 0.071461 0.002484
vt 0.069674 0.002491
vt 0.073247 0.008458
vt 0.073247 0.002477
vt 0.069674 0.002491
vt 0.071461 0.002485
vt 0.071461 0.008483
vt 0.069674 0.008506
vt 0.073247 0.002478
vt 0.073247 0.008460
s 1
f 19/1/1 3/2/2 4/3/3 20/4/3
f 22/4/4 1/3/5 2/2/6 21/1/7
f 45/5/4 12/6/4 8/7/7 43/8/7
f 37/9/4 11/10/4 7/11/7 33/12/7
f 48/8/1 5/13/1 9/14/3 50/5/3
f 32/15/1 6/16/1 10/17/3 36/18/3
f 40/19/8 18/20/8 17/21/8 42/22/8
f 52/23/8 16/24/8 15/25/8 54/26/8
f 23/27/8 13/28/9 14/29/9 24/30/8
f 29/31/8 23/27/8 24/30/8 30/32/8
f 26/33/4 22/4/4 21/1/7 25/34/7
f 27/34/1 19/1/1 20/4/3 28/33/3
f 6/16/1 27/34/1 28/33/3 10/17/3
f 11/10/4 26/33/4 25/34/7 7/11/7
f 18/20/8 29/31/8 30/32/8 17/21/8
f 16/24/8 39/35/8 41/36/8 15/25/8
f 42/37/10 58/38/10 56/39/10 40/40/10
f 5/13/1 31/41/1 35/42/3 9/14/3
f 31/41/1 32/15/1 36/18/3 35/42/3
f 12/6/4 38/43/4 34/44/7 8/7/7
f 38/43/4 37/9/4 33/12/7 34/44/7
f 51/45/8 52/23/8 54/26/8 53/46/8
f 47/47/1 48/8/1 50/5/3 49/48/3
f 46/49/4 45/5/4 43/8/7 44/50/7
f 55/35/8 56/19/8 58/22/8 57/36/8
f 41/51/4 57/44/4 58/12/4 42/52/4
f 40/53/3 56/15/3 55/41/3 39/54/3
f 39/40/11 55/39/11 57/38/11 41/37/11
f 69/55/12 66/56/12 61/57/13 62/58/13
f 67/59/14 70/60/15 63/61/16 64/62/17
f 65/60/3 68/59/18 59/62/19 60/61/3
f 4/3/3 3/2/2 68/59/18 65/60/3
f 2/2/6 1/3/5 70/60/15 67/59/14
f 14/29/9 13/28/9 66/56/12 69/55/12
f 71/63/11 72/64/11 74/65/11 73/66/11
f 93/67/20 96/68/20 88/69/21 87/70/21
f 97/71/22 81/72/23 82/73/24 95/74/25
f 91/63/10 89/75/10 90/76/10 92/64/10
f 88/77/10 90/76/10 89/75/10 87/78/10
f 84/72/26 98/71/27 94/74/28 83/73/29
f 85/79/30 86/80/30 96/68/20 93/67/20
f 118/81/31 99/82/32 101/83/33 119/84/34
f 119/85/34 101/86/33 100/87/35 117/88/36
f 124/89/37 105/90/38 107/91/39 125/92/40
f 125/93/40 107/94/39 106/95/41 123/96/42
f 133/97/43 108/98/44 110/99/45 134/100/46
f 134/101/46 110/102/45 109/103/47 132/104/48
f 151/105/49 111/106/50 113/107/51 152/108/52
f 152/109/52 113/110/51 112/111/53 150/112/54
f 139/113/55 114/114/56 116/115/57 140/116/58
f 140/117/58 116/118/57 115/119/59 138/120/53
f 127/121/60 118/81/31 119/84/34 128/122/61
f 128/123/61 119/85/34 117/88/36 126/124/62
f 103/125/63 120/126/64 122/127/65 104/128/66
f 104/129/66 122/130/65 121/131/67 102/132/68
f 120/126/64 124/89/37 125/92/40 122/127/65
f 122/130/65 125/93/40 123/96/42 121/131/67
f 114/114/56 127/121/60 128/122/61 116/115/57
f 116/118/57 128/123/61 126/124/62 115/119/59
f 105/90/38 129/133/69 131/134/70 107/91/39
f 107/94/39 131/135/70 130/136/48 106/95/41
f 129/133/69 133/97/43 134/100/46 131/134/70
f 131/135/70 134/101/46 132/104/48 130/136/48
f 111/106/50 135/137/55 137/138/71 113/107/51
f 113/110/51 137/139/71 136/140/53 112/111/53
f 135/137/55 139/113/55 140/116/58 137/138/71
f 137/139/71 140/117/58 138/120/53 136/140/53
f 108/98/44 141/141/72 143/142/73 110/99/45
f 110/102/45 143/143/73 142/144/74 109/103/47
f 141/141/72 145/145/75 146/146/76 143/142/73
f 143/143/73 146/147/76 144/148/77 142/144/74
f 147/149/78 151/105/49 152/108/52 149/150/79
f 149/151/79 152/109/52 150/112/54 148/152/80
f 172/153/81 103/125/63 104/128/66 173/154/82
f 173/155/82 104/129/66 102/132/68 171/156/83
f 153/157/84 156/158/85 158/159/86 155/160/87
f 155/161/88 158/162/89 157/163/90 154/164/91
f 159/165/92 163/166/93 164/167/94 161/168/95
f 161/168/95 164/167/94 162/169/96 160/170/97
f 175/171/98 166/172/99 167/173/100 176/174/101
f 176/175/101 167/176/102 165/177/103 174/178/104
f 168/179/105 172/153/81 173/154/82 170/180/106
f 170/181/106 173/155/82 171/156/83 169/182/107
f 99/82/32 175/171/98 176/174/101 101/83/33
f 101/86/33 176/175/101 174/178/104 100/87/35
f 190/183/108 192/184/109 194/185/110 191/186/111
f 191/187/112 194/188/113 193/189/114 189/190/115
f 195/191/116 198/183/117 200/186/118 197/192/119
f 197/193/120 200/194/121 199/195/122 196/196/123
f 208/197/124 184/198/125 185/199/126 209/200/127
f 209/201/128 185/202/126 183/203/129 207/204/130
f 211/205/131 187/206/132 188/207/133 212/208/134
f 212/209/135 188/210/133 186/211/136 210/212/137
f 189/190/115 202/157/138 203/213/139 191/187/112
f 191/186/111 203/214/140 201/215/141 190/183/108
f 198/183/117 205/215/142 206/214/143 200/186/118
f 200/194/121 206/216/144 204/166/145 199/195/122
f 192/184/109 208/197/124 209/200/127 194/185/110
f 194/217/146 209/201/128 207/204/130 193/218/147
f 196/219/148 211/205/131 212/208/134 197/220/149
f 197/192/119 212/209/135 210/212/137 195/191/116
f 99/82/32 2/2/6 67/59/14 175/171/98
f 21/1/7 2/2/6 99/82/32 118/81/31
f 117/88/36 100/87/35 13/28/9 23/27/8
f 13/28/9 100/87/35 174/178/104 66/56/12
f 102/132/68 14/29/9 69/55/12 171/156/83
f 120/126/64 103/125/63 3/2/2 19/1/1
f 24/30/8 14/29/9 102/132/68 121/131/67
f 3/2/2 103/125/63 172/153/81 68/59/18
f 17/21/8 30/32/8 123/96/42 106/95/41
f 42/22/8 17/21/8 106/95/41 130/136/48
f 105/90/38 124/89/37 27/34/1 6/16/1
f 129/133/69 105/90/38 6/16/1 32/15/1
f 15/25/8 41/36/8 132/104/48 109/103/47
f 54/26/8 15/25/8 109/103/47 142/144/74
f 108/98/44 133/97/43 31/41/1 5/13/1
f 141/141/72 108/98/44 5/13/1 48/8/1
f 150/112/54 112/111/53 16/24/8 52/23/8
f 8/7/7 34/44/7 135/137/55 111/106/50
f 112/111/53 136/140/53 39/35/8 16/24/8
f 43/8/7 8/7/7 111/106/50 151/105/49
f 138/120/53 115/119/59 18/20/8 40/19/8
f 7/11/7 25/34/7 127/121/60 114/114/56
f 115/119/59 126/124/62 29/31/8 18/20/8
f 33/12/7 7/11/7 114/114/56 139/113/55
f 25/34/7 21/1/7 118/81/31 127/121/60
f 126/124/62 117/88/36 23/27/8 29/31/8
f 124/89/37 120/126/64 19/1/1 27/34/1
f 30/32/8 24/30/8 121/131/67 123/96/42
f 41/36/8 42/22/8 130/136/48 132/104/48
f 133/97/43 129/133/69 32/15/1 31/41/1
f 136/140/53 138/120/53 40/19/8 39/35/8
f 34/44/7 33/12/7 139/113/55 135/137/55
f 53/46/8 54/26/8 142/144/74 144/148/77
f 145/145/75 141/141/72 48/8/1 47/47/1
f 148/152/80 150/112/54 52/23/8 51/45/8
f 44/50/7 43/8/7 151/105/49 147/149/78
f 153/157/84 71/63/11 73/66/11 156/158/85
f 75/221/150 80/222/151 154/164/91 157/163/90
f 79/222/152 78/221/153 160/223/97 162/224/96
f 72/64/11 163/166/93 159/165/92 74/65/11
f 66/56/12 174/178/104 165/177/103 61/57/13
f 175/171/98 67/59/14 64/62/17 166/172/99
f 68/59/18 172/153/81 168/179/105 59/62/19
f 171/156/83 69/55/12 62/58/13 169/182/107
f 82/73/24 184/198/125 208/197/124 95/74/25
f 183/203/129 85/79/30 93/67/20 207/204/130
f 86/80/30 187/206/132 211/205/131 96/68/20
f 186/211/136 83/73/29 94/74/28 210/212/137
f 189/190/115 193/189/114 87/78/10 89/75/10
f 201/215/141 97/71/22 95/74/25 190/183/108
f 202/157/138 189/190/115 89/75/10 91/63/10
f 95/74/25 208/197/124 192/184/109 190/183/108
f 207/204/130 93/67/20 87/70/21 193/218/147
f 88/77/10 196/196/123 199/195/122 90/76/10
f 210/212/137 94/74/28 198/183/117 195/191/116
f 96/68/20 211/205/131 196/219/148 88/69/21
f 98/71/27 205/215/142 198/183/117 94/74/28
f 204/166/145 92/64/10 90/76/10 199/195/122
f 213/225/154 216/226/155 218/227/156 215/228/157
f 215/228/157 218/227/156 217/229/158 214/230/159
f 220/231/160 223/232/161 224/233/162 221/234/163
f 221/234/163 224/233/162 222/235/164 219/236/165
f 226/237/166 228/238/167 230/239/168 227/240/169
f 227/240/169 230/239/168 229/241/170 225/242/171
f 232/243/172 237/244/173 239/245/174 233/246/175
f 233/246/175 239/245/174 238/247/176 231/248/177
f 237/249/178 234/250/179 236/251/180 239/252/181
f 239/252/181 236/251/180 235/253/182 238/254/183
f 241/255/184 246/256/185 248/257/186 242/258/187
f 242/258/187 248/257/186 247/259/188 240/260/189
f 246/261/185 243/262/190 245/263/191 248/264/186
f 248/264/186 245/263/191 244/265/192 247/266/188
f 231/248/177 217/229/158 218/227/156 233/246/175
f 233/246/175 218/227/156 216/226/155 232/243/172
f 234/250/179 226/237/166 227/240/169 236/251/180
f 236/251/180 227/240/169 225/242/171 235/253/182
f 243/262/190 229/241/170 230/239/168 245/263/191
f 245/263/191 230/239/168 228/238/167 244/265/192
f 240/260/189 220/231/160 221/234/163 242/258/187
f 242/258/187 221/234/163 219/236/165 241/255/184
f 216/226/155 213/225/154 80/222/151 75/221/150
f 64/62/17 63/61/16 214/230/159 217/229/158
f 232/243/172 216/226/155 75/221/150 177/267/193
f 166/172/99 64/62/17 217/229/158 231/248/177
f 223/232/161 220/231/160 78/221/153 79/222/152
f 220/231/160 240/260/189 181/268/194 78/221/153
f 60/61/3 59/62/19 219/236/165 222/235/164
f 59/62/19 168/179/105 241/255/184 219/236/165
f 228/238/167 226/237/166 76/269/195 77/270/195
f 226/237/166 234/250/179 178/271/196 76/269/195
f 62/58/13 61/57/13 225/242/171 229/241/170
f 61/57/13 165/177/103 235/253/182 225/242/171
f 244/265/192 228/238/167 77/270/195 180/272/197
f 169/182/107 62/58/13 229/241/170 243/262/190
f 166/172/99 231/248/177 238/247/176 167/173/100
f 179/273/198 237/244/173 232/243/172 177/267/193
f 178/271/196 234/250/179 237/249/178 179/274/199
f 167/176/102 238/254/183 235/253/182 165/177/103
f 181/268/194 240/260/189 247/259/188 182/275/200
f 241/255/184 168/179/105 170/180/106 246/256/185
f 246/261/185 170/181/106 169/182/107 243/262/190
f 182/276/200 247/266/188 244/265/192 180/272/197
f 250/277/201 252/278/202 254/279/203 251/280/204
f 251/280/204 254/279/203 253/281/205 249/282/206
f 259/283/207 261/284/208 263/285/209 260/286/210
f 260/286/210 263/285/209 262/287/211 258/288/212
f 261/289/213 256/290/214 257/291/215 263/292/216
f 263/292/216 257/291/215 255/293/217 262/294/218
f 271/295/219 267/296/220 269/297/221 272/298/222
f 272/298/222 269/297/221 268/299/223 270/300/224
f 264/301/225 271/302/226 272/303/227 266/304/228
f 266/304/228 272/303/227 270/305/229 265/306/230
f 249/282/206 259/283/207 260/286/210 251/280/204
f 251/280/204 260/286/210 258/288/212 250/277/201
f 267/296/220 253/281/205 254/279/203 269/297/221
f 269/297/221 254/279/203 252/278/202 268/299/223
f 252/278/202 250/277/201 73/66/11 74/65/11
f 156/158/85 73/66/11 250/277/201 258/288/212
f 77/270/195 76/269/195 249/307/206 253/308/205
f 76/269/195 178/271/196 259/309/207 249/307/206
f 268/299/223 252/278/202 74/65/11 159/165/92
f 180/272/197 77/270/195 253/308/205 267/310/220
f 261/289/213 179/273/198 177/267/193 256/290/214
f 158/162/89 262/294/218 255/293/217 157/163/90
f 177/267/193 75/221/150 157/163/90 255/293/217 257/291/215 256/290/214
f 156/158/85 258/288/212 262/287/211 158/159/86
f 259/309/207 178/271/196 179/274/199 261/311/208
f 264/301/225 181/268/194 182/275/200 271/302/226
f 270/305/229 161/312/95 160/223/97 265/306/230
f 78/221/153 181/268/194 264/301/225 266/304/228 265/306/230 160/223/97
f 271/313/219 182/276/200 180/272/197 267/310/220
f 268/299/223 159/165/92 161/168/95 270/300/224
f 273/314/4 276/315/7 278/316/7 275/317/4
f 275/317/4 278/316/7 277/318/7 274/319/4
f 280/315/1 283/314/3 284/317/3 281/316/1
f 281/316/1 284/317/3 282/319/3 279/318/1
f 286/320/8 288/321/8 290/322/8 287/323/8
f 287/323/8 290/322/8 289/324/8 285/325/8
f 301/326/231 306/327/232 308/328/233 302/329/234
f 302/329/234 308/328/233 307/330/235 300/331/236
f 306/332/232 303/333/237 305/334/238 308/335/233
f 308/335/233 305/334/238 304/336/239 307/337/235
f 298/338/240 294/339/241 296/340/242 299/341/243
f 299/341/243 296/340/242 295/342/244 297/343/245
f 292/344/246 298/345/240 299/346/243 293/347/247
f 293/347/247 299/346/243 297/348/245 291/349/248
f 276/315/7 295/342/244 296/340/242 278/316/7
f 278/316/7 296/340/242 294/339/241 277/318/7
f 291/349/248 286/320/8 287/323/8 293/347/247
f 293/347/247 287/323/8 285/325/8 292/344/246
f 288/321/8 304/336/239 305/334/238 290/322/8
f 290/322/8 305/334/238 303/333/237 289/324/8
f 300/331/236 280/315/1 281/316/1 302/329/234
f 302/329/234 281/316/1 279/318/1 301/326/231
f 274/319/4 277/318/7 82/73/24 81/72/23
f 273/314/4 46/49/4 44/50/7 276/315/7
f 277/318/7 294/339/241 184/198/125 82/73/24
f 276/315/7 44/50/7 147/149/78 295/342/244
f 279/318/1 282/319/3 84/72/26 83/73/29
f 280/315/1 47/47/1 49/48/3 283/314/3
f 301/326/231 279/318/1 83/73/29 186/211/136
f 300/331/236 145/145/75 47/47/1 280/315/1
f 285/325/8 289/324/8 86/80/30 85/79/30
f 286/320/8 51/45/8 53/46/8 288/321/8
f 292/344/246 285/325/8 85/79/30 183/203/129
f 291/349/248 148/152/80 51/45/8 286/320/8
f 289/324/8 303/333/237 187/206/132 86/80/30
f 288/321/8 53/46/8 144/148/77 304/336/239
f 185/202/126 298/345/240 292/344/246 183/203/129
f 297/348/245 149/151/79 148/152/80 291/349/248
f 184/198/125 294/339/241 298/338/240 185/199/126
f 295/342/244 147/149/78 149/150/79 297/343/245
f 145/145/75 300/331/236 307/330/235 146/146/76
f 188/210/133 306/327/232 301/326/231 186/211/136
f 187/206/132 303/333/237 306/332/232 188/207/133
f 146/147/76 307/337/235 304/336/239 144/148/77
f 321/350/249 20/4/3 4/3/3 310/351/250
f 22/4/4 322/350/251 309/351/252 1/3/5
f 45/5/4 337/352/251 314/353/251 12/6/4
f 37/9/4 331/354/251 313/355/251 11/10/4
f 340/352/249 50/5/3 9/14/3 311/356/249
f 330/357/249 36/18/3 10/17/3 312/358/249
f 334/19/253 336/22/253 319/21/253 320/20/253
f 342/23/253 344/26/253 317/25/253 318/24/253
f 323/27/253 324/30/253 316/29/254 315/28/254
f 327/31/253 328/32/253 324/30/253 323/27/253
f 26/33/4 325/359/251 322/350/251 22/4/4
f 326/359/249 28/33/3 20/4/3 321/350/249
f 312/358/249 10/17/3 28/33/3 326/359/249
f 11/10/4 313/355/251 325/359/251 26/33/4
f 320/20/253 319/21/253 328/32/253 327/31/253
f 318/24/253 317/25/253 335/36/253 333/35/253
f 336/360/10 334/361/10 346/362/10 348/363/10
f 311/356/249 9/14/3 35/42/3 329/364/249
f 329/364/249 35/42/3 36/18/3 330/357/249
f 12/6/4 314/353/251 332/365/251 38/43/4
f 38/43/4 332/365/251 331/354/251 37/9/4
f 341/45/253 343/46/253 344/26/253 342/23/253
f 339/366/249 49/48/3 50/5/3 340/352/249
f 46/49/4 338/367/251 337/352/251 45/5/4
f 345/35/253 347/36/253 348/22/253 346/19/253
f 335/368/4 336/369/4 348/354/4 347/365/4
f 334/370/3 333/371/3 345/364/3 346/357/3
f 333/361/11 335/360/11 347/363/11 345/362/11
f 356/55/255 351/58/256 350/57/256 353/56/255
f 354/372/257 352/373/258 63/61/16 70/60/15
f 65/60/3 60/61/3 349/373/259 355/372/260
f 4/3/3 65/60/3 355/372/260 310/351/250
f 309/351/252 354/372/257 70/60/15 1/3/5
f 316/29/254 356/55/255 353/56/255 315/28/254
f 71/63/11 357/374/11 358/375/11 72/64/11
f 371/67/261 367/70/262 368/69/262 374/68/261
f 97/71/22 373/376/263 363/377/264 81/72/23
f 91/63/10 92/64/10 370/378/10 369/379/10
f 368/380/10 367/381/10 369/379/10 370/378/10
f 84/72/26 364/377/265 372/376/266 98/71/27
f 365/79/267 371/67/261 374/68/261 366/80/267
f 394/382/268 395/383/269 377/384/270 375/385/271
f 395/85/269 393/88/272 376/87/273 377/86/270
f 400/386/274 401/387/275 383/388/276 381/389/277
f 401/93/275 399/96/278 382/95/279 383/94/276
f 409/390/280 410/391/281 386/392/282 384/393/283
f 410/101/281 408/104/284 385/103/285 386/102/282
f 427/394/286 428/395/287 389/396/288 387/397/289
f 428/109/287 426/112/290 388/111/291 389/110/288
f 415/398/292 416/399/293 392/400/294 390/401/295
f 416/117/293 414/120/291 391/119/296 392/118/294
f 403/402/297 404/403/298 395/383/269 394/382/268
f 404/123/298 402/124/299 393/88/272 395/85/269
f 379/404/300 380/405/301 398/406/302 396/407/303
f 380/129/301 378/132/304 397/131/305 398/130/302
f 396/407/303 398/406/302 401/387/275 400/386/274
f 398/130/302 397/131/305 399/96/278 401/93/275
f 390/401/295 392/400/294 404/403/298 403/402/297
f 392/118/294 391/119/296 402/124/299 404/123/298
f 381/389/277 383/388/276 407/408/306 405/409/307
f 383/94/276 382/95/279 406/136/284 407/135/306
f 405/409/307 407/408/306 410/391/281 409/390/280
f 407/135/306 406/136/284 408/104/284 410/101/281
f 387/397/289 389/396/288 413/410/308 411/411/292
f 389/110/288 388/111/291 412/140/291 413/139/308
f 411/411/292 413/410/308 416/399/293 415/398/292
f 413/139/308 412/140/291 414/120/291 416/117/293
f 384/393/283 386/392/282 419/412/309 417/413/310
f 386/102/282 385/103/285 418/144/311 419/143/309
f 417/413/310 419/412/309 422/414/312 421/415/313
f 419/143/309 418/144/311 420/148/314 422/147/312
f 423/416/315 425/417/316 428/395/287 427/394/286
f 425/151/316 424/152/317 426/112/290 428/109/287
f 442/418/318 443/419/319 380/405/301 379/404/300
f 443/155/319 441/156/320 378/132/304 380/129/301
f 153/157/84 155/160/87 431/420/321 429/421/322
f 155/161/88 154/164/91 430/422/323 431/423/324
f 432/424/325 434/425/326 164/167/94 163/166/93
f 434/425/326 433/426/327 162/169/96 164/167/94
f 445/427/328 446/428/329 437/429/330 436/430/331
f 446/175/329 444/178/332 435/177/333 437/176/334
f 438/431/335 440/432/336 443/419/319 442/418/318
f 440/181/336 439/182/337 441/156/320 443/155/319
f 375/385/271 377/384/270 446/428/329 445/427/328
f 377/86/270 376/87/273 444/178/332 446/175/329
f 460/433/338 461/434/339 464/435/340 462/436/341
f 461/437/342 459/438/343 463/439/344 464/440/345
f 465/441/346 467/442/347 470/434/348 468/433/349
f 467/443/350 466/444/351 469/445/352 470/446/353
f 472/447/354 473/448/355 455/449/356 454/450/357
f 473/201/358 471/204/359 453/203/360 455/202/356
f 475/205/361 476/208/362 458/207/363 457/206/364
f 476/451/365 474/452/366 456/453/367 458/454/363
f 459/438/343 461/437/342 203/213/139 202/157/138
f 461/434/339 460/433/338 201/215/141 203/214/140
f 468/433/349 470/434/348 206/214/143 205/215/142
f 470/446/353 469/445/352 204/166/145 206/216/144
f 462/436/341 464/435/340 473/448/355 472/447/354
f 464/217/368 463/218/369 471/204/359 473/201/358
f 466/219/370 467/220/371 476/208/362 475/205/361
f 467/442/347 465/441/346 474/452/366 476/451/365
f 375/385/271 445/427/328 354/372/257 309/351/252
f 322/350/251 394/382/268 375/385/271 309/351/252
f 393/88/272 323/27/253 315/28/254 376/87/273
f 315/28/254 353/56/255 444/178/332 376/87/273
f 378/132/304 441/156/320 356/55/255 316/29/254
f 396/407/303 321/350/249 310/351/250 379/404/300
f 324/30/253 397/131/305 378/132/304 316/29/254
f 310/351/250 355/372/260 442/418/318 379/404/300
f 319/21/253 382/95/279 399/96/278 328/32/253
f 336/22/253 406/136/284 382/95/279 319/21/253
f 381/389/277 312/358/249 326/359/249 400/386/274
f 405/409/307 330/357/249 312/358/249 381/389/277
f 317/25/253 385/103/285 408/104/284 335/36/253
f 344/26/253 418/144/311 385/103/285 317/25/253
f 384/393/283 311/356/249 329/364/249 409/390/280
f 417/413/310 340/352/249 311/356/249 384/393/283
f 426/112/290 342/23/253 318/24/253 388/111/291
f 314/353/251 387/397/289 411/411/292 332/365/251
f 388/111/291 318/24/253 333/35/253 412/140/291
f 337/352/251 427/394/286 387/397/289 314/353/251
f 414/120/291 334/19/253 320/20/253 391/119/296
f 313/355/251 390/401/295 403/402/297 325/359/251
f 391/119/296 320/20/253 327/31/253 402/124/299
f 331/354/251 415/398/292 390/401/295 313/355/251
f 325/359/251 403/402/297 394/382/268 322/350/251
f 402/124/299 327/31/253 323/27/253 393/88/272
f 400/386/274 326/359/249 321/350/249 396/407/303
f 328/32/253 399/96/278 397/131/305 324/30/253
f 335/36/253 408/104/284 406/136/284 336/22/253
f 409/390/280 329/364/249 330/357/249 405/409/307
f 412/140/291 333/35/253 334/19/253 414/120/291
f 332/365/251 411/411/292 415/398/292 331/354/251
f 343/46/253 420/148/314 418/144/311 344/26/253
f 421/415/313 339/366/249 340/352/249 417/413/310
f 424/152/317 341/45/253 342/23/253 426/112/290
f 338/367/251 423/416/315 427/394/286 337/352/251
f 153/157/84 429/421/322 357/374/11 71/63/11
f 359/455/372 430/422/323 154/164/91 80/222/151
f 79/222/152 162/224/96 433/456/327 362/455/373
f 72/64/11 358/375/11 432/424/325 163/166/93
f 353/56/255 350/57/256 435/177/333 444/178/332
f 445/427/328 436/430/331 352/373/258 354/372/257
f 355/372/260 349/373/259 438/431/335 442/418/318
f 441/156/320 439/182/337 351/58/256 356/55/255
f 363/377/264 373/376/263 472/447/354 454/450/357
f 453/203/360 471/204/359 371/67/261 365/79/267
f 366/80/267 374/68/261 475/205/361 457/206/364
f 456/453/367 474/452/366 372/376/266 364/377/265
f 459/438/343 369/379/10 367/381/10 463/439/344
f 201/215/141 460/433/338 373/376/263 97/71/22
f 202/157/138 91/63/10 369/379/10 459/438/343
f 373/376/263 460/433/338 462/436/341 472/447/354
f 471/204/359 463/218/369 367/70/262 371/67/261
f 368/380/10 370/378/10 469/445/352 466/444/351
f 474/452/366 465/441/346 468/433/349 372/376/266
f 374/68/261 368/69/262 466/219/370 475/205/361
f 98/71/27 372/376/266 468/433/349 205/215/142
f 204/166/145 469/445/352 370/378/10 92/64/10
f 213/225/154 215/228/157 479/457/374 477/458/375
f 215/228/157 214/230/159 478/459/376 479/457/374
f 481/460/377 482/461/378 224/233/162 223/232/161
f 482/461/378 480/462/379 222/235/164 224/233/162
f 484/237/380 485/240/381 488/239/382 486/238/383
f 485/240/381 483/242/384 487/241/385 488/239/382
f 490/463/386 491/464/387 497/465/388 495/466/389
f 491/464/387 489/467/390 496/468/391 497/465/388
f 495/249/392 497/252/393 494/251/394 492/250/395
f 497/252/393 496/254/396 493/253/397 494/251/394
f 499/469/398 500/470/399 506/471/400 504/472/401
f 500/470/399 498/473/402 505/474/403 506/471/400
f 504/261/401 506/264/400 503/263/404 501/262/405
f 506/264/400 505/266/403 502/265/406 503/263/404
f 489/467/390 491/464/387 479/457/374 478/459/376
f 491/464/387 490/463/386 477/458/375 479/457/374
f 492/250/395 494/251/394 485/240/381 484/237/380
f 494/251/394 493/253/397 483/242/384 485/240/381
f 501/262/405 503/263/404 488/239/382 487/241/385
f 503/263/404 502/265/406 486/238/383 488/239/382
f 498/473/402 500/470/399 482/461/378 481/460/377
f 500/470/399 499/469/398 480/462/379 482/461/378
f 477/458/375 359/455/372 80/222/151 213/225/154
f 352/373/258 478/459/376 214/230/159 63/61/16
f 490/463/386 447/475/407 359/455/372 477/458/375
f 436/430/331 489/467/390 478/459/376 352/373/258
f 223/232/161 79/222/152 362/455/373 481/460/377
f 481/460/377 362/455/373 451/476/408 498/473/402
f 60/61/3 222/235/164 480/462/379 349/373/259
f 349/373/259 480/462/379 499/469/398 438/431/335
f 486/238/383 361/270/409 360/269/409 484/237/380
f 484/237/380 360/269/409 448/271/410 492/250/395
f 351/58/256 487/241/385 483/242/384 350/57/256
f 350/57/256 483/242/384 493/253/397 435/177/333
f 502/265/406 450/272/411 361/270/409 486/238/383
f 439/182/337 501/262/405 487/241/385 351/58/256
f 436/430/331 437/429/330 496/468/391 489/467/390
f 449/477/412 447/475/407 490/463/386 495/466/389
f 448/271/410 449/274/413 495/249/392 492/250/395
f 437/176/334 435/177/333 493/253/397 496/254/396
f 451/476/408 452/478/414 505/474/403 498/473/402
f 499/469/398 504/472/401 440/432/336 438/431/335
f 504/261/401 501/262/405 439/182/337 440/181/336
f 452/276/414 450/272/411 502/265/406 505/266/403
f 508/479/415 509/480/416 512/481/417 510/482/418
f 509/480/416 507/483/419 511/484/420 512/481/417
f 517/485/421 518/486/422 521/487/423 519/488/424
f 518/486/422 516/489/425 520/490/426 521/487/423
f 519/491/427 521/492/428 515/493/429 514/494/430
f 521/492/428 520/495/431 513/496/432 515/493/429
f 529/497/433 530/498/434 527/499/435 525/500/436
f 530/498/434 528/501/437 526/502/438 527/499/435
f 522/503/439 524/504/440 530/505/441 529/506/442
f 524/504/440 523/507/443 528/508/444 530/505/441
f 507/483/419 509/480/416 518/486/422 517/485/421
f 509/480/416 508/479/415 516/489/425 518/486/422
f 525/500/436 527/499/435 512/481/417 511/484/420
f 527/499/435 526/502/438 510/482/418 512/481/417
f 510/482/418 358/375/11 357/374/11 508/479/415
f 429/421/322 516/489/425 508/479/415 357/374/11
f 361/270/409 511/308/420 507/307/419 360/269/409
f 360/269/409 507/307/419 517/309/421 448/271/410
f 526/502/438 432/424/325 358/375/11 510/482/418
f 450/272/411 525/310/436 511/308/420 361/270/409
f 519/491/427 514/494/430 447/475/407 449/477/412
f 431/423/324 430/422/323 513/496/432 520/495/431
f 447/475/407 514/494/430 515/493/429 513/496/432 430/422/323 359/455/372
f 429/421/322 431/420/321 520/490/426 516/489/425
f 517/309/421 519/311/424 449/274/413 448/271/410
f 522/503/439 529/506/442 452/478/414 451/476/408
f 528/508/444 523/507/443 433/456/327 434/509/326
f 362/455/373 433/456/327 523/507/443 524/504/440 522/503/439 451/476/408
f 529/313/433 525/310/436 450/272/411 452/276/414
f 526/502/438 528/501/437 434/425/326 432/424/325
f 273/314/4 275/317/4 533/510/251 531/511/251
f 275/317/4 274/319/4 532/512/251 533/510/251
f 535/511/249 536/510/249 284/317/3 283/314/3
f 536/510/249 534/512/249 282/319/3 284/317/3
f 538/320/253 539/323/253 542/322/253 540/321/253
f 539/323/253 537/325/253 541/324/253 542/322/253
f 553/513/445 554/514/446 560/515/447 558/516/448
f 554/514/446 552/517/449 559/518/450 560/515/447
f 558/332/448 560/335/447 557/334/451 555/333/452
f 560/335/447 559/337/450 556/336/453 557/334/451
f 550/519/454 551/520/455 548/521/456 546/522/457
f 551/520/455 549/523/458 547/524/459 548/521/456
f 544/344/460 545/347/461 551/346/455 550/345/454
f 545/347/461 543/349/462 549/348/458 551/346/455
f 531/511/251 533/510/251 548/521/456 547/524/459
f 533/510/251 532/512/251 546/522/457 548/521/456
f 543/349/462 545/347/461 539/323/253 538/320/253
f 545/347/461 544/344/460 537/325/253 539/323/253
f 540/321/253 542/322/253 557/334/451 556/336/453
f 542/322/253 541/324/253 555/333/452 557/334/451
f 552/517/449 554/514/446 536/510/249 535/511/249
f 554/514/446 553/513/445 534/512/249 536/510/249
f 274/319/4 81/72/23 363/377/264 532/512/251
f 273/314/4 531/511/251 338/367/251 46/49/4
f 532/512/251 363/377/264 454/450/357 546/522/457
f 531/511/251 547/524/459 423/416/315 338/367/251
f 534/512/249 364/377/265 84/72/26 282/319/3
f 535/511/249 283/314/3 49/48/3 339/366/249
f 553/513/445 456/453/367 364/377/265 534/512/249
f 552/517/449 535/511/249 339/366/249 421/415/313
f 537/325/253 365/79/267 366/80/267 541/324/253
f 538/320/253 540/321/253 343/46/253 341/45/253
f 544/344/460 453/203/360 365/79/267 537/325/253
f 543/349/462 538/320/253 341/45/253 424/152/317
f 541/324/253 366/80/267 457/206/364 555/333/452
f 540/321/253 556/336/453 420/148/314 343/46/253
f 455/202/356 453/203/360 544/344/460 550/345/454
f 549/348/458 543/349/462 424/152/317 425/151/316
f 454/450/357 455/449/356 550/519/454 546/522/457
f 547/524/459 549/523/458 425/417/316 423/416/315
f 421/415/313 422/414/312 559/518/450 552/517/449
f 458/454/363 456/453/367 553/513/445 558/516/448
f 457/206/364 458/207/363 558/332/448 555/333/452
f 422/147/312 420/148/314 556/336/453 559/337/450
g SideDoor_Plane.001
v 2.700000 0.300000 -2.899999
v 2.700000 0.300000 2.900000
v 2.700000 -0.300000 -2.900000
v 2.700000 -0.300000 2.899999
v 2.600000 0.300000 -2.899999
v 2.600000 0.300000 2.900000
v 2.600000 -0.300000 -2.900000
v 2.600000 -0.300000 2.899999
v -2.700000 0.300000 -2.899999
v -2.700000 0.300000 2.900001
v -2.700000 -0.300000 -2.900000
v -2.700000 -0.300000 2.900000
v -2.600000 0.300000 -2.899999
v -2.599999 0.300000 2.900001
v -2.600000 -0.300000 -2.900000
v -2.599999 -0.300000 2.900000
vn 1.0000 -0.0000 -0.0000
vn -1.0000 -0.0000 -0.0000
vn -0.0000 1.0000 -0.0000
vn -0.0000 -0.0000 1.0000
vn -0.0000 -1.0000 -0.0000
vn -0.0000 -0.0000 -1.0000
vt 0.000000 0.555556
vt 1.000000 0.555556
vt 1.000000 0.444444
vt 0.000000 0.444444
vt 0.000000 1.000000
vt 0.000000 0.981481
vt 1.000000 0.981481
vt 1.000000 1.000000
vt 0.965517 0.555556
vt 0.948276 0.555556
vt 0.948276 0.444444
vt 0.965517 0.444444
vt 1.000000 1.000000
vt 1.000000 0.981481
vt 0.000000 0.981481
vt 0.000000 1.000000
vt 0.000000 0.000000
vt 1.000000 0.000000
vt 1.000000 0.018519
vt 0.000000 0.018519
vt 0.034483 0.555556
vt 0.034483 0.444444
vt 0.051724 0.444444
vt 0.051724 0.555556
vt 1.000000 0.000000
vt 0.000000 0.000000
vt 0.000000 0.018519
vt 1.000000 0.018519
s 0
f 561/525/463 562/526/463 564/527/463 563/528/463
f 565/525/464 567/528/464 568/527/464 566/526/464
f 563/529/465 567/530/465 568/531/465 564/532/465
f 561/533/466 565/534/466 567/535/466 563/536/466
f 562/537/467 566/538/467 565/539/467 561/540/467
f 564/536/468 568/535/468 566/534/468 562/533/468
f 569/525/464 571/528/464 572/527/464 570/526/464
f 573/525/463 574/526/463 576/527/463 575/528/463
f 571/541/465 572/542/465 576/543/465 575/544/465
f 569/545/466 571/546/466 575/547/466 573/548/466
f 570/549/467 569/550/467 573/551/467 574/552/467
f 572/546/468 570/545/468 574/548/468 576/547/468
g Bridge_Plane.002
v 1.000000 1.000000 -5.000000
v 1.000000 1.000000 -7.000000
v -0.000000 1.000000 -5.000000
v -0.000000 1.000000 -7.000000
v 1.000000 1.200000 -5.000000
v 1.000000 1.200000 -7.000000
v -0.000000 1.200000 -5.000000
v -0.000000 1.200000 -7.000000
v 0.999999 1.200000 -7.200000
v -0.000000 1.200000 -7.200000
v 1.200000 1.200000 -5.000000
v 1.200000 1.200000 -7.000000
v 1.000000 1.200000 -4.800000
v -0.000000 1.200000 -4.800000
v 1.200000 1.200000 -7.200000
v 1.200000 1.200000 -4.800000
v -0.000000 1.600000 -7.200000
v -0.000000 1.600000 -4.800000
v 1.200000 1.600000 -7.200000
v 1.200000 1.600000 -4.800000
v 1.000000 1.700000 -5.000000
v 1.000000 1.700000 -7.000000
v -0.000000 1.700000 -5.000000
v -0.000000 1.700000 -7.000000
v 1.000000 1.600000 -5.000000
v 1.000000 1.600000 -7.000000
v -0.000000 1.600000 -5.000000
v -0.000000 1.600000 -7.000000
v 0.999999 1.600000 -7.200000
v 1.200000 1.600000 -5.000000
v 1.200000 1.600000 -7.000000
v 1.000000 1.600000 -4.800000
v -1.000000 1.000000 -5.000000
v -1.000000 1.000000 -7.000000
v -1.000000 1.200000 -5.000000
v -1.000000 1.200000 -7.000000
v -1.000000 1.200000 -7.200000
v -1.200000 1.200000 -5.000000
v -1.200001 1.200000 -7.000000
v -1.000000 1.200000 -4.800000
v -1.200001 1.200000 -7.200000
v -1.200000 1.200000 -4.800000
v -1.200001 1.600000 -7.200000
v -1.200000 1.600000 -4.800000
v -1.000000 1.700000 -5.000000
v -1.000000 1.700000 -7.000000
v -1.000000 1.600000 -5.000000
v -1.000000 1.600000 -7.000000
v -1.000000 1.600000 -7.200000
v -1.200000 1.600000 -5.000000
v -1.200001 1.600000 -7.000000
v -1.000000 1.600000 -4.800000
vn -0.0000 -0.0000 1.0000
vn -1.0000 -0.0000 -0.0000
vn -0.0000 -0.0000 -1.0000
vn 1.0000 -0.0000 -0.0000
vn -0.0000 -1.0000 -0.0000
vn -0.0000 1.0000 -0.0000
vt 0.899039 0.333333
vt 0.899039 0.416666
vt 0.490385 0.416666
vt 0.490385 0.333333
vt 0.918269 0.333333
vt 0.918269 0.416666
vt 0.100961 0.416666
vt 0.100961 0.333333
vt 0.100961 0.916666
vt 0.100961 0.500000
vt 0.019231 0.500000
vt 0.019231 0.916666
vt 0.918269 0.916666
vt 0.100961 1.000000
vt 0.918269 1.000000
vt 1.000000 0.916666
vt 1.000000 0.500000
vt 0.918269 0.500000
vt 0.980770 0.416666
vt 0.980770 0.583333
vt 0.899039 0.583333
vt 0.019231 0.416666
vt 0.019231 0.583333
vt 0.100961 0.583333
vt 0.100961 0.625000
vt 0.918269 0.625000
vt 0.918269 0.583333
vt 1.000000 1.000000
vt 0.490385 0.583333
vt 0.490385 0.625000
vt 0.899039 0.625000
vt 1.000000 0.416666
vt 1.000000 0.583333
vt 0.019231 1.000000
vt 0.081731 0.333333
vt 0.081731 0.416666
vt 0.100961 0.083333
vt 0.019231 0.083333
vt 0.918269 0.083333
vt 0.918269 0.000000
vt 0.100961 0.000000
vt 1.000000 0.083333
vt 0.000000 0.416666
vt 0.081731 0.583333
vt 0.000000 0.583333
vt 1.000000 0.000000
vt 0.081731 0.625000
vt 0.019231 0.000000
s 0
f 577/553/469 581/554/469 583/555/469 579/556/469
f 579/557/470 583/558/470 584/559/470 580/560/470
f 578/553/471 580/556/471 584/555/471 582/554/471
f 577/557/472 578/560/472 582/559/472 581/558/472
f 582/561/473 584/562/473 586/563/473 585/564/473
f 581/565/473 582/561/473 588/566/473 587/567/473
f 581/565/473 589/568/473 590/569/473 583/570/473
f 592/571/469 596/572/469 608/573/469 589/554/469
f 588/559/472 591/574/472 595/575/472 607/576/472
f 598/577/472 597/578/472 601/579/472 602/576/472
f 581/565/473 587/567/473 592/580/473 589/568/473
f 593/581/469 586/555/469 591/571/469 595/572/469
f 599/582/469 603/581/469 601/573/469 597/583/469
f 600/582/471 598/583/471 602/573/471 604/581/471
f 598/561/474 600/562/474 599/570/474 597/565/474
f 592/584/472 587/558/472 606/579/472 596/585/472
f 596/580/474 606/567/474 601/565/474 608/568/474
f 589/554/469 608/573/469 594/581/469 590/555/469
f 601/565/474 603/570/474 594/569/474 608/568/474
f 602/561/474 601/565/474 606/567/474 607/566/474
f 588/559/472 607/576/472 606/579/472 587/558/472
f 595/586/474 605/564/474 602/561/474 607/566/474
f 582/561/473 585/564/473 591/586/473 588/566/473
f 585/554/471 605/573/471 595/572/471 591/571/471
f 585/554/471 586/555/471 593/581/471 605/573/471
f 602/561/474 605/564/474 593/563/474 604/562/474
f 609/587/469 579/556/469 583/555/469 611/588/469
f 610/587/471 612/588/471 584/555/471 580/556/471
f 609/557/470 611/558/470 612/559/470 610/560/470
f 612/589/473 613/590/473 586/563/473 584/562/473
f 611/591/473 614/592/473 615/593/473 612/589/473
f 611/591/473 583/570/473 590/569/473 616/594/473
f 618/595/469 616/588/469 628/596/469 620/597/469
f 615/559/470 627/576/470 619/575/470 617/574/470
f 622/577/470 624/576/470 623/579/470 621/578/470
f 611/591/473 616/594/473 618/598/473 614/592/473
f 593/581/469 619/597/469 617/595/469 586/555/469
f 599/582/469 621/599/469 623/596/469 603/581/469
f 600/582/471 604/581/471 624/596/471 622/599/471
f 622/589/474 621/591/474 599/570/474 600/562/474
f 618/584/470 620/585/470 626/579/470 614/558/470
f 620/598/474 628/594/474 623/591/474 626/592/474
f 616/588/469 590/555/469 594/581/469 628/596/469
f 623/591/474 628/594/474 594/569/474 603/570/474
f 624/589/474 627/593/474 626/592/474 623/591/474
f 615/559/470 614/558/470 626/579/470 627/576/470
f 619/600/474 627/593/474 624/589/474 625/590/474
f 612/589/473 615/593/473 617/600/473 613/590/473
f 613/588/471 617/595/471 619/597/471 625/596/471
f 613/588/471 625/596/471 593/581/471 586/555/471
f 624/589/474 604/562/474 593/563/474 625/590/474
l 603 604
