# Blender 5.0.1
# www.blender.org
o Cone.001
v -0.000000 5.000000 -0.010000
v -0.001951 5.000000 -0.009808
v -0.003827 5.000000 -0.009239
v -0.005556 5.000000 -0.008315
v -0.007071 5.000000 -0.007071
v -0.008315 5.000000 -0.005556
v -0.009239 5.000000 -0.003827
v -0.009808 5.000000 -0.001951
v -0.010000 5.000000 -0.000000
v -0.009808 5.000000 0.001951
v -0.009239 5.000000 0.003827
v -0.008315 5.000000 0.005556
v -0.007071 5.000000 0.007071
v -0.005556 5.000000 0.008315
v -0.003827 5.000000 0.009239
v -0.001951 5.000000 0.009808
v -0.000000 5.000000 0.010000
v 0.001951 5.000000 0.009808
v 0.003827 5.000000 0.009239
v 0.005556 5.000000 0.008315
v 0.007071 5.000000 0.007071
v 0.008315 5.000000 0.005556
v 0.009239 5.000000 0.003827
v 0.009808 5.000000 0.001951
v 0.010000 5.000000 -0.000000
v 0.009808 5.000000 -0.001951
v 0.009239 5.000000 -0.003827
v 0.008315 5.000000 -0.005556
v 0.007071 5.000000 -0.007071
v 0.005556 5.000000 -0.008315
v 0.003827 5.000000 -0.009239
v 0.001951 5.000000 -0.009808
v 0.000000 0.000000 0.000000
v 0.195090 0.000000 -0.980785
v 0.382683 0.000000 -0.923880
v 0.555570 0.000000 -0.831470
v 0.707107 0.000000 -0.707107
v 0.000000 0.000000 -1.000000
v 0.831470 0.000000 -0.555570
v 0.923880 0.000000 -0.382683
v 0.980785 0.000000 -0.195090
v 1.000000 0.000000 0.000000
v 0.980785 0.000000 0.195090
v 0.923880 0.000000 0.382683
v 0.831470 0.000000 0.555570
v 0.707107 0.000000 0.707107
v 0.555570 0.000000 0.831470
v 0.382683 0.000000 0.923880
v 0.195090 0.000000 0.980785
v 0.000000 0.000000 1.000000
v -0.195090 0.000000 0.980785
v -0.382683 0.000000 0.923880
v -0.555570 0.000000 0.831470
v -0.707107 0.000000 0.707107
v -0.831470 0.000000 0.555570
v -0.923880 0.000000 0.382683
v -0.980785 0.000000 0.195090
v -1.000000 0.000000 0.000000
v -0.980785 0.000000 -0.195090
v -0.923880 0.000000 -0.382683
v -0.831470 0.000000 -0.555570
v -0.707107 0.000000 -0.707107
v -0.555570 0.000000 -0.831470
v -0.382683 0.000000 -0.923880
v -0.195090 0.000000 -0.980785
vn 0.4625 -0.1933 0.8653
vn 0.0962 -0.1933 -0.9764
vn 0.8653 -0.1933 0.4625
vn -0.9764 -0.1933 -0.0962
vn -0.9389 -0.1933 0.2848
vn -0.0962 -0.1933 -0.9764
vn -0.7584 -0.1933 -0.6224
vn -0.9389 -0.1933 -0.2848
vn -0.2848 -0.1933 0.9389
vn 0.9764 -0.1933 0.0962
vn 0.2848 -0.1933 -0.9389
vn -0.7584 -0.1933 0.6224
vn -0.2848 -0.1933 -0.9389
vn 0.9389 -0.1933 -0.2848
vn 0.0962 -0.1933 0.9764
vn -0.6224 -0.1933 0.7584
vn 0.6224 -0.1933 -0.7584
vn 0.9764 -0.1933 -0.0962
vn 0.9389 -0.1933 0.2848
vn 0.8653 -0.1933 -0.4625
vn -0.4625 -0.1933 -0.8653
vn -0.9764 -0.1933 0.0962
vn -0.6224 -0.1933 -0.7584
vn 0.6224 -0.1933 0.7584
vn -0.8653 -0.1933 0.4625
vn -0.0962 -0.1933 0.9764
vn 0.2848 -0.1933 0.9389
vn 0.7584 -0.1933 -0.6224
vn -0.4625 -0.1933 0.8653
vn 0.4625 -0.1933 -0.8653
vn -0.8653 -0.1933 -0.4625
vn 0.7584 -0.1933 0.6224
vn -0.0000 1.0000 -0.0000
vn -0.0000 -1.0000 -0.0000
vt 0.500000 0.000000
vt 0.473684 0.000000
vt 0.473684 1.000000
vt 0.500000 1.000000
vt 0.842105 0.000000
vt 0.815789 0.000000
vt 0.815789 1.000000
vt 0.842105 1.000000
vt 0.578947 0.000000
vt 0.552632 0.000000
vt 0.552632 1.000000
vt 0.578947 1.000000
vt 0.210526 0.000000
vt 0.184211 0.000000
vt 0.184211 1.000000
vt 0.210526 1.000000
vt 0.263158 0.000000
vt 0.236842 0.000000
vt 0.236842 1.000000
vt 0.263158 1.000000
vt 0.026316 0.000000
vt 0.000000 0.000000
vt 0.000000 1.000000
vt 0.026316 1.000000
vt 0.131579 0.000000
vt 0.105263 0.000000
vt 0.105263 1.000000
vt 0.131579 1.000000
vt 0.157895 0.000000
vt 0.157895 1.000000
vt 0.394737 0.000000
vt 0.368421 0.000000
vt 0.368421 1.000000
vt 0.394737 1.000000
vt 0.631579 0.000000
vt 0.605263 0.000000
vt 0.605263 1.000000
vt 0.631579 1.000000
vt 0.789474 0.000000
vt 0.789473 1.000000
vt 0.315789 0.000000
vt 0.289474 0.000000
vt 0.289474 1.000000
vt 0.315789 1.000000
vt 0.052632 0.000000
vt 0.052632 1.000000
vt 0.684211 0.000000
vt 0.657895 0.000000
vt 0.657895 1.000000
vt 0.684211 1.000000
vt 0.447368 0.000000
vt 0.421053 0.000000
vt 0.421053 1.000000
vt 0.447369 1.000000
vt 0.342105 0.000000
vt 0.342106 1.000000
vt 0.763158 0.000000
vt 0.736842 0.000000
vt 0.736842 1.000000
vt 0.763158 1.000000
vt 0.710526 0.000000
vt 0.710526 1.000000
vt 0.078947 0.000000
vt 0.078947 1.000000
vt 0.526316 0.000000
vt 0.526316 1.000000
vt 0.000000 0.238972
vt 0.016667 0.065813
vt 0.016667 0.000000
vt 0.000000 0.238972
vt 0.016667 0.197438
vt 0.016667 0.131625
vt 0.033333 0.238972
vt 0.050000 0.131625
vt 0.050000 0.065813
vt 0.066667 0.238972
vt 0.083333 0.000000
vt 0.066667 0.012812
vt 0.100000 0.238972
vt 0.116667 0.329063
vt 0.116667 0.263250
vt 0.133333 0.238972
vt 0.150000 0.460688
vt 0.150000 0.394875
vt 0.166667 0.238972
vt 0.183333 0.394875
vt 0.183333 0.329063
vt 0.200000 0.238972
vt 0.216667 0.263250
vt 0.216667 0.197438
vt 0.233333 0.238972
vt 0.250000 0.592313
vt 0.250000 0.526500
vt 0.266667 0.238972
vt 0.283333 0.723938
vt 0.283333 0.658125
vt 0.300000 0.238972
vt 0.316667 0.658125
vt 0.316667 0.592313
vt 0.333333 0.238972
vt 0.350000 0.526500
vt 0.350000 0.460688
vt 0.366667 0.238972
vt 0.383333 0.855563
vt 0.383333 0.789751
vt 0.400000 0.238972
vt 0.416667 0.987188
vt 0.416667 0.921376
vt 0.433333 0.238972
vt 0.450000 0.921376
vt 0.450000 0.855563
vt 0.466667 0.238972
vt 0.483333 0.789751
vt 0.483333 0.723938
vt 0.500000 0.238972
vt 0.500000 0.934187
vt 0.500000 1.000000
vt 0.533333 0.238972
vt 0.533333 0.802562
vt 0.533333 0.868375
vt 0.566667 0.238972
vt 0.566667 0.868375
vt 0.566667 0.934187
vt 0.600000 0.238972
vt 0.600000 1.000000
vt 0.616667 0.987188
vt 0.633333 0.238972
vt 0.633333 0.670937
vt 0.633333 0.736750
vt 0.666667 0.238972
vt 0.666667 0.539312
vt 0.666667 0.605125
vt 0.700000 0.238972
vt 0.700000 0.605125
vt 0.700000 0.670937
vt 0.733333 0.238972
vt 0.733333 0.736750
vt 0.733333 0.802562
vt 0.766667 0.238972
vt 0.766667 0.407687
vt 0.766667 0.473500
vt 0.800000 0.238972
vt 0.800000 0.276062
vt 0.800000 0.341875
vt 0.833333 0.238972
vt 0.833333 0.341875
vt 0.833333 0.407687
vt 0.866667 0.238972
vt 0.866667 0.473500
vt 0.866667 0.539312
vt 0.900000 0.238972
vt 0.900000 0.144437
vt 0.900000 0.210249
vt 0.933333 0.238972
vt 0.933333 0.012812
vt 0.933333 0.078624
vt 0.966667 0.238972
vt 0.966667 0.078624
vt 0.966667 0.144437
vt 1.000000 0.238972
vt 1.000000 0.210249
vt 1.000000 0.276062
vt 1.000000 1.000000
vt 0.973684 1.000000
vt 0.947368 1.000000
vt 0.921053 1.000000
vt 0.894737 1.000000
vt 0.868421 1.000000
s 1
f 63/1/1 64/2/1 3/3/1 4/4/1
f 50/5/2 51/6/2 16/7/2 17/8/2
f 60/9/3 61/10/3 6/11/3 7/12/3
f 42/13/4 43/14/4 24/15/4 25/16/4
f 40/17/5 41/18/5 26/19/5 27/20/5
f 49/21/6 50/22/6 17/23/6 18/24/6
f 45/25/7 46/26/7 21/27/7 22/28/7
f 43/14/8 44/29/8 23/30/8 24/15/8
f 34/31/9 35/32/9 31/33/9 32/34/9
f 58/35/10 59/36/10 8/37/10 9/38/10
f 51/6/11 52/39/11 15/40/11 16/7/11
f 37/41/12 39/42/12 28/43/12 29/44/12
f 48/45/13 49/21/13 18/24/13 19/46/13
f 56/47/14 57/48/14 10/49/14 11/50/14
f 65/51/15 38/52/15 1/53/15 2/54/15
f 36/55/16 37/41/16 29/44/16 30/56/16
f 53/57/17 54/58/17 13/59/17 14/60/17
f 57/48/18 58/35/18 9/38/18 10/49/18
f 59/36/19 60/9/19 7/12/19 8/37/19
f 55/61/20 56/47/20 11/50/20 12/62/20
f 47/63/21 48/45/21 19/46/21 20/64/21
f 41/18/22 42/13/22 25/16/22 26/19/22
f 46/26/23 47/63/23 20/64/23 21/27/23
f 62/65/24 63/1/24 4/4/24 5/66/24
f 39/42/25 40/17/25 27/20/25 28/43/25
f 38/52/26 34/31/26 32/34/26 1/53/26
f 64/2/27 65/51/27 2/54/27 3/3/27
f 54/58/28 55/61/28 12/62/28 13/59/28
f 35/32/29 36/55/29 30/56/29 31/33/29
f 52/39/30 53/57/30 14/60/30 15/40/30
f 44/29/31 45/25/31 22/28/31 23/30/31
f 61/10/32 62/65/32 5/66/32 6/11/32
f 33/67/33 35/68/33 34/69/33
f 33/70/33 37/71/33 36/72/33
f 33/73/33 36/74/33 35/75/33
f 33/76/33 34/77/33 38/78/33
f 33/79/33 40/80/33 39/81/33
f 33/82/33 42/83/33 41/84/33
f 33/85/33 41/86/33 40/87/33
f 33/88/33 39/89/33 37/90/33
f 33/91/33 44/92/33 43/93/33
f 33/94/33 46/95/33 45/96/33
f 33/97/33 45/98/33 44/99/33
f 33/100/33 43/101/33 42/102/33
f 33/103/33 48/104/33 47/105/33
f 33/106/33 50/107/33 49/108/33
f 33/109/33 49/110/33 48/111/33
f 33/112/33 47/113/33 46/114/33
f 33/115/33 52/116/33 51/117/33
f 33/118/33 54/119/33 53/120/33
f 33/121/33 53/122/33 52/123/33
f 33/124/33 51/125/33 50/126/33
f 33/127/33 56/128/33 55/129/33
f 33/130/33 58/131/33 57/132/33
f 33/133/33 57/134/33 56/135/33
f 33/136/33 55/137/33 54/138/33
f 33/139/33 60/140/33 59/141/33
f 33/142/33 62/143/33 61/144/33
f 33/145/33 61/146/33 60/147/33
f 33/148/33 59/149/33 58/150/33
f 33/151/33 64/152/33 63/153/33
f 33/154/33 38/155/33 65/156/33
f 33/157/33 65/158/33 64/159/33
f 33/160/33 63/161/33 62/162/33
f 3/3/34 2/54/34 1/53/34 32/34/34 31/33/34 30/56/34 29/44/34 28/43/34 27/20/34 26/19/34 25/16/34 24/15/34 23/163/34 22/164/34 21/165/34 20/166/34 19/167/34 18/168/34 17/8/34 16/7/34 15/40/34 14/60/34 13/59/34 12/62/34 11/50/34 10/49/34 9/38/34 8/37/34 7/12/34 6/11/34 5/66/34 4/4/34
