# Blender 5.1.0
# www.blender.org
g Missile_Cylinder
v 0.000000 0.500000 -1.100000
v 0.030000 0.090000 0.050000
v 0.050000 0.150000 -0.650000
v 0.050000 0.150000 -0.550000
v 0.000000 0.150000 -0.550000
v 0.000000 0.150000 -0.650000
v 0.433013 -0.250000 -1.100000
v 0.072942 -0.053660 0.070000
v 0.104904 -0.118301 -0.650000
v 0.104904 -0.118301 -0.550000
v 0.129904 -0.075000 -0.550000
v 0.129904 -0.075000 -0.650000
v 0.154904 -0.031699 -0.550000
v 0.154904 -0.031699 -0.650000
v 0.154904 0.031699 -0.650000
v 0.154904 0.031699 -0.550000
v 0.129904 0.075000 -0.550000
v 0.129904 0.075000 -0.650000
v 0.104904 0.118301 -0.550000
v 0.104904 0.118301 -0.650000
v 0.000000 -0.500000 -1.100000
v 0.000000 0.090000 0.050000
v 0.000000 -0.150000 -0.650000
v 0.000000 -0.150000 -0.550000
v 0.050000 -0.150000 -0.550000
v 0.050000 -0.150000 -0.650000
v 0.048000 0.144000 -0.360000
v 0.030000 0.090000 -0.800000
v 0.050000 0.150000 -0.500000
v 0.000000 0.150000 -0.500000
v 0.104904 -0.118301 -0.500000
v 0.129904 -0.075000 -0.500000
v 0.154904 -0.031699 -0.500000
v 0.154904 0.031699 -0.500000
v 0.129904 0.075000 -0.500000
v 0.104904 0.118301 -0.500000
v 0.000000 -0.150000 -0.500000
v 0.050000 -0.150000 -0.500000
v 0.000000 0.144000 -0.360000
v 0.100708 -0.113569 -0.360000
v 0.124708 -0.072000 -0.360000
v 0.148708 -0.030431 -0.360000
v 0.148708 0.030431 -0.360000
v 0.124708 0.072000 -0.360000
v 0.100708 0.113569 -0.360000
v 0.000000 -0.144000 -0.360000
v 0.048000 -0.144000 -0.360000
v 0.050000 0.150000 -0.700000
v 0.000000 0.150000 -0.700000
v 0.104904 -0.118301 -0.700000
v 0.129904 -0.075000 -0.700000
v 0.154904 -0.031699 -0.700000
v 0.154904 0.031699 -0.700000
v 0.129904 0.075000 -0.700000
v 0.104904 0.118301 -0.700000
v 0.000000 -0.150000 -0.700000
v 0.050000 -0.150000 -0.700000
v 0.000000 0.090000 -0.800000
v 0.062942 -0.070981 -0.800000
v 0.077942 -0.045000 -0.800000
v 0.092942 -0.019019 -0.800000
v 0.092942 0.019019 -0.800000
v 0.077942 0.045000 -0.800000
v 0.062942 0.070981 -0.800000
v 0.000000 -0.090000 -0.800000
v 0.030000 -0.090000 -0.800000
v 0.015000 0.045000 -0.700000
v 0.000000 0.045000 -0.700000
v 0.031471 -0.035490 -0.700000
v 0.038971 -0.022500 -0.700000
v 0.046471 -0.009510 -0.700000
v 0.046471 0.009510 -0.700000
v 0.038971 0.022500 -0.700000
v 0.031471 0.035490 -0.700000
v 0.000000 -0.045000 -0.700000
v 0.015000 -0.045000 -0.700000
v 0.048000 0.144000 -0.200000
v 0.000000 0.144000 -0.200000
v 0.100708 -0.113569 -0.200000
v 0.124708 -0.072000 -0.200000
v 0.148708 -0.030431 -0.200000
v 0.148708 0.030431 -0.200000
v 0.124708 0.072000 -0.200000
v 0.100708 0.113569 -0.200000
v 0.000000 -0.144000 -0.200000
v 0.048000 -0.144000 -0.200000
v 0.082942 -0.036340 0.070000
v 0.000000 -0.090000 0.050000
v 0.030000 -0.090000 0.050000
v 0.016603 0.040000 1.000000
v 0.026340 -0.034378 1.000000
v 0.034641 -0.020000 1.000000
v 0.000000 0.040000 1.000000
v 0.042942 -0.005622 1.000000
v 0.042942 0.005622 1.000000
v 0.034641 0.020000 1.000000
v 0.026340 0.034378 1.000000
v 0.000000 -0.040000 1.000000
v 0.016603 -0.040000 1.000000
v 0.030000 0.090000 0.900000
v 0.020527 0.054645 0.985355
v 0.030000 0.090000 0.950000
v 0.072942 -0.053660 0.880000
v 0.037060 -0.045099 0.985355
v 0.062942 -0.070981 0.950000
v 0.077942 -0.045000 0.880000
v 0.047324 -0.027322 0.985355
v 0.077942 -0.045000 0.950000
v 0.000000 0.090000 0.900000
v 0.000000 0.054645 0.985355
v 0.000000 0.090000 0.950000
v 0.057587 -0.009546 0.985355
v 0.082942 -0.036340 0.880000
v 0.092942 -0.019019 0.950000
v 0.057587 0.009546 0.985355
v 0.092942 0.019019 0.950000
v 0.047324 0.027322 0.985355
v 0.077942 0.045000 0.950000
v 0.037060 0.045099 0.985355
v 0.062942 0.070981 0.950000
v 0.000000 -0.054645 0.985355
v 0.000000 -0.090000 0.900000
v 0.000000 -0.090000 0.950000
v 0.020527 -0.054645 0.985355
v 0.030000 -0.090000 0.900000
v 0.030000 -0.090000 0.950000
v 0.072942 0.053660 0.070000
v 0.082942 0.036340 0.070000
v 0.072942 0.053660 0.880000
v 0.082942 0.036340 0.880000
v 0.092942 -0.019019 0.050000
v 0.077942 -0.045000 0.050000
v 0.062942 -0.070981 0.050000
v 0.092942 -0.019019 0.900000
v 0.077942 -0.045000 0.900000
v 0.062942 -0.070981 0.900000
v 0.126244 -0.061340 0.100000
v 0.116244 -0.078660 0.100000
v 0.126244 -0.061340 0.800000
v 0.116244 -0.078660 0.800000
v 0.062942 0.070981 0.050000
v 0.077942 0.045000 0.050000
v 0.092942 0.019019 0.050000
v 0.062942 0.070981 0.900000
v 0.077942 0.045000 0.900000
v 0.092942 0.019019 0.900000
v 0.116244 0.078660 0.100000
v 0.126244 0.061340 0.100000
v 0.116244 0.078660 0.800000
v 0.126244 0.061340 0.800000
v 0.433013 0.250000 -1.100000
v -0.030000 0.090000 0.050000
v -0.050000 0.150000 -0.650000
v -0.050000 0.150000 -0.550000
v -0.433013 -0.250000 -1.100000
v -0.072942 -0.053660 0.070000
v -0.104904 -0.118301 -0.650000
v -0.104904 -0.118301 -0.550000
v -0.129904 -0.075000 -0.550000
v -0.129904 -0.075000 -0.650000
v -0.154904 -0.031699 -0.550000
v -0.154904 -0.031699 -0.650000
v -0.154904 0.031699 -0.650000
v -0.154904 0.031699 -0.550000
v -0.129904 0.075000 -0.550000
v -0.129904 0.075000 -0.650000
v -0.104904 0.118301 -0.550000
v -0.104904 0.118301 -0.650000
v -0.050000 -0.150000 -0.550000
v -0.050000 -0.150000 -0.650000
v -0.048000 0.144000 -0.360000
v -0.030000 0.090000 -0.800000
v -0.050000 0.150000 -0.500000
v -0.104904 -0.118301 -0.500000
v -0.129904 -0.075000 -0.500000
v -0.154904 -0.031699 -0.500000
v -0.154904 0.031699 -0.500000
v -0.129904 0.075000 -0.500000
v -0.104904 0.118301 -0.500000
v -0.050000 -0.150000 -0.500000
v -0.100708 -0.113569 -0.360000
v -0.124708 -0.072000 -0.360000
v -0.148708 -0.030431 -0.360000
v -0.148708 0.030431 -0.360000
v -0.124708 0.072000 -0.360000
v -0.100708 0.113569 -0.360000
v -0.048000 -0.144000 -0.360000
v -0.050000 0.150000 -0.700000
v -0.104904 -0.118301 -0.700000
v -0.129904 -0.075000 -0.700000
v -0.154904 -0.031699 -0.700000
v -0.154904 0.031699 -0.700000
v -0.129904 0.075000 -0.700000
v -0.104904 0.118301 -0.700000
v -0.050000 -0.150000 -0.700000
v -0.062942 -0.070981 -0.800000
v -0.077942 -0.045000 -0.800000
v -0.092942 -0.019019 -0.800000
v -0.092942 0.019019 -0.800000
v -0.077942 0.045000 -0.800000
v -0.062942 0.070981 -0.800000
v -0.030000 -0.090000 -0.800000
v -0.015000 0.045000 -0.700000
v -0.031471 -0.035490 -0.700000
v -0.038971 -0.022500 -0.700000
v -0.046471 -0.009510 -0.700000
v -0.046471 0.009510 -0.700000
v -0.038971 0.022500 -0.700000
v -0.031471 0.035490 -0.700000
v -0.015000 -0.045000 -0.700000
v -0.048000 0.144000 -0.200000
v -0.100708 -0.113569 -0.200000
v -0.124708 -0.072000 -0.200000
v -0.148708 -0.030431 -0.200000
v -0.148708 0.030431 -0.200000
v -0.124708 0.072000 -0.200000
v -0.100708 0.113569 -0.200000
v -0.048000 -0.144000 -0.200000
v -0.082942 -0.036340 0.070000
v -0.030000 -0.090000 0.050000
v -0.016603 0.040000 1.000000
v -0.026340 -0.034378 1.000000
v -0.034641 -0.020000 1.000000
v -0.042942 -0.005622 1.000000
v -0.042942 0.005622 1.000000
v -0.034641 0.020000 1.000000
v -0.026340 0.034378 1.000000
v -0.016603 -0.040000 1.000000
v -0.030000 0.090000 0.900000
v -0.020527 0.054645 0.985355
v -0.030000 0.090000 0.950000
v -0.072942 -0.053660 0.880000
v -0.037060 -0.045099 0.985355
v -0.062942 -0.070981 0.950000
v -0.077942 -0.045000 0.880000
v -0.047324 -0.027322 0.985355
v -0.077942 -0.045000 0.950000
v -0.057587 -0.009546 0.985355
v -0.082942 -0.036340 0.880000
v -0.092942 -0.019019 0.950000
v -0.057587 0.009546 0.985355
v -0.092942 0.019019 0.950000
v -0.047324 0.027322 0.985355
v -0.077942 0.045000 0.950000
v -0.037060 0.045099 0.985355
v -0.062942 0.070981 0.950000
v -0.020527 -0.054645 0.985355
v -0.030000 -0.090000 0.900000
v -0.030000 -0.090000 0.950000
v -0.072942 0.053660 0.070000
v -0.082942 0.036340 0.070000
v -0.072942 0.053660 0.880000
v -0.082942 0.036340 0.880000
v -0.092942 -0.019019 0.050000
v -0.077942 -0.045000 0.050000
v -0.062942 -0.070981 0.050000
v -0.092942 -0.019019 0.900000
v -0.077942 -0.045000 0.900000
v -0.062942 -0.070981 0.900000
v -0.126244 -0.061340 0.100000
v -0.116244 -0.078660 0.100000
v -0.126244 -0.061340 0.800000
v -0.116244 -0.078660 0.800000
v -0.062942 0.070981 0.050000
v -0.077942 0.045000 0.050000
v -0.092942 0.019019 0.050000
v -0.062942 0.070981 0.900000
v -0.077942 0.045000 0.900000
v -0.092942 0.019019 0.900000
v -0.116244 0.078660 0.100000
v -0.126244 0.061340 0.100000
v -0.116244 0.078660 0.800000
v -0.126244 0.061340 0.800000
v -0.433013 0.250000 -1.100000
vn 0.9899 0.1414 -0.0000
vn -0.0000 0.8437 0.5369
vn -0.0000 -0.7894 -0.6139
vn -0.3725 -0.9280 -0.0000
vn 0.7306 -0.4218 0.5369
vn -0.6836 0.3947 -0.6139
vn 0.6174 0.7866 -0.0000
vn -1.0000 -0.0000 -0.0000
vn -0.0000 -0.8437 0.5369
vn -0.0000 0.7894 -0.6139
vn 0.3437 0.9391 -0.0000
vn 0.6414 0.7672 -0.0000
vn 0.9851 -0.1719 -0.0000
vn 0.9851 0.1719 -0.0000
vn 0.6414 -0.7672 -0.0000
vn 0.5000 -0.8660 -0.0000
vn 0.8658 0.4999 0.0214
vn 0.9656 0.2590 0.0226
vn 0.9657 0.2585 0.0224
vn 0.2590 0.9656 0.0224
vn 0.2585 0.9657 0.0226
vn 0.7071 0.7068 0.0226
vn 0.7068 0.7071 0.0224
vn -0.0000 0.9998 0.0214
vn 0.9656 -0.2590 0.0226
vn 0.9657 -0.2585 0.0224
vn 0.8658 -0.4999 0.0214
vn 0.7071 -0.7068 0.0226
vn 0.7068 -0.7071 0.0224
vn 0.2585 -0.9657 0.0226
vn 0.2590 -0.9656 0.0224
vn -0.0000 -0.9998 0.0214
vn 0.7071 0.7071 -0.0000
vn 0.2588 0.9659 -0.0000
vn 0.9659 0.2588 -0.0000
vn 0.8660 0.5000 -0.0000
vn 0.8660 -0.5000 -0.0000
vn 0.9659 -0.2588 -0.0000
vn 0.7071 -0.7071 -0.0000
vn -0.0000 -1.0000 -0.0000
vn -0.0000 1.0000 -0.0000
vn 0.5951 0.6007 -0.5339
vn 0.7426 0.4287 -0.5145
vn 0.6016 0.5943 -0.5337
vn 0.8177 0.2150 -0.5339
vn 0.8177 -0.2150 -0.5339
vn 0.8155 -0.2238 -0.5337
vn 0.8155 0.2238 -0.5337
vn -0.0000 0.8575 -0.5145
vn 0.2227 0.8157 -0.5339
vn 0.2139 0.8182 -0.5337
vn 0.7426 -0.4287 -0.5145
vn 0.2227 -0.8157 -0.5339
vn -0.0000 -0.8575 -0.5145
vn 0.2139 -0.8182 -0.5337
vn 0.5951 -0.6007 -0.5339
vn 0.6016 -0.5943 -0.5337
vn -0.0000 0.9119 -0.4104
vn -0.2298 0.8742 -0.4278
vn -0.2373 0.8721 -0.4280
vn -0.6421 0.6361 -0.4278
vn -0.6366 0.6415 -0.4280
vn -0.7897 0.4560 -0.4104
vn -0.8719 0.2381 -0.4278
vn -0.8739 0.2306 -0.4280
vn -0.8719 -0.2381 -0.4278
vn -0.8739 -0.2306 -0.4280
vn -0.7897 -0.4560 -0.4104
vn -0.6421 -0.6361 -0.4278
vn -0.6366 -0.6415 -0.4280
vn -0.2298 -0.8742 -0.4278
vn -0.2373 -0.8721 -0.4280
vn -0.0000 -0.9119 -0.4104
vn -0.0000 -0.0000 -1.0000
vn -0.0000 -0.9943 0.1062
vn 0.2582 -0.9599 0.1095
vn 0.7021 -0.7036 0.1095
vn 0.8611 -0.4972 0.1062
vn 0.9604 -0.2563 0.1095
vn 0.9604 0.2563 0.1095
vn 0.8611 0.4972 0.1062
vn 0.7021 0.7036 0.1095
vn 0.2582 0.9599 0.1095
vn -0.0000 0.9943 0.1062
vn 0.2560 0.9600 0.1136
vn 0.9594 0.2583 0.1136
vn 0.9594 -0.2583 0.1136
vn 0.7034 0.7017 0.1136
vn 0.7034 -0.7017 0.1136
vn 0.2560 -0.9600 0.1136
vn -0.0000 -0.0000 1.0000
vn 0.6711 -0.1798 0.7193
vn 0.6124 -0.3536 0.7071
vn 0.4913 -0.4913 0.7193
vn -0.0000 0.7071 0.7071
vn 0.1798 0.6711 0.7193
vn 0.2588 -0.9659 -0.0000
vn 0.1798 -0.6711 0.7193
vn -0.0000 -0.7071 0.7071
vn 0.4913 0.4913 0.7193
vn 0.6124 0.3536 0.7071
vn 0.5000 0.8660 -0.0000
vn 0.6711 0.1798 0.7193
vn -0.5000 0.8660 -0.0000
vn 0.7344 -0.4240 0.5300
vn 0.4456 -0.2572 -0.8575
vn -0.5000 -0.8660 -0.0000
vn 0.7344 0.4240 0.5300
vn 0.4456 0.2572 -0.8575
vn 0.7306 0.4218 0.5369
vn -0.3725 0.9280 -0.0000
vn -0.6836 -0.3947 -0.6139
vn 0.6174 -0.7866 -0.0000
vn 0.9899 -0.1414 -0.0000
vn -0.9899 0.1414 -0.0000
vn 0.3725 -0.9280 -0.0000
vn -0.7306 -0.4218 0.5369
vn 0.6836 0.3947 -0.6139
vn -0.6174 0.7866 -0.0000
vn -0.3437 0.9391 -0.0000
vn -0.6414 0.7672 -0.0000
vn -0.9851 -0.1719 -0.0000
vn -0.9851 0.1719 -0.0000
vn -0.6414 -0.7672 -0.0000
vn -0.8658 0.4999 0.0214
vn -0.9657 0.2585 0.0224
vn -0.9656 0.2590 0.0226
vn -0.2590 0.9656 0.0224
vn -0.7068 0.7071 0.0224
vn -0.7071 0.7068 0.0226
vn -0.2585 0.9657 0.0226
vn -0.9657 -0.2585 0.0224
vn -0.9656 -0.2590 0.0226
vn -0.8658 -0.4999 0.0214
vn -0.7068 -0.7071 0.0224
vn -0.7071 -0.7068 0.0226
vn -0.2590 -0.9656 0.0224
vn -0.2585 -0.9657 0.0226
vn -0.7071 0.7071 -0.0000
vn -0.2588 0.9659 -0.0000
vn -0.9659 0.2588 -0.0000
vn -0.8660 0.5000 -0.0000
vn -0.8660 -0.5000 -0.0000
vn -0.9659 -0.2588 -0.0000
vn -0.7071 -0.7071 -0.0000
vn -0.5951 0.6007 -0.5339
vn -0.6016 0.5943 -0.5337
vn -0.7426 0.4287 -0.5145
vn -0.8177 0.2150 -0.5339
vn -0.8155 0.2238 -0.5337
vn -0.8155 -0.2238 -0.5337
vn -0.8177 -0.2150 -0.5339
vn -0.2139 0.8182 -0.5337
vn -0.2227 0.8157 -0.5339
vn -0.7426 -0.4287 -0.5145
vn -0.2227 -0.8157 -0.5339
vn -0.2139 -0.8182 -0.5337
vn -0.5951 -0.6007 -0.5339
vn -0.6016 -0.5943 -0.5337
vn 0.2373 0.8721 -0.4280
vn 0.2298 0.8742 -0.4278
vn 0.6366 0.6415 -0.4280
vn 0.6421 0.6361 -0.4278
vn 0.7897 0.4560 -0.4104
vn 0.8739 0.2306 -0.4280
vn 0.8719 0.2381 -0.4278
vn 0.8739 -0.2306 -0.4280
vn 0.8719 -0.2381 -0.4278
vn 0.7897 -0.4560 -0.4104
vn 0.6366 -0.6415 -0.4280
vn 0.6421 -0.6361 -0.4278
vn 0.2373 -0.8721 -0.4280
vn 0.2298 -0.8742 -0.4278
vn -0.2582 -0.9599 0.1095
vn -0.7021 -0.7036 0.1095
vn -0.8611 -0.4972 0.1062
vn -0.9604 -0.2563 0.1095
vn -0.9604 0.2563 0.1095
vn -0.8611 0.4972 0.1062
vn -0.7021 0.7036 0.1095
vn -0.2582 0.9599 0.1095
vn -0.2560 0.9600 0.1136
vn -0.9594 -0.2583 0.1136
vn -0.9594 0.2583 0.1136
vn -0.7034 0.7017 0.1136
vn -0.7034 -0.7017 0.1136
vn -0.2560 -0.9600 0.1136
vn -0.6711 -0.1798 0.7193
vn -0.6124 -0.3536 0.7071
vn -0.4913 -0.4913 0.7193
vn -0.1798 0.6711 0.7193
vn -0.2588 -0.9659 -0.0000
vn -0.1798 -0.6711 0.7193
vn -0.4913 0.4913 0.7193
vn -0.6124 0.3536 0.7071
vn -0.6711 0.1798 0.7193
vn -0.7344 -0.4240 0.5300
vn -0.4456 -0.2572 -0.8575
vn -0.7344 0.4240 0.5300
vn -0.4456 0.2572 -0.8575
vn -0.7306 0.4218 0.5369
vn 0.3725 0.9280 -0.0000
vn 0.6836 -0.3947 -0.6139
vn -0.6174 -0.7866 -0.0000
vn -0.9899 -0.1414 -0.0000
vt -0.000000 1.000000
vt 0.219007 0.624554
vt 0.226750 0.693579
vt 0.183783 0.617331
vt 0.232695 0.731328
vt 0.389079 0.646524
vt 0.432782 0.619401
vt 0.418252 0.666506
vt 0.392258 0.614142
vt 0.387073 0.666914
vt 0.363381 0.657616
vt 0.356339 0.616067
vt 0.736675 0.279971
vt 0.736675 0.000000
vt 0.759732 0.036232
vt 0.471656 0.618453
vt 0.507406 0.608465
vt 0.736675 1.000000
vt 0.469950 0.693821
vt 0.467460 0.736418
vt 0.255621 0.622207
vt 0.271667 0.665867
vt 0.325507 0.656425
vt 0.328095 0.615249
vt 0.291212 0.584903
vt 0.290686 0.497114
vt 0.320353 0.497109
vt 0.323481 0.583704
vt 0.218892 0.588355
vt 0.221730 0.494867
vt 0.260590 0.496602
vt 0.257440 0.587052
vt 0.186933 0.586104
vt 0.190696 0.492386
vt 0.357999 0.496179
vt 0.359062 0.584076
vt 0.392448 0.583427
vt 0.387725 0.494170
vt 0.418013 0.491525
vt 0.427390 0.583028
vt 0.456686 0.486509
vt 0.467635 0.581047
vt 0.487853 0.481264
vt 0.501256 0.575373
vt 0.282203 0.695525
vt 0.256051 0.714338
vt 0.328024 0.682731
vt 0.306051 0.688749
vt 0.300770 0.666235
vt 0.381634 0.689975
vt 0.358051 0.683786
vt 0.432040 0.717536
vt 0.405340 0.696380
vt 0.441826 0.742832
vt 0.246636 0.734278
vt 0.293536 0.615737
vt 0.320253 0.740027
vt 0.307434 0.743981
vt 0.350657 0.737207
vt 0.333178 0.736536
vt 0.293413 0.753975
vt 0.285320 0.764039
vt 0.363482 0.741679
vt 0.397172 0.769561
vt 0.389867 0.758194
vt 0.376188 0.746631
vt 0.358824 0.794789
vt 0.357275 0.788594
vt 0.352790 0.783260
vt 0.347528 0.781362
vt 0.343090 0.778305
vt 0.336872 0.777753
vt 0.332130 0.779727
vt 0.327021 0.781219
vt 0.321924 0.786061
vt 0.320113 0.792130
vt 0.466081 0.380587
vt 0.438891 0.389152
vt 0.405105 0.396273
vt 0.378698 0.400032
vt 0.352389 0.403159
vt 0.319886 0.404290
vt 0.293434 0.402863
vt 0.266760 0.400901
vt 0.232753 0.395649
vt 0.204392 0.388975
vt 0.261211 0.247037
vt 0.273885 0.250172
vt 0.326674 0.260725
vt 0.337038 0.260422
vt 0.290458 0.252559
vt 0.308185 0.255583
vt 0.355907 0.254455
vt 0.373680 0.250797
vt 0.389865 0.248118
vt 0.402068 0.244578
vt 0.340152 0.017395
vt 0.337187 0.016655
vt 0.333431 0.013652
vt 0.329134 0.010911
vt 0.327186 0.007472
vt 0.326929 0.000000
vt 0.356291 0.009147
vt 0.352743 0.014175
vt 0.349608 0.015943
vt 0.344537 0.016200
vt 0.338934 0.045201
vt 0.339672 0.034451
vt 0.346449 0.034639
vt 0.346019 0.046837
vt 0.340094 0.022781
vt 0.345469 0.022097
vt 0.353416 0.034723
vt 0.354570 0.047932
vt 0.351174 0.021771
vt 0.294508 0.035305
vt 0.300125 0.017984
vt 0.308988 0.024363
vt 0.303004 0.038036
vt 0.316391 0.003573
vt 0.320245 0.011490
vt 0.364491 0.045899
vt 0.362147 0.032778
vt 0.370056 0.029542
vt 0.372495 0.044084
vt 0.356468 0.019752
vt 0.361772 0.015235
vt 0.313167 0.041751
vt 0.318126 0.028902
vt 0.325254 0.031109
vt 0.321859 0.043558
vt 0.324908 0.016148
vt 0.330345 0.018924
vt 0.331708 0.033436
vt 0.329548 0.044400
vt 0.335186 0.021744
vt 0.317848 0.049337
vt 0.315368 0.069995
vt 0.310004 0.193408
vt 0.299340 0.241566
vt 0.348881 0.054906
vt 0.349955 0.064072
vt 0.347136 0.068804
vt 0.342567 0.049849
vt 0.345373 0.052307
vt 0.341822 0.242169
vt 0.350718 0.190237
vt 0.354212 0.190976
vt 0.364603 0.239996
vt 0.321792 0.243398
vt 0.324637 0.049002
vt 0.318724 0.072771
vt 0.313523 0.192544
vt 0.297825 0.646384
s 1
f 1/1/1 4/2/1 3/3/1
f 5/4/2 4/2/2 1/1/2
f 6/5/3 1/1/3 3/3/3
f 7/6/4 10/7/4 9/8/4
f 11/9/5 10/7/5 7/6/5
f 12/10/6 7/6/6 9/8/6
f 7/6/7 14/11/7 13/12/7
f 13/12/5 11/9/5 7/6/5
f 7/6/6 12/10/6 14/11/6
f 21/13/8 24/14/8 23/15/8
f 25/16/9 24/17/9 21/18/9
f 26/19/10 21/18/10 23/20/10
f 3/3/11 4/2/11 19/21/12 20/22/12
f 13/12/13 14/11/13 15/23/14 16/24/14
f 9/8/15 10/7/15 25/16/16 26/19/16
f 35/25/17 44/26/17 43/27/18 34/28/19
f 29/29/20 27/30/21 45/31/22 36/32/23
f 30/33/24 39/34/24 27/30/21 29/29/20
f 34/28/19 43/27/18 42/35/25 33/36/26
f 36/32/23 45/31/22 44/26/17 35/25/17
f 32/37/27 41/38/27 40/39/28 31/40/29
f 31/40/29 40/39/28 47/41/30 38/42/31
f 38/42/31 47/41/30 46/43/32 37/44/32
f 33/36/26 42/35/25 41/38/27 32/37/27
f 55/45/33 48/46/34 3/3/11 20/22/12
f 53/47/35 54/48/36 18/49/36 15/23/14
f 51/50/37 52/51/38 14/11/13 12/10/37
f 52/51/38 53/47/35 15/23/14 14/11/13
f 57/52/16 50/53/39 9/8/15 26/19/16
f 54/48/36 55/45/33 20/22/12 18/49/36
f 50/53/39 51/50/37 12/10/37 9/8/15
f 56/54/40 57/52/40 26/19/40 23/20/40
f 48/46/34 49/55/41 6/5/41 3/3/11
f 29/29/20 4/2/11 5/4/41 30/33/24
f 35/25/17 17/56/36 19/21/12 36/32/23
f 34/28/19 16/24/14 17/56/36 35/25/17
f 33/36/26 13/12/13 16/24/14 34/28/19
f 32/37/27 11/9/37 13/12/13 33/36/26
f 31/40/29 10/7/15 11/9/37 32/37/27
f 38/42/31 25/16/16 10/7/15 31/40/29
f 37/44/32 24/17/40 25/16/40 38/42/31
f 36/32/23 19/21/12 4/2/11 29/29/20
f 55/45/42 54/48/43 63/57/43 64/58/44
f 53/47/45 52/51/46 61/59/47 62/60/48
f 49/55/49 48/46/50 28/61/51 58/62/49
f 54/48/43 53/47/45 62/60/48 63/57/43
f 48/46/50 55/45/42 64/58/44 28/61/51
f 52/51/46 51/50/52 60/63/52 61/59/47
f 57/52/53 56/54/54 65/64/54 66/65/55
f 50/53/56 57/52/53 66/65/55 59/66/57
f 51/50/52 50/53/56 59/66/57 60/63/52
f 75/67/58 76/68/59 66/65/60 65/64/58
f 76/68/59 69/69/61 59/66/62 66/65/60
f 69/69/61 70/70/63 60/63/63 59/66/62
f 70/70/63 71/71/64 61/59/65 60/63/63
f 71/71/64 72/72/66 62/60/67 61/59/65
f 72/72/66 73/73/68 63/57/68 62/60/67
f 73/73/68 74/74/69 64/58/70 63/57/68
f 74/74/69 67/75/71 28/61/72 64/58/70
f 67/75/71 68/76/73 58/62/73 28/61/72
f 69/69/74 76/68/74 75/67/74 68/76/74 67/75/74 74/74/74 73/73/74 72/72/74 71/71/74 70/70/74
f 85/77/75 46/43/32 47/41/30 86/78/76
f 86/78/76 47/41/30 40/39/28 79/79/77
f 79/79/77 40/39/28 41/38/27 80/80/78
f 80/80/78 41/38/27 42/35/25 81/81/79
f 81/81/79 42/35/25 43/27/18 82/82/80
f 82/82/80 43/27/18 44/26/17 83/83/81
f 83/83/81 44/26/17 45/31/22 84/84/82
f 84/84/82 45/31/22 27/30/21 77/85/83
f 77/85/83 27/30/21 39/34/24 78/86/84
f 78/86/84 22/87/84 2/88/85 77/85/83
f 82/82/80 143/89/86 131/90/87 81/81/79
f 84/84/82 141/91/88 142/92/81 83/83/81
f 80/80/78 132/93/78 133/94/89 79/79/77
f 79/79/77 133/94/89 89/95/90 86/78/76
f 86/78/76 89/95/90 88/96/75 85/77/75
f 81/81/79 131/90/87 132/93/78 80/80/78
f 77/85/83 2/88/85 141/91/88 84/84/82
f 83/83/81 142/92/81 143/89/86 82/82/80
f 94/97/91 95/98/91 96/99/91 97/100/91 90/101/91 93/102/91 98/103/91 99/104/91 91/105/91 92/106/91
f 134/107/38 114/108/38 108/109/37 135/110/37
f 114/108/92 112/111/92 107/112/93 108/109/93
f 135/110/37 108/109/37 105/113/37 136/114/37
f 108/109/93 107/112/93 104/115/94 105/113/94
f 109/116/41 111/117/41 102/118/34 100/119/34
f 111/117/95 110/120/95 101/121/96 102/118/96
f 125/122/97 126/123/97 123/124/40 122/125/40
f 126/123/98 124/126/98 121/127/99 123/124/99
f 144/128/36 120/129/36 118/130/36 145/131/36
f 120/129/100 119/132/100 117/133/101 118/130/101
f 100/119/34 102/118/34 120/129/102 144/128/102
f 102/118/96 101/121/96 119/132/100 120/129/100
f 145/131/36 118/130/36 116/134/35 146/135/35
f 118/130/101 117/133/101 115/136/103 116/134/103
f 146/135/35 116/134/35 114/108/38 134/107/38
f 116/134/103 115/136/103 112/111/92 114/108/92
f 136/114/16 105/113/16 126/123/97 125/122/97
f 105/113/94 104/115/94 124/126/98 126/123/98
f 22/87/84 109/116/41 100/119/34 2/88/85
f 110/120/95 93/102/95 90/101/96 101/121/96
f 101/121/96 90/101/96 97/100/100 119/132/100
f 2/88/85 100/119/34 144/128/102 141/91/88
f 107/112/93 92/106/93 91/105/94 104/115/94
f 104/115/94 91/105/94 99/104/98 124/126/98
f 133/94/89 136/114/16 125/122/97 89/95/90
f 112/111/92 94/97/92 92/106/93 107/112/93
f 115/136/103 95/98/103 94/97/92 112/111/92
f 143/89/86 146/135/35 134/107/38 131/90/87
f 117/133/101 96/99/101 95/98/103 115/136/103
f 119/132/100 97/100/100 96/99/101 117/133/101
f 89/95/90 125/122/97 122/125/40 88/96/75
f 124/126/98 99/104/98 98/103/99 121/127/99
f 129/137/104 149/138/104 147/139/104 127/140/104
f 103/141/105 140/142/105 139/143/105 113/144/105 106/145/105
f 87/146/106 137/147/106 138/148/106 8/149/106
f 113/144/37 134/107/38 135/110/37 106/145/37
f 106/145/37 135/110/37 136/114/37 103/141/37
f 103/141/37 136/114/37 133/94/89 8/149/37
f 87/146/37 131/90/87 134/107/38 113/144/37
f 137/147/37 139/143/37 140/142/37 138/148/37
f 8/149/107 138/148/107 140/142/107 103/141/107
f 128/150/36 143/89/86 142/92/81 141/91/88 127/140/36
f 113/144/102 139/143/102 137/147/102 87/146/102
f 145/131/36 146/135/35 130/151/36 129/137/36 144/128/36
f 130/151/108 150/152/108 149/138/108 129/137/108
f 127/140/36 141/91/88 144/128/36 129/137/36
f 130/151/36 146/135/35 143/89/86 128/150/36
f 147/139/36 149/138/36 150/152/36 148/153/36
f 147/139/109 148/153/109 128/150/109 127/140/109
f 128/150/16 148/153/16 150/152/16 130/151/16
f 8/149/37 133/94/89 132/93/78 131/90/87 87/146/37
f 151/154/110 19/21/110 17/56/110
f 20/22/111 19/21/111 151/154/111
f 18/49/112 20/22/112 151/154/112
f 15/23/112 18/49/112 151/154/112
f 16/24/113 15/23/113 151/154/113
f 17/56/110 16/24/110 151/154/110
f 21/18/114 26/19/114 25/16/114
f 1/1/115 153/3/115 154/2/115
f 5/4/2 1/1/2 154/2/2
f 6/5/3 153/3/3 1/1/3
f 155/6/116 157/8/116 158/7/116
f 159/9/117 155/6/117 158/7/117
f 160/10/118 157/8/118 155/6/118
f 155/6/119 161/12/119 162/11/119
f 161/12/117 155/6/117 159/9/117
f 155/6/118 162/11/118 160/10/118
f 169/16/9 21/18/9 24/17/9
f 170/19/10 23/20/10 21/18/10
f 153/3/120 168/22/121 167/21/121 154/2/120
f 161/12/122 164/24/123 163/23/123 162/11/122
f 157/8/124 170/19/107 169/16/107 158/7/124
f 178/25/125 177/28/126 184/27/127 185/26/125
f 173/29/128 179/32/129 186/31/130 171/30/131
f 30/33/24 173/29/128 171/30/131 39/34/24
f 177/28/126 176/36/132 183/35/133 184/27/127
f 179/32/129 178/25/125 185/26/125 186/31/130
f 175/37/134 174/40/135 181/39/136 182/38/134
f 174/40/135 180/42/137 187/41/138 181/39/136
f 180/42/137 37/44/32 46/43/32 187/41/138
f 176/36/132 175/37/134 182/38/134 183/35/133
f 194/45/139 168/22/121 153/3/120 188/46/140
f 192/47/141 163/23/123 166/49/142 193/48/142
f 190/50/143 160/10/143 162/11/122 191/51/144
f 191/51/144 162/11/122 163/23/123 192/47/141
f 195/52/107 170/19/107 157/8/124 189/53/145
f 193/48/142 166/49/142 168/22/121 194/45/139
f 189/53/145 157/8/124 160/10/143 190/50/143
f 56/54/40 23/20/40 170/19/40 195/52/40
f 188/46/140 153/3/120 6/5/41 49/55/41
f 173/29/128 30/33/24 5/4/41 154/2/120
f 178/25/125 179/32/129 167/21/121 165/56/142
f 177/28/126 178/25/125 165/56/142 164/24/123
f 176/36/132 177/28/126 164/24/123 161/12/122
f 175/37/134 176/36/132 161/12/122 159/9/143
f 174/40/135 175/37/134 159/9/143 158/7/124
f 180/42/137 174/40/135 158/7/124 169/16/107
f 37/44/32 180/42/137 169/16/40 24/17/40
f 179/32/129 173/29/128 154/2/120 167/21/121
f 194/45/146 201/58/147 200/57/148 193/48/148
f 192/47/149 199/60/150 198/59/151 191/51/152
f 49/55/49 58/62/49 172/61/153 188/46/154
f 193/48/148 200/57/148 199/60/150 192/47/149
f 188/46/154 172/61/153 201/58/147 194/45/146
f 191/51/152 198/59/151 197/63/155 190/50/155
f 195/52/156 202/65/157 65/64/54 56/54/54
f 189/53/158 196/66/159 202/65/157 195/52/156
f 190/50/155 197/63/155 196/66/159 189/53/158
f 75/67/58 65/64/58 202/65/160 210/68/161
f 210/68/161 202/65/160 196/66/162 204/69/163
f 204/69/163 196/66/162 197/63/164 205/70/164
f 205/70/164 197/63/164 198/59/165 206/71/166
f 206/71/166 198/59/165 199/60/167 207/72/168
f 207/72/168 199/60/167 200/57/169 208/73/169
f 208/73/169 200/57/169 201/58/170 209/74/171
f 209/74/171 201/58/170 172/61/172 203/75/173
f 203/75/173 172/61/172 58/62/73 68/76/73
f 204/69/74 205/70/74 206/71/74 207/72/74 208/73/74 209/74/74 203/75/74 68/76/74 75/67/74 210/68/74
f 85/77/75 218/78/174 187/41/138 46/43/32
f 218/78/174 212/79/175 181/39/136 187/41/138
f 212/79/175 213/80/176 182/38/134 181/39/136
f 213/80/176 214/81/177 183/35/133 182/38/134
f 214/81/177 215/82/178 184/27/127 183/35/133
f 215/82/178 216/83/179 185/26/125 184/27/127
f 216/83/179 217/84/180 186/31/130 185/26/125
f 217/84/180 211/85/181 171/30/131 186/31/130
f 211/85/181 78/86/84 39/34/24 171/30/131
f 78/86/84 211/85/181 152/88/182 22/87/84
f 215/82/178 214/81/177 254/90/183 266/89/184
f 217/84/180 216/83/179 265/92/179 264/91/185
f 213/80/176 212/79/175 256/94/186 255/93/176
f 212/79/175 218/78/174 220/95/187 256/94/186
f 218/78/174 85/77/75 88/96/75 220/95/187
f 214/81/177 213/80/176 255/93/176 254/90/183
f 211/85/181 217/84/180 264/91/185 152/88/182
f 216/83/179 215/82/178 266/89/184 265/92/179
f 224/97/91 223/106/91 222/105/91 228/104/91 98/103/91 93/102/91 221/101/91 227/100/91 226/99/91 225/98/91
f 257/107/144 258/110/143 237/109/143 240/108/144
f 240/108/188 237/109/189 236/112/189 238/111/188
f 258/110/143 259/114/143 234/113/143 237/109/143
f 237/109/189 234/113/190 233/115/190 236/112/189
f 109/116/41 229/119/140 231/118/140 111/117/41
f 111/117/95 231/118/191 230/121/191 110/120/95
f 248/122/192 122/125/40 123/124/40 249/123/192
f 249/123/193 123/124/99 121/127/99 247/126/193
f 267/128/142 268/131/142 244/130/142 246/129/142
f 246/129/194 244/130/195 243/133/195 245/132/194
f 229/119/140 267/128/104 246/129/104 231/118/140
f 231/118/191 246/129/194 245/132/194 230/121/191
f 268/131/142 269/135/141 242/134/141 244/130/142
f 244/130/195 242/134/196 241/136/196 243/133/195
f 269/135/141 257/107/144 240/108/144 242/134/141
f 242/134/196 240/108/188 238/111/188 241/136/196
f 259/114/107 248/122/192 249/123/192 234/113/107
f 234/113/190 249/123/193 247/126/193 233/115/190
f 22/87/84 152/88/182 229/119/140 109/116/41
f 110/120/95 230/121/191 221/101/191 93/102/95
f 230/121/191 245/132/194 227/100/194 221/101/191
f 152/88/182 264/91/185 267/128/104 229/119/140
f 236/112/189 233/115/190 222/105/190 223/106/189
f 233/115/190 247/126/193 228/104/193 222/105/190
f 256/94/186 220/95/187 248/122/192 259/114/107
f 238/111/188 236/112/189 223/106/189 224/97/188
f 241/136/196 238/111/188 224/97/188 225/98/196
f 266/89/184 254/90/183 257/107/144 269/135/141
f 243/133/195 241/136/196 225/98/196 226/99/195
f 245/132/194 243/133/195 226/99/195 227/100/194
f 220/95/187 88/96/75 122/125/40 248/122/192
f 247/126/193 121/127/99 98/103/99 228/104/193
f 252/137/102 250/140/102 270/139/102 272/138/102
f 232/141/197 235/145/197 239/144/197 262/143/197 263/142/197
f 219/146/198 156/149/198 261/148/198 260/147/198
f 239/144/143 235/145/143 258/110/143 257/107/144
f 235/145/143 232/141/143 259/114/143 258/110/143
f 232/141/143 156/149/143 256/94/186 259/114/143
f 219/146/143 239/144/143 257/107/144 254/90/183
f 260/147/143 261/148/143 263/142/143 262/143/143
f 156/149/16 232/141/16 263/142/16 261/148/16
f 251/150/142 250/140/142 264/91/185 265/92/179 266/89/184
f 239/144/104 219/146/104 260/147/104 262/143/104
f 268/131/142 267/128/142 252/137/142 253/151/142 269/135/141
f 253/151/199 252/137/199 272/138/199 273/152/199
f 250/140/142 252/137/142 267/128/142 264/91/185
f 253/151/142 251/150/142 266/89/184 269/135/141
f 270/139/142 271/153/142 273/152/142 272/138/142
f 270/139/200 250/140/200 251/150/200 271/153/200
f 251/150/107 253/151/107 273/152/107 271/153/107
f 156/149/143 219/146/143 254/90/183 255/93/176 256/94/186
f 274/154/201 165/56/201 167/21/201
f 168/22/202 274/154/202 167/21/202
f 166/49/203 274/154/203 168/22/203
f 163/23/203 274/154/203 166/49/203
f 164/24/204 274/154/204 163/23/204
f 165/56/201 274/154/201 164/24/201
f 21/18/205 169/16/205 170/19/205
g Indicator_Cylinder.001
v 0.016603 0.040000 1.000000
v 0.026340 -0.034378 1.000000
v 0.034641 -0.020000 1.000000
v 0.000000 0.040000 1.000000
v 0.042942 -0.005622 1.000000
v 0.042942 0.005622 1.000000
v 0.034641 0.020000 1.000000
v 0.026340 0.034378 1.000000
v 0.000000 -0.040000 1.000000
v 0.016603 -0.040000 1.000000
v 0.034641 -0.020000 1.050000
v 0.042942 -0.005622 1.050000
v 0.026340 -0.034378 1.050000
v 0.016603 0.040000 1.050000
v 0.000000 0.040000 1.050000
v 0.000000 -0.040000 1.050000
v 0.016603 -0.040000 1.050000
v 0.034641 0.020000 1.050000
v 0.026340 0.034378 1.050000
v 0.042942 0.005622 1.050000
v 0.030000 0.090000 -0.800000
v 0.000000 0.090000 -0.800000
v 0.062942 -0.070981 -0.800000
v 0.077942 -0.045000 -0.800000
v 0.092942 -0.019019 -0.800000
v 0.092942 0.019019 -0.800000
v 0.077942 0.045000 -0.800000
v 0.062942 0.070981 -0.800000
v 0.000000 -0.090000 -0.800000
v 0.030000 -0.090000 -0.800000
v 0.062942 -0.070981 -0.900000
v 0.030000 -0.090000 -0.900000
v 0.092942 0.019019 -0.900000
v 0.092942 -0.019019 -0.900000
v 0.030000 0.090000 -0.900000
v 0.062942 0.070981 -0.900000
v 0.000000 -0.090000 -0.900000
v 0.077942 0.045000 -0.900000
v 0.077942 -0.045000 -0.900000
v 0.000000 0.090000 -0.900000
v -0.016603 0.040000 1.000000
v -0.026340 -0.034378 1.000000
v -0.034641 -0.020000 1.000000
v -0.042942 -0.005622 1.000000
v -0.042942 0.005622 1.000000
v -0.034641 0.020000 1.000000
v -0.026340 0.034378 1.000000
v -0.016603 -0.040000 1.000000
v -0.034641 -0.020000 1.050000
v -0.042942 -0.005622 1.050000
v -0.026340 -0.034378 1.050000
v -0.016603 0.040000 1.050000
v -0.016603 -0.040000 1.050000
v -0.034641 0.020000 1.050000
v -0.026340 0.034378 1.050000
v -0.042942 0.005622 1.050000
v -0.030000 0.090000 -0.800000
v -0.062942 -0.070981 -0.800000
v -0.077942 -0.045000 -0.800000
v -0.092942 -0.019019 -0.800000
v -0.092942 0.019019 -0.800000
v -0.077942 0.045000 -0.800000
v -0.062942 0.070981 -0.800000
v -0.030000 -0.090000 -0.800000
v -0.062942 -0.070981 -0.900000
v -0.030000 -0.090000 -0.900000
v -0.092942 0.019019 -0.900000
v -0.092942 -0.019019 -0.900000
v -0.030000 0.090000 -0.900000
v -0.062942 0.070981 -0.900000
v -0.077942 0.045000 -0.900000
v -0.077942 -0.045000 -0.900000
vn -0.0000 -0.0000 -1.0000
vn -0.0000 -0.0000 1.0000
vn 0.9659 0.2588 -0.0000
vn 0.8660 0.5000 -0.0000
vn -0.0000 -1.0000 -0.0000
vn 0.8660 -0.5000 -0.0000
vn 0.9659 -0.2588 -0.0000
vn 0.7071 0.7071 -0.0000
vn 0.7071 -0.7071 -0.0000
vn 0.5000 -0.8660 -0.0000
vn 0.5000 0.8660 -0.0000
vn -0.0000 1.0000 -0.0000
vn -1.0000 -0.0000 -0.0000
vn 0.2588 0.9659 -0.0000
vn -0.9659 0.2588 -0.0000
vn -0.8660 0.5000 -0.0000
vn -0.8660 -0.5000 -0.0000
vn -0.9659 -0.2588 -0.0000
vn -0.7071 0.7071 -0.0000
vn -0.7071 -0.7071 -0.0000
vn -0.5000 -0.8660 -0.0000
vn -0.5000 0.8660 -0.0000
vn -0.2588 0.9659 -0.0000
vt 0.419167 0.000065
vt 0.419167 0.000194
s 1
f 279/155/206 277/155/206 276/155/206 284/155/206 283/155/206 278/155/206 275/155/206 282/155/206 281/155/206 280/155/206
f 286/155/207 294/155/207 292/155/207 293/155/207 288/155/207 289/155/207 290/155/207 291/155/207 287/155/207 285/155/207
f 280/155/208 281/155/209 292/155/209 294/155/208
f 283/155/210 284/155/210 291/155/210 290/155/210
f 277/155/211 279/155/212 286/155/212 285/155/211
f 279/155/212 280/155/208 294/155/208 286/155/212
f 281/155/209 282/155/213 293/155/213 292/155/209
f 276/155/214 277/155/211 285/155/211 287/155/214
f 284/155/215 276/155/214 287/155/214 291/155/215
f 282/155/213 275/155/216 288/155/216 293/155/213
f 275/155/217 278/155/217 289/155/217 288/155/217
f 278/155/218 283/155/218 290/155/218 289/155/218
f 297/156/207 298/156/207 299/156/207 300/156/207 301/156/207 302/156/207 295/156/207 296/156/207 303/156/207 304/156/207
f 305/156/206 306/156/206 311/156/206 314/156/206 309/156/206 310/156/206 312/156/206 307/156/206 308/156/206 313/156/206
f 301/156/209 300/156/208 307/156/208 312/156/209
f 295/156/219 302/156/213 310/156/213 309/156/219
f 303/156/218 296/156/218 314/156/218 311/156/218
f 299/156/212 298/156/211 313/156/211 308/156/212
f 304/156/210 303/156/210 311/156/210 306/156/210
f 297/156/214 304/156/215 306/156/215 305/156/214
f 298/156/211 297/156/214 305/156/214 313/156/211
f 302/156/213 301/156/209 312/156/209 310/156/213
f 300/156/208 299/156/212 308/156/212 307/156/208
f 296/156/217 295/156/219 309/156/219 314/156/217
f 318/155/206 319/155/206 320/155/206 321/155/206 315/155/206 278/155/206 283/155/206 322/155/206 316/155/206 317/155/206
f 324/155/207 323/155/207 325/155/207 327/155/207 290/155/207 289/155/207 326/155/207 329/155/207 328/155/207 330/155/207
f 319/155/220 330/155/220 328/155/221 320/155/221
f 283/155/210 290/155/210 327/155/210 322/155/210
f 317/155/222 323/155/222 324/155/223 318/155/223
f 318/155/223 324/155/223 330/155/220 319/155/220
f 320/155/221 328/155/221 329/155/224 321/155/224
f 316/155/225 325/155/225 323/155/222 317/155/222
f 322/155/226 327/155/226 325/155/225 316/155/225
f 321/155/224 329/155/224 326/155/227 315/155/227
f 315/155/217 326/155/217 289/155/217 278/155/217
f 332/156/207 338/156/207 303/156/207 296/156/207 331/156/207 337/156/207 336/156/207 335/156/207 334/156/207 333/156/207
f 339/156/206 346/156/206 342/156/206 341/156/206 345/156/206 344/156/206 343/156/206 314/156/206 311/156/206 340/156/206
f 336/156/221 345/156/221 341/156/220 335/156/220
f 331/156/228 343/156/228 344/156/224 337/156/224
f 334/156/223 342/156/223 346/156/222 333/156/222
f 338/156/210 340/156/210 311/156/210 303/156/210
f 332/156/225 339/156/225 340/156/226 338/156/226
f 333/156/222 346/156/222 339/156/225 332/156/225
f 337/156/224 344/156/224 345/156/221 336/156/221
f 335/156/220 341/156/220 342/156/223 334/156/223
f 296/156/217 314/156/217 343/156/228 331/156/228
