# Blender 5.0.1
# www.blender.org
o Ally_Frigate
v 0.000000 0.200000 15.000000
v 0.000000 -0.200000 15.000000
v 0.000000 2.000000 -10.000000
v 0.000000 -2.000000 -10.000000
v 0.000000 2.000000 -17.000000
v 0.000000 -2.000000 -17.000000
v -4.097014 1.388057 -10.000000
v -1.500000 2.388057 -10.500000
v -4.097014 1.388057 -17.000000
v -1.500000 2.388057 -16.500000
v 1.500000 2.388057 -10.500000
v 4.097014 1.388057 -10.000000
v 1.500000 2.388057 -16.500000
v 4.097014 1.388057 -17.000000
v 2.750610 0.406296 11.561738
v 4.000000 0.550000 8.000000
v 4.000000 -0.550000 8.000000
v 2.750610 -0.406296 11.561738
v -4.000000 0.550000 8.000000
v -2.750610 0.406296 11.561738
v -2.750610 -0.406296 11.561738
v -4.000000 -0.550000 8.000000
v -2.000000 2.388057 -10.000000
v -2.000000 2.388057 -17.000000
v 2.000000 2.388057 -10.000000
v 2.000000 2.388057 -17.000000
v -1.500000 3.000000 -10.500000
v -1.500000 3.000000 -16.500000
v 1.500000 3.000000 -10.500000
v 1.500000 3.000000 -16.500000
v -4.000000 1.000000 -10.000000
v -4.000000 -1.000000 -10.000000
v -4.000000 -1.000000 -17.000000
v -4.000000 1.000000 -17.000000
v 4.000000 1.000000 -10.000000
v 4.000000 -1.000000 -10.000000
v 4.000000 1.000000 -17.000000
v 4.000000 -1.000000 -17.000000
v 4.000000 -0.750000 0.000000
v 0.000000 -1.500000 0.000000
v 0.000000 1.500000 0.000000
v 4.000000 0.750000 0.000000
v -4.000000 -0.750000 0.000000
v -4.000000 0.750000 0.000000
v -4.400000 0.165000 8.940638
v -4.400000 -0.165000 8.940638
v -3.025671 -0.165000 12.858550
v -3.025671 0.165000 12.858550
v 0.000000 -0.165000 -17.000000
v 0.000000 0.165000 -17.000000
v -4.400000 -0.165000 -17.000000
v -4.400000 0.165000 -17.000000
v 4.400000 0.165000 -17.000000
v 4.400000 -0.165000 -17.000000
v 0.000000 0.165000 16.640638
v 0.000000 -0.165000 16.640638
v -4.400000 -0.165000 -10.859363
v -4.400000 0.165000 -10.859363
v 4.400000 -0.165000 -10.859363
v 4.400000 0.165000 -10.859363
v -4.400000 0.165000 0.000000
v -4.400000 -0.165000 0.000000
v 4.400000 0.165000 0.000000
v 4.400000 -0.165000 0.000000
v 4.400000 -0.165000 8.940638
v 4.400000 0.165000 8.940638
v 3.025671 0.165000 12.858550
v 3.025671 -0.165000 12.858550
v 0.000000 0.859669 8.000000
v 0.000000 -0.811316 8.000000
vn -0.0000 -0.0000 1.0000
vn -0.0000 -0.9998 0.0187
vn -0.2281 -0.9735 0.0183
vn -0.2425 -0.9701 -0.0000
vn -0.0000 -1.0000 -0.0000
vn 0.2281 -0.9735 0.0183
vn 0.2425 -0.9701 -0.0000
vn -0.4304 0.9026 -0.0000
vn -0.2206 0.9754 -0.0000
vn -0.0000 -0.0000 -1.0000
vn -0.9701 -0.2425 -0.0000
vn 0.2206 0.9754 -0.0000
vn 0.4304 0.9026 -0.0000
vn 0.9701 -0.2425 -0.0000
vn 0.2136 0.9762 0.0366
vn -0.0000 0.9993 0.0375
vn -0.0000 0.9990 0.0450
vn 0.1724 0.9840 0.0444
vn 0.1694 -0.9845 0.0459
vn -0.0000 -0.9989 0.0465
vn -0.2136 0.9762 0.0366
vn -0.1724 0.9840 0.0444
vn -0.1694 -0.9845 0.0459
vn -0.0000 1.0000 -0.0000
vn -1.0000 -0.0000 -0.0000
vn 1.0000 -0.0000 -0.0000
vn -0.0000 -0.9978 0.0662
vn -0.4416 -0.8956 0.0546
vn 0.4416 -0.8956 0.0546
vn -0.4447 0.8940 0.0549
vn -0.0000 0.9977 0.0675
vn 0.4447 0.8940 0.0549
vn -0.8747 -0.0000 0.4847
vn -0.9858 -0.0000 0.1679
vn 0.8747 -0.0000 0.4847
vn 0.9858 -0.0000 0.1679
vn 0.9733 0.2295 0.0008
vn 0.9551 0.2961 0.0035
vn 0.9551 -0.2961 0.0035
vn 0.9733 -0.2295 0.0008
vn 0.7809 -0.0000 0.6247
vn -0.7809 -0.0000 0.6247
vn -0.9551 0.2961 0.0035
vn -0.9551 -0.2961 0.0035
vn -0.9733 0.2295 0.0008
vn -0.9752 0.2215 -0.0000
vn -0.9752 -0.2215 -0.0000
vn -0.9733 -0.2295 0.0008
vn 0.9752 0.2215 -0.0000
vn 0.9752 -0.2215 -0.0000
vn -0.1849 -0.9768 0.1083
vn -0.1336 -0.9860 0.0996
vn -0.4504 -0.8843 0.1230
vn -0.4504 0.8843 0.1230
vn -0.8245 0.5658 0.0067
vn -0.1336 0.9860 0.0996
vn -0.1893 0.9757 0.1108
vn -0.8245 -0.5658 0.0067
vn -0.0000 0.9962 0.0869
vn -0.0000 0.9963 0.0859
vn -0.0000 -0.9964 0.0847
vn -0.0000 -0.9962 0.0869
vn -0.8808 -0.4735 0.0043
vn -0.9019 -0.4320 -0.0000
vn -0.8808 0.4735 0.0043
vn -0.9019 0.4320 -0.0000
vn 0.8808 -0.4735 0.0043
vn 0.9019 -0.4320 -0.0000
vn 0.9019 0.4320 -0.0000
vn 0.8808 0.4735 0.0043
vn 0.1849 -0.9768 0.1083
vn 0.1336 -0.9860 0.0996
vn 0.1336 0.9860 0.0996
vn 0.1893 0.9757 0.1108
vn 0.8245 -0.5658 0.0067
vn 0.8245 0.5658 0.0067
vn 0.4504 0.8843 0.1230
vn 0.4504 -0.8843 0.1230
vt 0.368430 0.095875
vt 0.376634 0.059954
vt 0.377698 0.132253
vt 0.108273 0.392669
vt 0.138091 0.324515
vt 0.348674 0.401844
vt 0.303364 0.539667
vt 0.034703 0.444558
vt 0.216754 0.701786
vt 0.361177 0.011868
vt 0.371195 0.019359
vt 0.373019 0.178022
vt 0.497198 0.129307
vt 0.502636 0.169903
vt 0.505401 0.093386
vt 0.512654 0.177393
vt 0.361177 0.189261
vt 0.500813 0.011239
vt 0.496134 0.057008
vt 0.512654 0.000000
vt 0.439624 0.470275
vt 0.361177 0.478644
vt 0.372638 0.461026
vt 0.425681 0.458270
vt -0.000000 0.374491
vt 0.013287 0.310249
vt 0.032632 0.243223
vt 0.049317 0.250309
vt 0.003233 0.256176
vt 0.035677 0.247550
vt 0.054786 0.290853
vt 0.021638 0.242638
vt 0.058359 0.232575
vt 0.386750 0.123096
vt 0.487989 0.120453
vt 0.487081 0.066165
vt 0.385843 0.068808
vt 0.428163 0.364362
vt 0.375120 0.367118
vt 0.439624 0.346744
vt 0.361177 0.355113
vt 0.021210 0.160333
vt 0.040121 0.154207
vt -0.000000 0.160159
vt 0.005292 0.161479
vt 0.023059 0.161789
vt 0.040874 0.157282
vt 0.393711 0.267271
vt 0.413214 0.189261
vt 0.419064 0.190724
vt 0.399562 0.268734
vt 0.374209 0.345282
vt 0.380059 0.346744
vt 0.012413 0.117098
vt 0.014373 0.149998
vt 0.027868 0.147281
vt 0.024392 0.114416
vt 0.008074 0.116004
vt 0.011791 0.148985
vt 0.027326 0.147935
vt 0.020844 0.115681
vt 0.032474 0.439431
vt 0.035620 0.251091
vt 0.015865 0.254007
vt 0.030321 0.458967
vt 0.004960 0.020888
vt 0.002421 0.000000
vt 0.031601 0.239811
vt 0.047437 0.235325
vt 0.104574 0.312853
vt 0.357448 0.344072
vt 0.355852 0.362057
vt 0.132224 0.317161
vt 0.188851 0.892603
vt 0.194222 0.803366
vt 0.028615 0.123226
vt 0.009183 0.128527
vt 0.010837 0.068821
vt 0.009235 0.057279
vt 0.432096 0.276868
vt 0.432096 0.201517
vt 0.361177 0.334489
vt 0.361177 0.259138
vt 0.396637 0.343354
vt 0.396637 0.192652
vt 0.361177 0.301613
vt 0.122815 1.000000
vt 0.005340 0.125703
vt 0.027457 0.125900
s 1
f 3/1/1 25/2/1 23/3/1
f 4/4/2 32/5/3 33/6/4 6/7/5
f 36/8/6 4/4/2 6/7/5 38/9/7
f 3/1/1 35/10/1 12/11/1 25/2/1
f 7/12/8 23/3/9 24/13/9 9/14/8
f 5/15/10 34/16/10 9/14/10 24/13/10
f 34/16/11 31/17/11 7/12/11 9/14/11
f 31/17/1 3/1/1 23/3/1 7/12/1
f 25/2/12 12/11/13 14/18/13 26/19/12
f 35/10/14 37/20/14 14/18/14 12/11/14
f 37/20/10 5/15/10 26/19/10 14/18/10
f 8/21/1 11/22/1 29/23/1 27/24/1
f 24/13/10 26/19/10 5/15/10
f 35/25/15 3/26/16 41/27/17 42/28/18
f 4/4/2 36/8/6 39/29/19 40/30/20
f 3/26/16 31/31/21 44/32/22 41/27/17
f 32/5/3 4/4/2 40/30/20 43/33/23
f 8/34/24 10/35/24 24/13/9 23/3/9
f 13/36/24 11/37/24 25/2/12 26/19/12
f 11/37/24 8/34/24 23/3/9 25/2/12
f 10/35/24 13/36/24 26/19/12 24/13/9
f 28/38/24 27/24/24 29/23/24 30/39/24
f 10/40/25 8/21/25 27/24/25 28/38/25
f 13/41/10 10/40/10 28/38/10 30/39/10
f 11/22/26 13/41/26 30/39/26 29/23/26
f 43/33/23 40/30/20 70/42/27 22/43/28
f 40/30/20 39/29/19 17/44/29 70/42/27
f 41/27/17 44/32/22 19/45/30 69/46/31
f 42/28/18 41/27/17 69/46/31 16/47/32
f 50/48/10 53/49/10 54/50/10 49/51/10
f 52/52/10 50/48/10 49/51/10 51/53/10
f 48/54/33 45/55/34 46/56/34 47/57/33
f 68/58/35 65/59/36 66/60/36 67/61/35
f 60/62/37 63/63/38 64/64/39 59/65/40
f 67/61/35 55/66/41 56/67/41 68/58/35
f 55/66/42 48/54/33 47/57/33 56/67/42
f 45/55/34 61/68/43 62/69/44 46/56/34
f 58/70/45 52/71/46 51/72/47 57/73/48
f 53/74/49 60/62/37 59/65/40 54/75/50
f 63/63/38 66/60/36 65/59/36 64/64/39
f 61/68/43 58/70/45 57/73/48 62/69/44
f 21/76/51 47/57/52 46/56/53 22/43/28
f 45/55/54 19/45/30 44/32/55 61/68/43
f 48/54/56 20/77/57 19/45/30 45/55/54
f 22/43/28 46/56/53 62/69/44 43/33/58
f 55/66/59 1/78/60 20/77/57 48/54/56
f 2/79/61 56/67/62 47/57/52 21/76/51
f 6/80/10 49/51/10 54/50/10 38/81/10
f 52/52/10 34/82/10 5/83/10 50/48/10
f 33/84/10 51/53/10 49/51/10 6/80/10
f 50/48/10 5/83/10 37/85/10 53/49/10
f 32/5/63 57/73/48 51/72/47 33/6/64
f 58/70/45 31/31/65 34/86/66 52/71/46
f 36/8/67 38/9/68 54/75/50 59/65/40
f 60/62/37 53/74/49 37/87/69 35/25/70
f 18/88/71 68/58/72 56/67/62 2/79/61
f 67/61/73 15/89/74 1/78/60 55/66/59
f 43/33/58 62/69/44 57/73/48 32/5/63
f 61/68/43 44/32/55 31/31/65 58/70/45
f 36/8/67 59/65/40 64/64/39 39/29/75
f 60/62/37 35/25/70 42/28/76 63/63/38
f 63/63/38 42/28/76 16/47/32 66/60/77
f 39/29/75 64/64/39 65/59/78 17/44/29
f 15/89/74 67/61/73 66/60/77 16/47/32
f 68/58/72 18/88/71 17/44/29 65/59/78
f 16/47/32 69/46/31 1/78/60 15/89/74
f 69/46/31 19/45/30 20/77/57 1/78/60
f 70/42/27 17/44/29 18/88/71 2/79/61
f 22/43/28 70/42/27 2/79/61 21/76/51
l 3 5
