# Blender 5.0.1
# www.blender.org
g Barrels_Cylinder
v -0.200000 0.270000 0.270000
v -0.244800 0.270000 1.700000
v -0.201537 0.254393 0.270000
v -0.245476 0.263133 1.700000
v -0.206090 0.239386 0.270000
v -0.247479 0.256530 1.700000
v -0.213482 0.225555 0.270000
v -0.250732 0.250444 1.700000
v -0.223431 0.213432 0.270000
v -0.255110 0.245110 1.700000
v -0.235554 0.203483 0.270000
v -0.260444 0.240733 1.700000
v -0.249385 0.196090 0.270000
v -0.266529 0.237480 1.700000
v -0.264393 0.191537 0.270000
v -0.273133 0.235477 1.700000
v -0.280000 0.190000 0.270000
v -0.280000 0.234800 1.700000
v -0.295607 0.191537 0.270000
v -0.286867 0.235477 1.700000
v -0.310615 0.196090 0.270000
v -0.293470 0.237480 1.700000
v -0.324446 0.203483 0.270000
v -0.299556 0.240733 1.700000
v -0.336569 0.213432 0.270000
v -0.304890 0.245110 1.700000
v -0.346518 0.225555 0.270000
v -0.309268 0.250444 1.700000
v -0.353910 0.239386 0.270000
v -0.312520 0.256530 1.700000
v -0.358463 0.254393 0.270000
v -0.314524 0.263133 1.700000
v -0.360000 0.270000 0.270000
v -0.315200 0.270000 1.700000
v -0.358463 0.285607 0.270000
v -0.314524 0.276867 1.700000
v -0.353910 0.300615 0.270000
v -0.312520 0.283471 1.700000
v -0.346518 0.314446 0.270000
v -0.309268 0.289556 1.700000
v -0.336569 0.326569 0.270000
v -0.304890 0.294890 1.700000
v -0.324446 0.336518 0.270000
v -0.299556 0.299268 1.700000
v -0.310615 0.343911 0.270000
v -0.293470 0.302521 1.700000
v -0.295607 0.348463 0.270000
v -0.286867 0.304524 1.700000
v -0.280000 0.350000 0.270000
v -0.280000 0.305200 1.700000
v -0.264393 0.348463 0.270000
v -0.273133 0.304524 1.700000
v -0.249385 0.343911 0.270000
v -0.266529 0.302521 1.700000
v -0.235554 0.336518 0.270000
v -0.260444 0.299268 1.700000
v -0.223432 0.326569 0.270000
v -0.255110 0.294890 1.700000
v -0.213482 0.314446 0.270000
v -0.250732 0.289556 1.700000
v -0.206090 0.300615 0.270000
v -0.247479 0.283471 1.700000
v -0.201537 0.285607 0.270000
v -0.245476 0.276867 1.700000
v -0.253218 0.270000 -0.230000
v -0.253732 0.264775 -0.230000
v -0.255256 0.259751 -0.230000
v -0.257731 0.255121 -0.230000
v -0.261062 0.251062 -0.230000
v -0.265121 0.247732 -0.230000
v -0.269751 0.245257 -0.230000
v -0.274775 0.243733 -0.230000
v -0.280000 0.243218 -0.230000
v -0.285225 0.243733 -0.230000
v -0.290249 0.245257 -0.230000
v -0.294879 0.247732 -0.230000
v -0.298938 0.251062 -0.230000
v -0.302269 0.255121 -0.230000
v -0.304744 0.259751 -0.230000
v -0.306268 0.264775 -0.230000
v -0.306782 0.270000 -0.230000
v -0.306268 0.275225 -0.230000
v -0.304744 0.280249 -0.230000
v -0.302269 0.284880 -0.230000
v -0.298938 0.288938 -0.230000
v -0.294880 0.292269 -0.230000
v -0.290249 0.294744 -0.230000
v -0.285225 0.296268 -0.230000
v -0.280000 0.296782 -0.230000
v -0.274775 0.296268 -0.230000
v -0.269751 0.294744 -0.230000
v -0.265121 0.292269 -0.230000
v -0.261062 0.288938 -0.230000
v -0.257731 0.284880 -0.230000
v -0.255256 0.280249 -0.230000
v -0.253732 0.275225 -0.230000
v -0.200000 0.270000 -0.230000
v -0.201537 0.254393 -0.230000
v -0.206090 0.239386 -0.230000
v -0.213482 0.225555 -0.230000
v -0.223431 0.213432 -0.230000
v -0.235554 0.203483 -0.230000
v -0.249385 0.196090 -0.230000
v -0.264393 0.191537 -0.230000
v -0.280000 0.190000 -0.230000
v -0.295607 0.191537 -0.230000
v -0.310615 0.196090 -0.230000
v -0.324446 0.203483 -0.230000
v -0.336569 0.213432 -0.230000
v -0.346518 0.225555 -0.230000
v -0.353910 0.239386 -0.230000
v -0.358463 0.254393 -0.230000
v -0.360000 0.270000 -0.230000
v -0.358463 0.285607 -0.230000
v -0.353910 0.300615 -0.230000
v -0.346518 0.314446 -0.230000
v -0.336569 0.326569 -0.230000
v -0.324446 0.336518 -0.230000
v -0.310615 0.343911 -0.230000
v -0.295607 0.348463 -0.230000
v -0.280000 0.350000 -0.230000
v -0.264393 0.348463 -0.230000
v -0.249385 0.343911 -0.230000
v -0.235554 0.336518 -0.230000
v -0.223432 0.326569 -0.230000
v -0.213482 0.314446 -0.230000
v -0.206090 0.300615 -0.230000
v -0.201537 0.285607 -0.230000
v -0.253218 0.270000 1.700000
v -0.253732 0.264775 1.700000
v -0.255256 0.259751 1.700000
v -0.257731 0.255121 1.700000
v -0.261062 0.251062 1.700000
v -0.265120 0.247732 1.700000
v -0.269751 0.245257 1.700000
v -0.274775 0.243733 1.700000
v -0.280000 0.243218 1.700000
v -0.285225 0.243733 1.700000
v -0.290249 0.245257 1.700000
v -0.294879 0.247732 1.700000
v -0.298938 0.251062 1.700000
v -0.302269 0.255121 1.700000
v -0.304744 0.259751 1.700000
v -0.306268 0.264775 1.700000
v -0.306782 0.270000 1.700000
v -0.306268 0.275225 1.700000
v -0.304744 0.280249 1.700000
v -0.302269 0.284880 1.700000
v -0.298938 0.288938 1.700000
v -0.294879 0.292269 1.700000
v -0.290249 0.294744 1.700000
v -0.285225 0.296268 1.700000
v -0.280000 0.296782 1.700000
v -0.274775 0.296268 1.700000
v -0.269751 0.294744 1.700000
v -0.265121 0.292269 1.700000
v -0.261062 0.288938 1.700000
v -0.257731 0.284880 1.700000
v -0.255256 0.280249 1.700000
v -0.253732 0.275225 1.700000
vn 0.9999 -0.0000 0.0156
vn 0.9995 -0.0000 0.0313
vn 0.9803 -0.1950 0.0313
vn 0.9807 -0.1951 0.0156
vn 0.9234 -0.3825 0.0313
vn 0.9238 -0.3826 0.0156
vn 0.8311 -0.5553 0.0313
vn 0.8314 -0.5555 0.0156
vn 0.7068 -0.7068 0.0313
vn 0.7070 -0.7070 0.0156
vn 0.5553 -0.8311 0.0313
vn 0.5555 -0.8314 0.0156
vn 0.3825 -0.9234 0.0313
vn 0.3826 -0.9238 0.0156
vn 0.1950 -0.9803 0.0313
vn 0.1951 -0.9807 0.0156
vn -0.0000 -0.9995 0.0313
vn -0.0000 -0.9999 0.0156
vn -0.1950 -0.9803 0.0313
vn -0.1951 -0.9807 0.0156
vn -0.3825 -0.9234 0.0313
vn -0.3826 -0.9238 0.0156
vn -0.5553 -0.8311 0.0313
vn -0.5555 -0.8314 0.0156
vn -0.7068 -0.7068 0.0313
vn -0.7070 -0.7070 0.0156
vn -0.8311 -0.5553 0.0313
vn -0.8314 -0.5555 0.0156
vn -0.9234 -0.3825 0.0313
vn -0.9238 -0.3826 0.0156
vn -0.9803 -0.1950 0.0313
vn -0.9807 -0.1951 0.0156
vn -0.9995 -0.0000 0.0313
vn -0.9999 -0.0000 0.0156
vn -0.9803 0.1950 0.0313
vn -0.9807 0.1951 0.0156
vn -0.9234 0.3825 0.0313
vn -0.9238 0.3826 0.0156
vn -0.8311 0.5553 0.0313
vn -0.8314 0.5555 0.0156
vn -0.7068 0.7068 0.0313
vn -0.7070 0.7070 0.0156
vn -0.5553 0.8311 0.0313
vn -0.5555 0.8314 0.0156
vn -0.3825 0.9234 0.0313
vn -0.3826 0.9238 0.0156
vn -0.1950 0.9803 0.0313
vn -0.1951 0.9807 0.0156
vn -0.0000 0.9995 0.0313
vn -0.0000 0.9999 0.0156
vn 0.1950 0.9803 0.0313
vn 0.1951 0.9807 0.0156
vn 0.3825 0.9234 0.0313
vn 0.3826 0.9238 0.0156
vn 0.5553 0.8311 0.0313
vn 0.5555 0.8314 0.0156
vn 0.7068 0.7068 0.0313
vn 0.7070 0.7070 0.0156
vn 0.8311 0.5553 0.0313
vn 0.8314 0.5555 0.0156
vn 0.9234 0.3825 0.0313
vn 0.9238 0.3826 0.0156
vn 0.9803 0.1950 0.0313
vn 0.9807 0.1951 0.0156
vn 0.9239 -0.3827 -0.0000
vn 0.9808 -0.1951 -0.0000
vn -0.1951 -0.9808 -0.0000
vn -0.3827 -0.9239 -0.0000
vn -0.5556 -0.8315 -0.0000
vn -0.7071 0.7071 -0.0000
vn -0.8315 0.5556 -0.0000
vn 0.8315 0.5556 -0.0000
vn 0.7071 0.7071 -0.0000
vn 0.1951 -0.9808 -0.0000
vn 0.3827 -0.9239 -0.0000
vn -1.0000 -0.0000 -0.0000
vn -0.9808 -0.1951 -0.0000
vn 0.1951 0.9808 -0.0000
vn -0.0000 1.0000 -0.0000
vn 0.8315 -0.5556 -0.0000
vn -0.7071 -0.7071 -0.0000
vn -0.5556 0.8315 -0.0000
vn 0.9239 0.3827 -0.0000
vn -0.0000 -1.0000 -0.0000
vn -0.9808 0.1951 -0.0000
vn 0.3827 0.9239 -0.0000
vn 0.7071 -0.7071 -0.0000
vn -0.8315 -0.5556 -0.0000
vn -0.3827 0.9239 -0.0000
vn 0.9808 0.1951 -0.0000
vn -0.9239 0.3827 -0.0000
vn 0.5556 0.8315 -0.0000
vn 0.5556 -0.8315 -0.0000
vn -0.9239 -0.3827 -0.0000
vn -0.1951 0.9808 -0.0000
vn 1.0000 -0.0000 -0.0000
vn -0.0000 -0.0000 -1.0000
vn -0.0000 -0.0000 1.0000
vt 1.000000 0.500000
vt 1.000000 1.000000
vt 0.968750 1.000000
vt 0.968750 0.500000
vt 0.937500 1.000000
vt 0.937500 0.500000
vt 0.906250 1.000000
vt 0.906250 0.500000
vt 0.875000 1.000000
vt 0.875000 0.500000
vt 0.843750 1.000000
vt 0.843750 0.500000
vt 0.812500 1.000000
vt 0.812500 0.500000
vt 0.781250 1.000000
vt 0.781250 0.500000
vt 0.750000 1.000000
vt 0.750000 0.500000
vt 0.718750 1.000000
vt 0.718750 0.500000
vt 0.687500 1.000000
vt 0.687500 0.500000
vt 0.656250 1.000000
vt 0.656250 0.500000
vt 0.625000 1.000000
vt 0.625000 0.500000
vt 0.593750 1.000000
vt 0.593750 0.500000
vt 0.562500 1.000000
vt 0.562500 0.500000
vt 0.531250 1.000000
vt 0.531250 0.500000
vt 0.500000 1.000000
vt 0.500000 0.500000
vt 0.468750 1.000000
vt 0.468750 0.500000
vt 0.437500 1.000000
vt 0.437500 0.500000
vt 0.406250 1.000000
vt 0.406250 0.500000
vt 0.375000 1.000000
vt 0.375000 0.500000
vt 0.343750 1.000000
vt 0.343750 0.500000
vt 0.312500 1.000000
vt 0.312500 0.500000
vt 0.281250 1.000000
vt 0.281250 0.500000
vt 0.250000 1.000000
vt 0.250000 0.500000
vt 0.218750 1.000000
vt 0.218750 0.500000
vt 0.187500 1.000000
vt 0.187500 0.500000
vt 0.156250 1.000000
vt 0.156250 0.500000
vt 0.125000 1.000000
vt 0.125000 0.500000
vt 0.093750 1.000000
vt 0.093750 0.500000
vt 0.062500 1.000000
vt 0.062500 0.500000
vt 0.031250 1.000000
vt 0.031250 0.500000
vt 0.000000 1.000000
vt 0.000000 0.500000
vt 0.662441 0.267417
vt 0.667521 0.284164
vt 0.767417 0.337559
vt 0.750000 0.339274
vt 0.750000 0.490000
vt 0.796822 0.485388
vt 0.784164 0.332479
vt 0.841844 0.471731
vt 0.799598 0.324229
vt 0.883337 0.449553
vt 0.813127 0.313126
vt 0.919706 0.419706
vt 0.824229 0.299598
vt 0.949553 0.383337
vt 0.832478 0.284164
vt 0.971731 0.341844
vt 0.837559 0.267416
vt 0.985388 0.296822
vt 0.839274 0.250000
vt 0.990000 0.250000
vt 0.837559 0.232584
vt 0.985388 0.203178
vt 0.832478 0.215836
vt 0.971731 0.158156
vt 0.824229 0.200402
vt 0.949553 0.116663
vt 0.813127 0.186874
vt 0.919706 0.080294
vt 0.799598 0.175771
vt 0.883337 0.050447
vt 0.784164 0.167521
vt 0.841844 0.028269
vt 0.767416 0.162441
vt 0.796822 0.014612
vt 0.750000 0.160726
vt 0.750000 0.010000
vt 0.732583 0.162441
vt 0.703178 0.014612
vt 0.715836 0.167521
vt 0.658156 0.028269
vt 0.700402 0.175771
vt 0.616663 0.050447
vt 0.686874 0.186873
vt 0.580294 0.080294
vt 0.675771 0.200402
vt 0.550447 0.116663
vt 0.667521 0.215836
vt 0.528269 0.158156
vt 0.662441 0.232583
vt 0.514612 0.203178
vt 0.660726 0.250000
vt 0.510000 0.250000
vt 0.514612 0.296822
vt 0.528269 0.341844
vt 0.675771 0.299598
vt 0.550447 0.383337
vt 0.686874 0.313127
vt 0.580294 0.419706
vt 0.700402 0.324229
vt 0.616663 0.449553
vt 0.715836 0.332479
vt 0.658156 0.471731
vt 0.732583 0.337559
vt 0.703178 0.485388
s 1
f 1/1/1 2/2/2 4/3/3 3/4/4
f 3/4/4 4/3/3 6/5/5 5/6/6
f 5/6/6 6/5/5 8/7/7 7/8/8
f 7/8/8 8/7/7 10/9/9 9/10/10
f 9/10/10 10/9/9 12/11/11 11/12/12
f 11/12/12 12/11/11 14/13/13 13/14/14
f 13/14/14 14/13/13 16/15/15 15/16/16
f 15/16/16 16/15/15 18/17/17 17/18/18
f 17/18/18 18/17/17 20/19/19 19/20/20
f 19/20/20 20/19/19 22/21/21 21/22/22
f 21/22/22 22/21/21 24/23/23 23/24/24
f 23/24/24 24/23/23 26/25/25 25/26/26
f 25/26/26 26/25/25 28/27/27 27/28/28
f 27/28/28 28/27/27 30/29/29 29/30/30
f 29/30/30 30/29/29 32/31/31 31/32/32
f 31/32/32 32/31/31 34/33/33 33/34/34
f 33/34/34 34/33/33 36/35/35 35/36/36
f 35/36/36 36/35/35 38/37/37 37/38/38
f 37/38/38 38/37/37 40/39/39 39/40/40
f 39/40/40 40/39/39 42/41/41 41/42/42
f 41/42/42 42/41/41 44/43/43 43/44/44
f 43/44/44 44/43/43 46/45/45 45/46/46
f 45/46/46 46/45/45 48/47/47 47/48/48
f 47/48/48 48/47/47 50/49/49 49/50/50
f 49/50/50 50/49/49 52/51/51 51/52/52
f 51/52/52 52/51/51 54/53/53 53/54/54
f 53/54/54 54/53/53 56/55/55 55/56/56
f 55/56/56 56/55/55 58/57/57 57/58/58
f 57/58/58 58/57/57 60/59/59 59/60/60
f 59/60/60 60/59/59 62/61/61 61/62/62
f 61/62/62 62/61/61 64/63/63 63/64/64
f 63/64/64 64/63/63 2/65/2 1/66/1
f 3/4/4 5/6/6 99/6/65 98/4/66
f 90/67/67 91/68/68 155/68/68 154/67/67
f 21/22/22 23/24/24 108/24/69 107/22/68
f 39/40/40 41/42/42 117/42/70 116/40/71
f 57/58/58 59/60/60 126/60/72 125/58/73
f 13/14/14 15/16/16 104/16/74 103/14/75
f 31/32/32 33/34/34 113/34/76 112/32/77
f 49/50/50 51/52/52 122/52/78 121/50/79
f 5/6/6 7/8/8 100/8/80 99/6/65
f 23/24/24 25/26/26 109/26/81 108/24/69
f 41/42/42 43/44/44 118/44/82 117/42/70
f 59/60/60 61/62/62 127/62/83 126/60/72
f 15/16/16 17/18/18 105/18/84 104/16/74
f 33/34/34 35/36/36 114/36/85 113/34/76
f 51/52/52 53/54/54 123/54/86 122/52/78
f 7/8/8 9/10/10 101/10/87 100/8/80
f 25/26/26 27/28/28 110/28/88 109/26/81
f 43/44/44 45/46/46 119/46/89 118/44/82
f 61/62/62 63/64/64 128/64/90 127/62/83
f 17/18/18 19/20/20 106/20/67 105/18/84
f 35/36/36 37/38/38 115/38/91 114/36/85
f 53/54/54 55/56/56 124/56/92 123/54/86
f 9/10/10 11/12/12 102/12/93 101/10/87
f 27/28/28 29/30/30 111/30/94 110/28/88
f 45/46/46 47/48/48 120/48/95 119/46/89
f 1/1/1 3/4/4 98/4/66 97/1/96
f 63/64/64 1/66/1 97/66/96 128/64/90
f 19/20/20 21/22/22 107/22/68 106/20/67
f 37/38/38 39/40/40 116/40/71 115/38/91
f 55/56/56 57/58/58 125/58/73 124/56/92
f 11/12/12 13/14/14 103/14/75 102/12/93
f 29/30/30 31/32/32 112/32/77 111/30/94
f 47/48/48 49/50/50 121/50/79 120/48/95
f 66/69/97 65/70/97 97/71/97 98/72/97
f 67/73/97 66/69/97 98/72/97 99/74/97
f 68/75/97 67/73/97 99/74/97 100/76/97
f 69/77/97 68/75/97 100/76/97 101/78/97
f 70/79/97 69/77/97 101/78/97 102/80/97
f 71/81/97 70/79/97 102/80/97 103/82/97
f 72/83/97 71/81/97 103/82/97 104/84/97
f 73/85/97 72/83/97 104/84/97 105/86/97
f 74/87/97 73/85/97 105/86/97 106/88/97
f 75/89/97 74/87/97 106/88/97 107/90/97
f 76/91/97 75/89/97 107/90/97 108/92/97
f 77/93/97 76/91/97 108/92/97 109/94/97
f 78/95/97 77/93/97 109/94/97 110/96/97
f 79/97/97 78/95/97 110/96/97 111/98/97
f 80/99/97 79/97/97 111/98/97 112/100/97
f 81/101/97 80/99/97 112/100/97 113/102/97
f 82/103/97 81/101/97 113/102/97 114/104/97
f 83/105/97 82/103/97 114/104/97 115/106/97
f 84/107/97 83/105/97 115/106/97 116/108/97
f 85/109/97 84/107/97 116/108/97 117/110/97
f 86/111/97 85/109/97 117/110/97 118/112/97
f 87/113/97 86/111/97 118/112/97 119/114/97
f 88/115/97 87/113/97 119/114/97 120/116/97
f 89/117/97 88/115/97 120/116/97 121/118/97
f 90/67/97 89/117/97 121/118/97 122/119/97
f 91/68/97 90/67/97 122/119/97 123/120/97
f 92/121/97 91/68/97 123/120/97 124/122/97
f 93/123/97 92/121/97 124/122/97 125/124/97
f 94/125/97 93/123/97 125/124/97 126/126/97
f 95/127/97 94/125/97 126/126/97 127/128/97
f 96/129/97 95/127/97 127/128/97 128/130/97
f 65/70/97 96/129/97 128/130/97 97/71/97
f 130/69/98 131/73/98 6/5/98 4/3/98
f 77/93/73 78/95/72 142/95/72 141/93/73
f 91/68/68 92/121/69 156/121/69 155/68/68
f 78/95/72 79/97/83 143/97/83 142/95/72
f 65/70/76 66/69/85 130/69/85 129/70/76
f 92/121/69 93/123/81 157/123/81 156/121/69
f 79/97/83 80/99/90 144/99/90 143/97/83
f 66/69/85 67/73/91 131/73/91 130/69/85
f 93/123/81 94/125/88 158/125/88 157/123/81
f 80/99/90 81/101/96 145/101/96 144/99/90
f 67/73/91 68/75/71 132/75/71 131/73/91
f 94/125/88 95/127/94 159/127/94 158/125/88
f 81/101/96 82/103/66 146/103/66 145/101/96
f 68/75/71 69/77/70 133/77/70 132/75/71
f 95/127/94 96/129/77 160/129/77 159/127/94
f 82/103/66 83/105/65 147/105/65 146/103/66
f 69/77/70 70/79/82 134/79/82 133/77/70
f 96/129/77 65/70/76 129/70/76 160/129/77
f 83/105/65 84/107/80 148/107/80 147/105/65
f 70/79/82 71/81/89 135/81/89 134/79/82
f 84/107/80 85/109/87 149/109/87 148/107/80
f 71/81/89 72/83/95 136/83/95 135/81/89
f 85/109/87 86/111/93 150/111/93 149/109/87
f 72/83/95 73/85/79 137/85/79 136/83/95
f 86/111/93 87/113/75 151/113/75 150/111/93
f 73/85/79 74/87/78 138/87/78 137/85/79
f 87/113/75 88/115/74 152/115/74 151/113/75
f 74/87/78 75/89/86 139/89/86 138/87/78
f 88/115/74 89/117/84 153/117/84 152/115/74
f 75/89/86 76/91/92 140/91/92 139/89/86
f 89/117/84 90/67/67 154/67/67 153/117/84
f 76/91/92 77/93/73 141/93/73 140/91/92
f 131/73/98 132/75/98 8/7/98 6/5/98
f 132/75/98 133/77/98 10/9/98 8/7/98
f 133/77/98 134/79/98 12/11/98 10/9/98
f 134/79/98 135/81/98 14/13/98 12/11/98
f 135/81/98 136/83/98 16/15/98 14/13/98
f 136/83/98 137/85/98 18/17/98 16/15/98
f 137/85/98 138/87/98 20/19/98 18/17/98
f 138/87/98 139/89/98 22/21/98 20/19/98
f 139/89/98 140/91/98 24/23/98 22/21/98
f 140/91/98 141/93/98 26/25/98 24/23/98
f 141/93/98 142/95/98 28/27/98 26/25/98
f 142/95/98 143/97/98 30/29/98 28/27/98
f 143/97/98 144/99/98 32/31/98 30/29/98
f 144/99/98 145/101/98 34/33/98 32/31/98
f 145/101/98 146/103/98 36/35/98 34/33/98
f 146/103/98 147/105/98 38/37/98 36/35/98
f 147/105/98 148/107/98 40/39/98 38/37/98
f 148/107/98 149/109/98 42/41/98 40/39/98
f 149/109/98 150/111/98 44/43/98 42/41/98
f 150/111/98 151/113/98 46/45/98 44/43/98
f 151/113/98 152/115/98 48/47/98 46/45/98
f 152/115/98 153/117/98 50/49/98 48/47/98
f 153/117/98 154/67/98 52/51/98 50/49/98
f 154/67/98 155/68/98 54/53/98 52/51/98
f 155/68/98 156/121/98 56/55/98 54/53/98
f 156/121/98 157/123/98 58/57/98 56/55/98
f 157/123/98 158/125/98 60/59/98 58/57/98
f 158/125/98 159/127/98 62/61/98 60/59/98
f 159/127/98 160/129/98 64/63/98 62/61/98
f 160/129/98 129/70/98 2/65/98 64/63/98
f 129/70/98 130/69/98 4/3/98 2/2/98
g Turret_Plane.001
v -0.186859 -0.100000 -0.700000
v 0.186859 -0.100000 -0.700000
v 0.493420 -0.100000 -0.679836
v -0.700000 -0.100000 0.089278
v -0.700000 -0.100000 -0.283035
v -0.682401 -0.100000 -0.490135
v 0.186859 -0.100000 0.700000
v -0.186859 -0.100000 0.700000
v -0.493420 -0.100000 0.679836
v 0.700000 -0.100000 -0.186859
v 0.700000 -0.100000 0.186859
v 0.679836 -0.100000 0.493420
v -0.598103 -0.100000 -0.598103
v -0.493421 -0.100000 -0.679836
v -0.598103 -0.100000 0.598103
v -0.678205 -0.100000 0.495509
v 0.598103 -0.100000 0.598103
v 0.493421 -0.100000 0.679836
v 0.598103 -0.100000 -0.598103
v 0.679836 -0.100000 -0.493421
v 0.679836 0.000000 -0.493421
v 0.598103 0.000000 -0.598103
v 0.493421 0.000000 0.679836
v 0.598103 0.000000 0.598103
v -0.678205 0.000000 0.495509
v -0.598103 0.000000 0.598103
v -0.493421 0.000000 -0.679836
v -0.598103 0.000000 -0.598103
v 0.679836 0.000000 0.493420
v 0.700000 0.000000 0.186859
v 0.700000 0.000000 -0.186859
v -0.493420 0.000000 0.679836
v -0.186859 0.000000 0.700000
v 0.186859 0.000000 0.700000
v -0.682401 0.000000 -0.490135
v -0.700000 0.000000 -0.283035
v -0.700000 0.000000 0.089278
v 0.493420 0.000000 -0.679836
v 0.186859 0.000000 -0.700000
v -0.186859 0.000000 -0.700000
v 0.543860 0.500000 -0.396620
v 0.478473 0.500000 -0.480366
v 0.394727 0.500000 0.541985
v 0.478473 0.500000 0.476598
v -0.542574 0.500000 0.394524
v -0.478492 0.500000 0.476598
v -0.394746 0.500000 -0.545753
v -0.478492 0.500000 -0.480366
v 0.543860 0.500000 0.392853
v 0.559991 0.500000 0.147604
v 0.559991 0.500000 -0.151371
v -0.394746 0.500000 0.541985
v -0.149497 0.500000 0.558116
v 0.149478 0.500000 0.558116
v -0.545931 0.500000 -0.393992
v -0.560009 0.500000 -0.228312
v -0.560009 0.500000 0.069538
v 0.394727 0.500000 -0.545753
v 0.149478 0.500000 -0.561884
v -0.149497 0.500000 -0.561884
v -0.493421 0.000000 0.179836
v -0.186859 0.000000 0.200000
v 0.186859 0.000000 0.200000
v 0.493421 0.000000 0.179836
v -0.394746 0.500000 -0.058015
v -0.149497 0.500000 -0.041883
v 0.149478 0.500000 -0.041883
v 0.394727 0.500000 -0.058015
vn -0.9630 0.2696 -0.0000
vn 0.7882 -0.0000 -0.6154
vn -0.6154 -0.0000 0.7882
vn -1.0000 -0.0000 -0.0000
vn -0.9964 -0.0000 -0.0847
vn -0.9986 -0.0000 0.0536
vn -0.7882 -0.0000 -0.6154
vn -0.0656 -0.0000 -0.9978
vn 0.7882 -0.0000 0.6154
vn 1.0000 -0.0000 -0.0000
vn 0.0656 -0.0000 0.9978
vn -0.0000 -0.0000 -1.0000
vn -0.6154 -0.0000 -0.7882
vn 0.9978 -0.0000 0.0656
vn -0.0000 -0.0000 1.0000
vn 0.0656 -0.0000 -0.9978
vn -0.7882 -0.0000 0.6154
vn 0.9978 -0.0000 -0.0656
vn -0.0656 -0.0000 0.9978
vn 0.6154 -0.0000 -0.7882
vn 0.6154 -0.0000 0.7882
vn -0.0000 1.0000 -0.0000
vn 0.9599 0.2733 -0.0631
vn 0.7477 0.3164 -0.5838
vn -0.9612 0.2711 0.0516
vn -0.5829 0.3209 0.7465
vn 0.5829 0.3209 0.7465
vn 0.5839 0.3158 -0.7479
vn -0.7467 0.3203 0.5830
vn 0.0632 0.2701 -0.9608
vn -0.0000 0.2730 0.9620
vn -0.5839 0.3158 -0.7479
vn -0.0000 0.2663 -0.9639
vn -0.9811 -0.1937 -0.0000
vn 0.7467 0.3203 0.5830
vn -0.0632 0.2701 -0.9608
vn -0.7477 0.3163 -0.5838
vn 0.9597 0.2737 0.0631
vn -0.9574 0.2770 -0.0814
vn 0.9630 0.2696 -0.0000
vn -0.0590 0.4383 0.8969
vn 0.0590 0.4383 0.8969
vn 0.9972 0.0746 -0.0000
vn -0.9972 0.0745 -0.0000
vn 0.9811 -0.1936 -0.0000
vn -0.0000 -1.0000 -0.0000
vt 0.000000 0.000000
s 0
f 197/131/99 217/131/99 216/131/99 196/131/99
f 181/131/100 180/131/100 179/131/100 182/131/100
f 186/131/101 175/131/101 169/131/101 192/131/101
f 196/131/102 165/131/102 164/131/102 197/131/102
f 195/131/103 166/131/103 165/131/103 196/131/103
f 197/131/104 164/131/104 176/131/104 185/131/104
f 188/131/105 173/131/105 166/131/105 195/131/105
f 200/131/106 161/131/106 174/131/106 187/131/106
f 184/131/107 177/131/107 172/131/107 189/131/107
f 190/131/108 171/131/108 170/131/108 191/131/108
f 194/131/109 167/131/109 178/131/109 183/131/109
f 199/131/110 162/131/110 161/131/110 200/131/110
f 187/131/111 174/131/111 173/131/111 188/131/111
f 189/131/112 172/131/112 171/131/112 190/131/112
f 193/131/113 168/131/113 167/131/113 194/131/113
f 198/131/114 163/131/114 162/131/114 199/131/114
f 185/131/115 176/131/115 175/131/115 186/131/115
f 191/131/116 170/131/116 180/131/116 181/131/116
f 192/131/117 169/131/117 168/131/117 193/131/117
f 182/131/118 179/131/118 163/131/118 198/131/118
f 183/131/119 178/131/119 177/131/119 184/131/119
f 205/131/120 206/131/120 212/131/120 225/131/120 207/131/120 208/131/120 215/131/120 216/131/120 217/131/120
f 181/131/121 201/131/121 211/131/121 191/131/121
f 182/131/122 202/131/122 201/131/122 181/131/122
f 185/131/123 205/131/123 217/131/123 197/131/123
f 192/131/124 212/131/124 206/131/124 186/131/124
f 184/131/125 204/131/125 203/131/125 183/131/125
f 198/131/126 218/131/126 202/131/126 182/131/126
f 183/131/120 224/131/120 223/131/120 194/131/120
f 186/131/127 206/131/127 205/131/127 185/131/127
f 199/131/128 219/131/128 218/131/128 198/131/128
f 194/131/129 214/131/129 213/131/129 193/131/129
f 188/131/130 208/131/130 207/131/130 187/131/130
f 200/131/131 220/131/131 219/131/131 199/131/131
f 203/131/132 228/131/132 224/131/132 183/131/132
f 189/131/133 209/131/133 204/131/133 184/131/133
f 187/131/134 207/131/134 220/131/134 200/131/134
f 195/131/135 215/131/135 208/131/135 188/131/135
f 190/131/136 210/131/136 209/131/136 189/131/136
f 196/131/137 216/131/137 215/131/137 195/131/137
f 191/131/138 211/131/138 210/131/138 190/131/138
f 222/131/139 226/131/139 225/131/139 221/131/139
f 224/131/140 228/131/140 227/131/140 223/131/140
f 193/131/120 222/131/120 221/131/120 192/131/120
f 194/131/141 223/131/141 227/131/141 214/131/141
f 220/131/120 207/131/120 225/131/120 226/131/120
f 213/131/142 226/131/142 222/131/142 193/131/142
f 213/131/120 214/131/120 227/131/120 226/131/120
f 192/131/143 221/131/143 225/131/143 212/131/143
f 227/131/120 219/131/120 220/131/120 226/131/120
f 227/131/120 228/131/120 218/131/120 219/131/120
f 201/131/120 202/131/120 218/131/120 228/131/120 203/131/120 204/131/120 209/131/120 210/131/120 211/131/120
f 162/131/144 163/131/144 179/131/144 180/131/144 170/131/144 171/131/144 172/131/144 177/131/144 178/131/144 167/131/144 168/131/144 169/131/144 175/131/144 176/131/144 164/131/144 165/131/144 166/131/144 173/131/144 174/131/144 161/131/144
g Barrels.005_Cylinder.005
v 0.360000 0.270000 0.270000
v 0.315200 0.270000 1.700000
v 0.358463 0.254393 0.270000
v 0.314524 0.263133 1.700000
v 0.353910 0.239386 0.270000
v 0.312521 0.256530 1.700000
v 0.346517 0.225555 0.270000
v 0.309268 0.250444 1.700000
v 0.336568 0.213432 0.270000
v 0.304890 0.245110 1.700000
v 0.324446 0.203483 0.270000
v 0.299556 0.240733 1.700000
v 0.310615 0.196090 0.270000
v 0.293470 0.237480 1.700000
v 0.295607 0.191537 0.270000
v 0.286867 0.235477 1.700000
v 0.280000 0.190000 0.270000
v 0.280000 0.234800 1.700000
v 0.264393 0.191537 0.270000
v 0.273133 0.235477 1.700000
v 0.249385 0.196090 0.270000
v 0.266530 0.237480 1.700000
v 0.235554 0.203483 0.270000
v 0.260444 0.240733 1.700000
v 0.223431 0.213432 0.270000
v 0.255110 0.245110 1.700000
v 0.213482 0.225555 0.270000
v 0.250732 0.250444 1.700000
v 0.206089 0.239386 0.270000
v 0.247479 0.256530 1.700000
v 0.201537 0.254393 0.270000
v 0.245476 0.263133 1.700000
v 0.200000 0.270000 0.270000
v 0.244800 0.270000 1.700000
v 0.201537 0.285607 0.270000
v 0.245476 0.276867 1.700000
v 0.206089 0.300615 0.270000
v 0.247479 0.283471 1.700000
v 0.213482 0.314446 0.270000
v 0.250732 0.289556 1.700000
v 0.223431 0.326569 0.270000
v 0.255110 0.294890 1.700000
v 0.235554 0.336518 0.270000
v 0.260444 0.299268 1.700000
v 0.249385 0.343911 0.270000
v 0.266530 0.302521 1.700000
v 0.264393 0.348463 0.270000
v 0.273133 0.304524 1.700000
v 0.280000 0.350000 0.270000
v 0.280000 0.305200 1.700000
v 0.295607 0.348463 0.270000
v 0.286867 0.304524 1.700000
v 0.310615 0.343911 0.270000
v 0.293470 0.302521 1.700000
v 0.324445 0.336518 0.270000
v 0.299556 0.299268 1.700000
v 0.336568 0.326569 0.270000
v 0.304890 0.294890 1.700000
v 0.346517 0.314446 0.270000
v 0.309268 0.289556 1.700000
v 0.353910 0.300615 0.270000
v 0.312521 0.283471 1.700000
v 0.358463 0.285607 0.270000
v 0.314524 0.276867 1.700000
v 0.306782 0.270000 -0.230000
v 0.306267 0.264775 -0.230000
v 0.304743 0.259751 -0.230000
v 0.302269 0.255121 -0.230000
v 0.298938 0.251062 -0.230000
v 0.294879 0.247732 -0.230000
v 0.290249 0.245257 -0.230000
v 0.285225 0.243733 -0.230000
v 0.280000 0.243218 -0.230000
v 0.274775 0.243733 -0.230000
v 0.269751 0.245257 -0.230000
v 0.265120 0.247732 -0.230000
v 0.261062 0.251062 -0.230000
v 0.257731 0.255121 -0.230000
v 0.255256 0.259751 -0.230000
v 0.253732 0.264775 -0.230000
v 0.253218 0.270000 -0.230000
v 0.253732 0.275225 -0.230000
v 0.255256 0.280249 -0.230000
v 0.257731 0.284880 -0.230000
v 0.261062 0.288938 -0.230000
v 0.265120 0.292269 -0.230000
v 0.269751 0.294744 -0.230000
v 0.274775 0.296268 -0.230000
v 0.280000 0.296782 -0.230000
v 0.285225 0.296268 -0.230000
v 0.290249 0.294744 -0.230000
v 0.294879 0.292269 -0.230000
v 0.298938 0.288938 -0.230000
v 0.302268 0.284880 -0.230000
v 0.304743 0.280249 -0.230000
v 0.306268 0.275225 -0.230000
v 0.360000 0.270000 -0.230000
v 0.358463 0.254393 -0.230000
v 0.353910 0.239386 -0.230000
v 0.346517 0.225555 -0.230000
v 0.336568 0.213432 -0.230000
v 0.324445 0.203483 -0.230000
v 0.310614 0.196090 -0.230000
v 0.295607 0.191537 -0.230000
v 0.280000 0.190000 -0.230000
v 0.264393 0.191537 -0.230000
v 0.249385 0.196090 -0.230000
v 0.235554 0.203483 -0.230000
v 0.223431 0.213432 -0.230000
v 0.213482 0.225555 -0.230000
v 0.206089 0.239386 -0.230000
v 0.201537 0.254393 -0.230000
v 0.200000 0.270000 -0.230000
v 0.201537 0.285607 -0.230000
v 0.206089 0.300615 -0.230000
v 0.213482 0.314446 -0.230000
v 0.223431 0.326569 -0.230000
v 0.235554 0.336518 -0.230000
v 0.249385 0.343911 -0.230000
v 0.264393 0.348463 -0.230000
v 0.280000 0.350000 -0.230000
v 0.295607 0.348463 -0.230000
v 0.310614 0.343911 -0.230000
v 0.324445 0.336518 -0.230000
v 0.336568 0.326569 -0.230000
v 0.346517 0.314446 -0.230000
v 0.353910 0.300615 -0.230000
v 0.358463 0.285607 -0.230000
v 0.306782 0.270000 1.700000
v 0.306268 0.264775 1.700000
v 0.304744 0.259751 1.700000
v 0.302269 0.255121 1.700000
v 0.298938 0.251062 1.700000
v 0.294879 0.247732 1.700000
v 0.290249 0.245257 1.700000
v 0.285225 0.243733 1.700000
v 0.280000 0.243218 1.700000
v 0.274775 0.243733 1.700000
v 0.269751 0.245257 1.700000
v 0.265121 0.247732 1.700000
v 0.261062 0.251062 1.700000
v 0.257731 0.255121 1.700000
v 0.255256 0.259751 1.700000
v 0.253732 0.264775 1.700000
v 0.253218 0.270000 1.700000
v 0.253732 0.275225 1.700000
v 0.255256 0.280249 1.700000
v 0.257731 0.284880 1.700000
v 0.261062 0.288938 1.700000
v 0.265121 0.292269 1.700000
v 0.269751 0.294744 1.700000
v 0.274775 0.296268 1.700000
v 0.280000 0.296782 1.700000
v 0.285225 0.296268 1.700000
v 0.290249 0.294744 1.700000
v 0.294879 0.292269 1.700000
v 0.298938 0.288938 1.700000
v 0.302269 0.284880 1.700000
v 0.304744 0.280249 1.700000
v 0.306268 0.275225 1.700000
vn 0.9999 -0.0000 0.0156
vn 0.9995 -0.0000 0.0313
vn 0.9803 -0.1950 0.0313
vn 0.9807 -0.1951 0.0156
vn 0.9234 -0.3825 0.0313
vn 0.9238 -0.3826 0.0156
vn 0.8311 -0.5553 0.0313
vn 0.8314 -0.5555 0.0156
vn 0.7068 -0.7068 0.0313
vn 0.7070 -0.7070 0.0156
vn 0.5553 -0.8311 0.0313
vn 0.5555 -0.8314 0.0156
vn 0.3825 -0.9234 0.0313
vn 0.3826 -0.9238 0.0156
vn 0.1950 -0.9803 0.0313
vn 0.1951 -0.9807 0.0156
vn -0.0000 -0.9995 0.0313
vn -0.0000 -0.9999 0.0156
vn -0.1950 -0.9803 0.0313
vn -0.1951 -0.9807 0.0156
vn -0.3825 -0.9234 0.0313
vn -0.3826 -0.9238 0.0156
vn -0.5553 -0.8311 0.0313
vn -0.5555 -0.8314 0.0156
vn -0.7068 -0.7068 0.0313
vn -0.7070 -0.7070 0.0156
vn -0.8311 -0.5553 0.0313
vn -0.8314 -0.5555 0.0156
vn -0.9234 -0.3825 0.0313
vn -0.9238 -0.3826 0.0156
vn -0.9803 -0.1950 0.0313
vn -0.9807 -0.1951 0.0156
vn -0.9995 -0.0000 0.0313
vn -0.9999 -0.0000 0.0156
vn -0.9803 0.1950 0.0313
vn -0.9807 0.1951 0.0156
vn -0.9234 0.3825 0.0313
vn -0.9238 0.3826 0.0156
vn -0.8311 0.5553 0.0313
vn -0.8314 0.5555 0.0156
vn -0.7068 0.7068 0.0313
vn -0.7070 0.7070 0.0156
vn -0.5553 0.8311 0.0313
vn -0.5555 0.8314 0.0156
vn -0.3825 0.9234 0.0313
vn -0.3826 0.9238 0.0156
vn -0.1950 0.9803 0.0313
vn -0.1951 0.9807 0.0156
vn -0.0000 0.9995 0.0313
vn -0.0000 0.9999 0.0156
vn 0.1950 0.9803 0.0313
vn 0.1951 0.9807 0.0156
vn 0.3825 0.9234 0.0313
vn 0.3826 0.9238 0.0156
vn 0.5553 0.8311 0.0313
vn 0.5555 0.8314 0.0156
vn 0.7068 0.7068 0.0313
vn 0.7070 0.7070 0.0156
vn 0.8311 0.5553 0.0313
vn 0.8314 0.5555 0.0156
vn 0.9234 0.3825 0.0313
vn 0.9238 0.3826 0.0156
vn 0.9803 0.1950 0.0313
vn 0.9807 0.1951 0.0156
vn 0.9239 -0.3827 -0.0000
vn 0.9808 -0.1951 -0.0000
vn -0.1951 -0.9808 -0.0000
vn -0.3827 -0.9239 -0.0000
vn -0.5556 -0.8315 -0.0000
vn -0.7071 0.7071 -0.0000
vn -0.8315 0.5556 -0.0000
vn 0.8315 0.5556 -0.0000
vn 0.7071 0.7071 -0.0000
vn 0.1951 -0.9808 -0.0000
vn 0.3827 -0.9239 -0.0000
vn -1.0000 -0.0000 -0.0000
vn -0.9808 -0.1951 -0.0000
vn 0.1951 0.9808 -0.0000
vn -0.0000 1.0000 -0.0000
vn 0.8315 -0.5556 -0.0000
vn -0.7071 -0.7071 -0.0000
vn -0.5556 0.8315 -0.0000
vn 0.9239 0.3827 -0.0000
vn -0.0000 -1.0000 -0.0000
vn -0.9808 0.1951 -0.0000
vn 0.3827 0.9239 -0.0000
vn 0.7071 -0.7071 -0.0000
vn -0.8315 -0.5556 -0.0000
vn -0.3827 0.9239 -0.0000
vn 0.9808 0.1951 -0.0000
vn -0.9239 0.3827 -0.0000
vn 0.5556 0.8315 -0.0000
vn 0.5556 -0.8315 -0.0000
vn -0.9239 -0.3827 -0.0000
vn -0.1951 0.9808 -0.0000
vn 1.0000 -0.0000 -0.0000
vn -0.0000 -0.0000 -1.0000
vn -0.0000 -0.0000 1.0000
vt 1.000000 0.500000
vt 1.000000 1.000000
vt 0.968750 1.000000
vt 0.968750 0.500000
vt 0.937500 1.000000
vt 0.937500 0.500000
vt 0.906250 1.000000
vt 0.906250 0.500000
vt 0.875000 1.000000
vt 0.875000 0.500000
vt 0.843750 1.000000
vt 0.843750 0.500000
vt 0.812500 1.000000
vt 0.812500 0.500000
vt 0.781250 1.000000
vt 0.781250 0.500000
vt 0.750000 1.000000
vt 0.750000 0.500000
vt 0.718750 1.000000
vt 0.718750 0.500000
vt 0.687500 1.000000
vt 0.687500 0.500000
vt 0.656250 1.000000
vt 0.656250 0.500000
vt 0.625000 1.000000
vt 0.625000 0.500000
vt 0.593750 1.000000
vt 0.593750 0.500000
vt 0.562500 1.000000
vt 0.562500 0.500000
vt 0.531250 1.000000
vt 0.531250 0.500000
vt 0.500000 1.000000
vt 0.500000 0.500000
vt 0.468750 1.000000
vt 0.468750 0.500000
vt 0.437500 1.000000
vt 0.437500 0.500000
vt 0.406250 1.000000
vt 0.406250 0.500000
vt 0.375000 1.000000
vt 0.375000 0.500000
vt 0.343750 1.000000
vt 0.343750 0.500000
vt 0.312500 1.000000
vt 0.312500 0.500000
vt 0.281250 1.000000
vt 0.281250 0.500000
vt 0.250000 1.000000
vt 0.250000 0.500000
vt 0.218750 1.000000
vt 0.218750 0.500000
vt 0.187500 1.000000
vt 0.187500 0.500000
vt 0.156250 1.000000
vt 0.156250 0.500000
vt 0.125000 1.000000
vt 0.125000 0.500000
vt 0.093750 1.000000
vt 0.093750 0.500000
vt 0.062500 1.000000
vt 0.062500 0.500000
vt 0.031250 1.000000
vt 0.031250 0.500000
vt 0.000000 1.000000
vt 0.000000 0.500000
vt 0.662441 0.267417
vt 0.667521 0.284164
vt 0.767417 0.337559
vt 0.750000 0.339274
vt 0.750000 0.490000
vt 0.796822 0.485388
vt 0.784164 0.332479
vt 0.841844 0.471731
vt 0.799598 0.324229
vt 0.883337 0.449553
vt 0.813127 0.313126
vt 0.919706 0.419706
vt 0.824229 0.299598
vt 0.949553 0.383337
vt 0.832478 0.284164
vt 0.971731 0.341844
vt 0.837559 0.267416
vt 0.985388 0.296822
vt 0.839274 0.250000
vt 0.990000 0.250000
vt 0.837559 0.232584
vt 0.985388 0.203178
vt 0.832478 0.215836
vt 0.971731 0.158156
vt 0.824229 0.200402
vt 0.949553 0.116663
vt 0.813127 0.186874
vt 0.919706 0.080294
vt 0.799598 0.175771
vt 0.883337 0.050447
vt 0.784164 0.167521
vt 0.841844 0.028269
vt 0.767416 0.162441
vt 0.796822 0.014612
vt 0.750000 0.160726
vt 0.750000 0.010000
vt 0.732583 0.162441
vt 0.703178 0.014612
vt 0.715836 0.167521
vt 0.658156 0.028269
vt 0.700402 0.175771
vt 0.616663 0.050447
vt 0.686874 0.186873
vt 0.580294 0.080294
vt 0.675771 0.200402
vt 0.550447 0.116663
vt 0.667521 0.215836
vt 0.528269 0.158156
vt 0.662441 0.232583
vt 0.514612 0.203178
vt 0.660726 0.250000
vt 0.510000 0.250000
vt 0.514612 0.296822
vt 0.528269 0.341844
vt 0.675771 0.299598
vt 0.550447 0.383337
vt 0.686874 0.313127
vt 0.580294 0.419706
vt 0.700402 0.324229
vt 0.616663 0.449553
vt 0.715836 0.332479
vt 0.658156 0.471731
vt 0.732583 0.337559
vt 0.703178 0.485388
s 1
f 229/132/145 230/133/146 232/134/147 231/135/148
f 231/135/148 232/134/147 234/136/149 233/137/150
f 233/137/150 234/136/149 236/138/151 235/139/152
f 235/139/152 236/138/151 238/140/153 237/141/154
f 237/141/154 238/140/153 240/142/155 239/143/156
f 239/143/156 240/142/155 242/144/157 241/145/158
f 241/145/158 242/144/157 244/146/159 243/147/160
f 243/147/160 244/146/159 246/148/161 245/149/162
f 245/149/162 246/148/161 248/150/163 247/151/164
f 247/151/164 248/150/163 250/152/165 249/153/166
f 249/153/166 250/152/165 252/154/167 251/155/168
f 251/155/168 252/154/167 254/156/169 253/157/170
f 253/157/170 254/156/169 256/158/171 255/159/172
f 255/159/172 256/158/171 258/160/173 257/161/174
f 257/161/174 258/160/173 260/162/175 259/163/176
f 259/163/176 260/162/175 262/164/177 261/165/178
f 261/165/178 262/164/177 264/166/179 263/167/180
f 263/167/180 264/166/179 266/168/181 265/169/182
f 265/169/182 266/168/181 268/170/183 267/171/184
f 267/171/184 268/170/183 270/172/185 269/173/186
f 269/173/186 270/172/185 272/174/187 271/175/188
f 271/175/188 272/174/187 274/176/189 273/177/190
f 273/177/190 274/176/189 276/178/191 275/179/192
f 275/179/192 276/178/191 278/180/193 277/181/194
f 277/181/194 278/180/193 280/182/195 279/183/196
f 279/183/196 280/182/195 282/184/197 281/185/198
f 281/185/198 282/184/197 284/186/199 283/187/200
f 283/187/200 284/186/199 286/188/201 285/189/202
f 285/189/202 286/188/201 288/190/203 287/191/204
f 287/191/204 288/190/203 290/192/205 289/193/206
f 289/193/206 290/192/205 292/194/207 291/195/208
f 291/195/208 292/194/207 230/196/146 229/197/145
f 231/135/148 233/137/150 327/137/209 326/135/210
f 318/198/211 319/199/212 383/199/212 382/198/211
f 249/153/166 251/155/168 336/155/213 335/153/212
f 267/171/184 269/173/186 345/173/214 344/171/215
f 285/189/202 287/191/204 354/191/216 353/189/217
f 241/145/158 243/147/160 332/147/218 331/145/219
f 259/163/176 261/165/178 341/165/220 340/163/221
f 277/181/194 279/183/196 350/183/222 349/181/223
f 233/137/150 235/139/152 328/139/224 327/137/209
f 251/155/168 253/157/170 337/157/225 336/155/213
f 269/173/186 271/175/188 346/175/226 345/173/214
f 287/191/204 289/193/206 355/193/227 354/191/216
f 243/147/160 245/149/162 333/149/228 332/147/218
f 261/165/178 263/167/180 342/167/229 341/165/220
f 279/183/196 281/185/198 351/185/230 350/183/222
f 235/139/152 237/141/154 329/141/231 328/139/224
f 253/157/170 255/159/172 338/159/232 337/157/225
f 271/175/188 273/177/190 347/177/233 346/175/226
f 289/193/206 291/195/208 356/195/234 355/193/227
f 245/149/162 247/151/164 334/151/211 333/149/228
f 263/167/180 265/169/182 343/169/235 342/167/229
f 281/185/198 283/187/200 352/187/236 351/185/230
f 237/141/154 239/143/156 330/143/237 329/141/231
f 255/159/172 257/161/174 339/161/238 338/159/232
f 273/177/190 275/179/192 348/179/239 347/177/233
f 229/132/145 231/135/148 326/135/210 325/132/240
f 291/195/208 229/197/145 325/197/240 356/195/234
f 247/151/164 249/153/166 335/153/212 334/151/211
f 265/169/182 267/171/184 344/171/215 343/169/235
f 283/187/200 285/189/202 353/189/217 352/187/236
f 239/143/156 241/145/158 331/145/219 330/143/237
f 257/161/174 259/163/176 340/163/221 339/161/238
f 275/179/192 277/181/194 349/181/223 348/179/239
f 294/200/241 293/201/241 325/202/241 326/203/241
f 295/204/241 294/200/241 326/203/241 327/205/241
f 296/206/241 295/204/241 327/205/241 328/207/241
f 297/208/241 296/206/241 328/207/241 329/209/241
f 298/210/241 297/208/241 329/209/241 330/211/241
f 299/212/241 298/210/241 330/211/241 331/213/241
f 300/214/241 299/212/241 331/213/241 332/215/241
f 301/216/241 300/214/241 332/215/241 333/217/241
f 302/218/241 301/216/241 333/217/241 334/219/241
f 303/220/241 302/218/241 334/219/241 335/221/241
f 304/222/241 303/220/241 335/221/241 336/223/241
f 305/224/241 304/222/241 336/223/241 337/225/241
f 306/226/241 305/224/241 337/225/241 338/227/241
f 307/228/241 306/226/241 338/227/241 339/229/241
f 308/230/241 307/228/241 339/229/241 340/231/241
f 309/232/241 308/230/241 340/231/241 341/233/241
f 310/234/241 309/232/241 341/233/241 342/235/241
f 311/236/241 310/234/241 342/235/241 343/237/241
f 312/238/241 311/236/241 343/237/241 344/239/241
f 313/240/241 312/238/241 344/239/241 345/241/241
f 314/242/241 313/240/241 345/241/241 346/243/241
f 315/244/241 314/242/241 346/243/241 347/245/241
f 316/246/241 315/244/241 347/245/241 348/247/241
f 317/248/241 316/246/241 348/247/241 349/249/241
f 318/198/241 317/248/241 349/249/241 350/250/241
f 319/199/241 318/198/241 350/250/241 351/251/241
f 320/252/241 319/199/241 351/251/241 352/253/241
f 321/254/241 320/252/241 352/253/241 353/255/241
f 322/256/241 321/254/241 353/255/241 354/257/241
f 323/258/241 322/256/241 354/257/241 355/259/241
f 324/260/241 323/258/241 355/259/241 356/261/241
f 293/201/241 324/260/241 356/261/241 325/202/241
f 358/200/242 359/204/242 234/136/242 232/134/242
f 305/224/217 306/226/216 370/226/216 369/224/217
f 319/199/212 320/252/213 384/252/213 383/199/212
f 306/226/216 307/228/227 371/228/227 370/226/216
f 293/201/220 294/200/229 358/200/229 357/201/220
f 320/252/213 321/254/225 385/254/225 384/252/213
f 307/228/227 308/230/234 372/230/234 371/228/227
f 294/200/229 295/204/235 359/204/235 358/200/229
f 321/254/225 322/256/232 386/256/232 385/254/225
f 308/230/234 309/232/240 373/232/240 372/230/234
f 295/204/235 296/206/215 360/206/215 359/204/235
f 322/256/232 323/258/238 387/258/238 386/256/232
f 309/232/240 310/234/210 374/234/210 373/232/240
f 296/206/215 297/208/214 361/208/214 360/206/215
f 323/258/238 324/260/221 388/260/221 387/258/238
f 310/234/210 311/236/209 375/236/209 374/234/210
f 297/208/214 298/210/226 362/210/226 361/208/214
f 324/260/221 293/201/220 357/201/220 388/260/221
f 311/236/209 312/238/224 376/238/224 375/236/209
f 298/210/226 299/212/233 363/212/233 362/210/226
f 312/238/224 313/240/231 377/240/231 376/238/224
f 299/212/233 300/214/239 364/214/239 363/212/233
f 313/240/231 314/242/237 378/242/237 377/240/231
f 300/214/239 301/216/223 365/216/223 364/214/239
f 314/242/237 315/244/219 379/244/219 378/242/237
f 301/216/223 302/218/222 366/218/222 365/216/223
f 315/244/219 316/246/218 380/246/218 379/244/219
f 302/218/222 303/220/230 367/220/230 366/218/222
f 316/246/218 317/248/228 381/248/228 380/246/218
f 303/220/230 304/222/236 368/222/236 367/220/230
f 317/248/228 318/198/211 382/198/211 381/248/228
f 304/222/236 305/224/217 369/224/217 368/222/236
f 359/204/242 360/206/242 236/138/242 234/136/242
f 360/206/242 361/208/242 238/140/242 236/138/242
f 361/208/242 362/210/242 240/142/242 238/140/242
f 362/210/242 363/212/242 242/144/242 240/142/242
f 363/212/242 364/214/242 244/146/242 242/144/242
f 364/214/242 365/216/242 246/148/242 244/146/242
f 365/216/242 366/218/242 248/150/242 246/148/242
f 366/218/242 367/220/242 250/152/242 248/150/242
f 367/220/242 368/222/242 252/154/242 250/152/242
f 368/222/242 369/224/242 254/156/242 252/154/242
f 369/224/242 370/226/242 256/158/242 254/156/242
f 370/226/242 371/228/242 258/160/242 256/158/242
f 371/228/242 372/230/242 260/162/242 258/160/242
f 372/230/242 373/232/242 262/164/242 260/162/242
f 373/232/242 374/234/242 264/166/242 262/164/242
f 374/234/242 375/236/242 266/168/242 264/166/242
f 375/236/242 376/238/242 268/170/242 266/168/242
f 376/238/242 377/240/242 270/172/242 268/170/242
f 377/240/242 378/242/242 272/174/242 270/172/242
f 378/242/242 379/244/242 274/176/242 272/174/242
f 379/244/242 380/246/242 276/178/242 274/176/242
f 380/246/242 381/248/242 278/180/242 276/178/242
f 381/248/242 382/198/242 280/182/242 278/180/242
f 382/198/242 383/199/242 282/184/242 280/182/242
f 383/199/242 384/252/242 284/186/242 282/184/242
f 384/252/242 385/254/242 286/188/242 284/186/242
f 385/254/242 386/256/242 288/190/242 286/188/242
f 386/256/242 387/258/242 290/192/242 288/190/242
f 387/258/242 388/260/242 292/194/242 290/192/242
f 388/260/242 357/201/242 230/196/242 292/194/242
f 357/201/242 358/200/242 232/134/242 230/133/242
